<svg id="eye-exam-6" xmlns="http://www.w3.org/2000/svg" width="32" height="26" viewBox="0 0 32 26">
  <path id="Path_330" data-name="Path 330" d="M32,15a1,1,0,0,0-1-1H24V11a1,1,0,0,0,1-1h2a1,1,0,0,0,0-2H25a1,1,0,0,0-1-1H7A1,1,0,0,0,6,8H4a1,1,0,0,0,0,2H6a1,1,0,0,0,1,1H8v3H1a1,1,0,0,0-1,1v1l2.969.742A6,6,0,1,0,14,20V11h4v9a6,6,0,1,0,11.031-3.258L32,16ZM8,24a4,4,0,1,1,4-4A4,4,0,0,1,8,24Zm16,0a4,4,0,1,1,4-4A4,4,0,0,1,24,24Z" fill="#205072"/>
  <path id="Path_331" data-name="Path 331" d="M11,2h3V3H13a1,1,0,0,0-1,1V5a1,1,0,0,0,1,1h6a1,1,0,0,0,1-1V4a1,1,0,0,0-1-1H18V2h3a1,1,0,0,0,0-2H11a1,1,0,0,0,0,2Z" fill="#205072"/>
</svg>
