<svg id="mail" xmlns="http://www.w3.org/2000/svg" width="30.115" height="22.894" viewBox="0 0 30.115 22.894">
  <path id="Path_115" data-name="Path 115" d="M9.879,12.069a.932.932,0,0,0,0-1.354L.467,1.68A3.483,3.483,0,0,0,0,3.432V19.455a3.475,3.475,0,0,0,.414,1.656Z" fill="#205072"/>
  <path id="Path_116" data-name="Path 116" d="M19.242,13.15a1.036,1.036,0,0,0-1.416,0l-1.986,1.9a1.034,1.034,0,0,1-1.414,0l-2.077-1.994a1.037,1.037,0,0,0-1.415,0L1.357,22.195a3.235,3.235,0,0,0,2.007.7H26.818a3.245,3.245,0,0,0,1.918-.631Z" transform="translate(-0.033)" fill="#205072"/>
  <path id="Path_117" data-name="Path 117" d="M30.195,1.776l-9.467,9.043a.932.932,0,0,0,0,1.354l9.414,9.036a3.5,3.5,0,0,0,.467-1.754V3.432A3.512,3.512,0,0,0,30.195,1.776Z" transform="translate(-0.493)" fill="#205072"/>
  <path id="Path_118" data-name="Path 118" d="M14.427,13.087a1.037,1.037,0,0,0,1.416,0L28.823.693A3.24,3.24,0,0,0,26.818,0H3.365a3.25,3.25,0,0,0-1.92.627Z" transform="translate(-0.035)" fill="#205072"/>
</svg>
