<svg xmlns="http://www.w3.org/2000/svg" width="22.839" height="30.711" viewBox="0 0 22.839 30.711">
  <g id="money" transform="translate(0 0)">
    <path id="Path_136" data-name="Path 136" d="M17.223,4.864V5.935a2.132,2.132,0,0,1-.193.908c.32.279,1.025.9,1.326,1.213a2.572,2.572,0,0,0,.75-4.64c.006.063,0,.062,0,0a3.678,3.678,0,0,0-.393-1.332A4.211,4.211,0,0,0,12.974.527a12.341,12.341,0,0,0-2.9,2.193H15.1A2.131,2.131,0,0,1,17.223,4.864Z" fill="#205072"/>
    <path id="Path_137" data-name="Path 137" d="M15.407,8.059a2.072,2.072,0,0,1-.306.029H8.681a2.132,2.132,0,0,1-.932-.221C3.243,10.459,0,17.331,0,22.355a8.773,8.773,0,0,0,.574,3.269c1.5,3.77,5.79,5.087,10.846,5.087s9.34-1.318,10.844-5.088a8.756,8.756,0,0,0,.575-3.271C22.839,17.448,19.748,10.785,15.407,8.059Zm-2.29,16.4a1.281,1.281,0,0,0-.824,1.39v.07c0,.918-.26.946-.936.946-.864,0-.934-.138-.934-.9a1.134,1.134,0,0,0-.934-1.058l-1.443-.326A1.1,1.1,0,0,1,7.4,23.326l.1-.407a.78.78,0,0,1,1.1-.537,6.447,6.447,0,0,0,2.3.463c1.107,0,1.854-.438,1.854-1.184,0-.726-.611-1.185-2.045-1.662-2.044-.688-3.428-1.643-3.428-3.5a3.26,3.26,0,0,1,2.4-2.962,1.325,1.325,0,0,0,.836-1.343c0-.771.417-.9.928-.9s.928.008.928.837a1.08,1.08,0,0,0,.934.982,4.277,4.277,0,0,1,1.08.191,1.014,1.014,0,0,1,.531,1.207l-.09.336a.752.752,0,0,1-1.092.5,4.823,4.823,0,0,0-1.9-.258c-1.242,0-1.643.554-1.643,1.088,0,.612.668,1.032,2.311,1.624,2.273.8,3.161,1.853,3.161,3.592A3.223,3.223,0,0,1,13.117,24.463Z" fill="#205072"/>
    <path id="Path_138" data-name="Path 138" d="M15.839,6a1,1,0,0,1-1,1h-6a1,1,0,0,1-1-1V5a1,1,0,0,1,1-1h6a1,1,0,0,1,1,1Z" fill="#205072"/>
  </g>
</svg>
