<?xml version="1.0" encoding="iso-8859-1"?>
<!-- Generator: Adobe Illustrator 16.0.0, SVG Export Plug-In . SVG Version: 6.00 Build 0)  -->
<!DOCTYPE svg PUBLIC "-//W3C//DTD SVG 1.1//EN" "http://www.w3.org/Graphics/SVG/1.1/DTD/svg11.dtd">
<svg version="1.1" xmlns="http://www.w3.org/2000/svg" xmlns:xlink="http://www.w3.org/1999/xlink" x="0px" y="0px"
	 width="24" height="24" viewBox="0 0 24.049 30.862" 
	 xml:space="preserve">
<g id="award">
	<path d="M3.183,8.735l3.872,2.9c0.403,0.302,0.635,1.013,0.487,1.493l-1.43,4.622c-0.169,0.542-0.137,0.978,0.096,1.292
		c0.347,0.473,1.018,0.518,1.716,0.022l3.958-2.785c0.393-0.277,1.174-0.276,1.568,0l3.954,2.785
		c0.341,0.243,0.649,0.357,0.944,0.357c0.311,0,0.592-0.138,0.77-0.379c0.232-0.314,0.266-0.749,0.098-1.292l-1.428-4.625
		c-0.147-0.479,0.083-1.189,0.484-1.491l3.879-2.902c0.755-0.571,0.719-1.112,0.63-1.385c-0.089-0.271-0.38-0.729-1.328-0.744
		l-4.837-0.069c-0.503-0.008-1.107-0.448-1.271-0.924l-1.563-4.579C13.476,0.134,12.95,0,12.663,0c-0.286,0-0.813,0.134-1.119,1.032
		l-1.56,4.579c-0.163,0.476-0.77,0.916-1.272,0.924L3.874,6.604C2.926,6.62,2.636,7.079,2.546,7.349
		C2.458,7.624,2.424,8.166,3.183,8.735z" fill="#56c596"/>

	<path d="M12.894,17.157c-0.024-0.01-0.094-0.026-0.193-0.026c-0.098,0-0.164,0.018-0.189,0.026l-3.942,2.774
		c-0.503,0.355-1.046,0.545-1.567,0.545c-0.647,0-1.234-0.293-1.611-0.807c-0.159-0.217-0.316-0.521-0.378-0.92L0.08,29.924
		c-0.229,0.521,0.048,0.938,0.616,0.938H5.86c0.569,0,1.223-0.418,1.451-0.938l5.622-12.742L12.894,17.157z" fill="#56c596"/>

	<path d="M23.969,29.924l-4.349-9.856c-0.346,0.268-0.775,0.416-1.236,0.416c-0.523,0-1.033-0.182-1.557-0.554l-2.604-1.835
		l-1.353,3.066l3.867,8.763c0.229,0.518,0.882,0.938,1.449,0.938h5.166C23.921,30.862,24.197,30.444,23.969,29.924z" fill="#56c596"/>
</g>
<g id="Layer_1">
</g>
</svg>
