<svg id="locations" xmlns="http://www.w3.org/2000/svg" width="24" height="24" viewBox="0 0 30.624 29.862">
  <path id="Path_341" data-name="Path 341" d="M15.495,29.862s10.188-8.532,10.188-19.2A10.434,10.434,0,0,0,15.495,0,10.434,10.434,0,0,0,5.308,10.665C5.308,21.33,15.495,29.862,15.495,29.862Zm-4.075-19.2A4.174,4.174,0,0,1,15.495,6.4a4.174,4.174,0,0,1,4.075,4.266,4.174,4.174,0,0,1-4.075,4.266A4.174,4.174,0,0,1,11.42,10.665Z" transform="translate(0)" fill="#56c596"/>
  <path id="Path_342" data-name="Path 342" d="M3.308,10.3a13.347,13.347,0,0,1,.245-2.547A6.966,6.966,0,0,0,0,13.891c0,6.926,6.616,12.467,6.616,12.467a20.542,20.542,0,0,0,1.775-1.765C5.79,20.9,3.308,15.914,3.308,10.3Z" transform="translate(0 0.363)" fill="#56c596"/>
  <path id="Path_343" data-name="Path 343" d="M27.316,10.3a13.347,13.347,0,0,0-.245-2.547,6.968,6.968,0,0,1,3.553,6.136c0,6.926-6.616,12.467-6.616,12.467a20.542,20.542,0,0,1-1.775-1.765C24.834,20.9,27.316,15.914,27.316,10.3Z" transform="translate(0 0.363)" fill="#56c596"/>
</svg>
