<svg id="mail" xmlns="http://www.w3.org/2000/svg" width="24" height="24" viewBox="0 0 30.859 23.967">
  <path id="Path_344" data-name="Path 344" d="M10.123,12.556a.99.99,0,0,0,0-1.417L.479,1.68A3.707,3.707,0,0,0,0,3.514V20.288a3.7,3.7,0,0,0,.424,1.734Z" transform="translate(0 0.079)" fill="#56c596"/>
  <path id="Path_345" data-name="Path 345" d="M19.684,13.168a1.045,1.045,0,0,0-1.451,0L16.2,15.153a1.044,1.044,0,0,1-1.449,0l-2.128-2.087a1.046,1.046,0,0,0-1.45,0L1.357,22.637a3.271,3.271,0,0,0,2.057.732H27.447a3.279,3.279,0,0,0,1.965-.661Z" transform="translate(0 0.598)" fill="#56c596"/>
  <path id="Path_346" data-name="Path 346" d="M30.436,1.776l-9.7,9.467a.991.991,0,0,0,0,1.417L30.38,22.12a3.724,3.724,0,0,0,.479-1.836V3.51A3.74,3.74,0,0,0,30.436,1.776Z" transform="translate(0 0.083)" fill="#56c596"/>
  <path id="Path_347" data-name="Path 347" d="M14.748,13.7a1.046,1.046,0,0,0,1.451,0L29.5.725A3.276,3.276,0,0,0,27.445,0H3.412A3.283,3.283,0,0,0,1.445.656Z" transform="translate(0)" fill="#56c596"/>
</svg>
