<svg id="medical_records" xmlns="http://www.w3.org/2000/svg" width="24" height="24" viewBox="0 0 36 37.687">
  <path id="Path_349" data-name="Path 349" d="M21,10a2.048,2.048,0,0,0-2,2.094H16a2.048,2.048,0,0,0-2,2.094V37.218a2.048,2.048,0,0,0,2,2.094H32a2.048,2.048,0,0,0,2-2.094V14.187a2.048,2.048,0,0,0-2-2.094H29A2.048,2.048,0,0,0,27,10Zm0,2.094h6v2.094H21Zm3.557,16.75L22.064,35.8a1.062,1.062,0,0,0,.585,1.348.987.987,0,0,0,1.287-.613l1.258-3.513h2.611l1.258,3.513a.987.987,0,0,0,1.287.613,1.062,1.062,0,0,0,.585-1.348l-2.493-6.961H31.3a1.048,1.048,0,0,0,0-2.094H21a1.048,1.048,0,0,0,0,2.094ZM31,19.673H17V17.579H31ZM17,24.028h5V21.934H17Zm11.5-.419a2,2,0,1,1-2-2.094A2.048,2.048,0,0,1,28.5,23.609Z" transform="translate(-6 -5.813)" fill="#56c596" fill-rule="evenodd"/>
  <!-- <path id="Path_350" data-name="Path 350" d="M39,8.094H9A1.024,1.024,0,0,0,8,9.141V40.546a1.024,1.024,0,0,0,1,1.047H39a1.024,1.024,0,0,0,1-1.047V9.141A1.024,1.024,0,0,0,39,8.094ZM9,6A3.073,3.073,0,0,0,6,9.141V40.546a3.073,3.073,0,0,0,3,3.141H39a3.073,3.073,0,0,0,3-3.141V9.141A3.073,3.073,0,0,0,39,6Z" transform="translate(-6 -6)" fill="#56c596" fill-rule="evenodd"/> -->
</svg>
