<?xml version="1.0" encoding="iso-8859-1"?>
<!-- Generator: Adobe Illustrator 16.0.0, SVG Export Plug-In . SVG Version: 6.00 Build 0)  -->
<!DOCTYPE svg PUBLIC "-//W3C//DTD SVG 1.1//EN" "http://www.w3.org/Graphics/SVG/1.1/DTD/svg11.dtd">
<svg version="1.1" xmlns="http://www.w3.org/2000/svg" xmlns:xlink="http://www.w3.org/1999/xlink" x="0px" y="0px"
 width="24" height="24" viewBox="0 0 24 30" style="enable-background:new 0 0 24 30;" xml:space="preserve" fill="#56c596">
<g id="message-2">
	<path d="M26.242,0.001H4.922C2.314,0.001,0,2.107,0,4.713v10.659c0,2.606,2.313,4.629,4.922,4.629h10.505L14.29,23.62
		c-0.099,0.619,0.526,0.924,1.073,0.69L24.605,20h1.637C28.848,20,31,17.979,31,15.371V4.712C31,2.108,28.85,0.001,26.242,0.001z
		 M9,12.001c-1.104,0-2-0.896-2-2c0-1.104,0.896-2,2-2s2,0.896,2,2C11,11.105,10.104,12.001,9,12.001z M15,12.001
		c-1.104,0-2-0.896-2-2c0-1.104,0.896-2,2-2s2,0.896,2,2C17,11.105,16.104,12.001,15,12.001z M21,12.001c-1.104,0-2-0.896-2-2
		c0-1.104,0.896-2,2-2s2,0.896,2,2C23,11.105,22.104,12.001,21,12.001z"/>
</g>
<g id="Layer_1_1_">
</g>
</svg>
