<svg id="money" xmlns="http://www.w3.org/2000/svg" width="24" height="24" viewBox="0 0 32 27.218">
  <path id="Path_351" data-name="Path 351" d="M32,1.988A1.946,1.946,0,0,0,30.1,0H1.9A1.946,1.946,0,0,0,0,1.988V16.854a1.946,1.946,0,0,0,1.9,1.989H30.1A1.946,1.946,0,0,0,32,16.855ZM25.435,16.75H6.565A8.38,8.38,0,0,0,2,11.775V7.068A8.38,8.38,0,0,0,6.565,2.094H25.434A8.383,8.383,0,0,0,30,7.068v4.707A8.384,8.384,0,0,0,25.435,16.75Z" fill="#56c596"/>
  <circle id="Ellipse_10" data-name="Ellipse 10" cx="5" cy="5" r="5" transform="translate(11 4.593)" fill="#56c596"/>
  <path id="Path_352" data-name="Path 352" d="M25.844,19.075a7.823,7.823,0,0,0-.409.968H6.565a7.891,7.891,0,0,0-.409-.968H0v1.073a1.946,1.946,0,0,0,1.9,1.989H30.1A1.946,1.946,0,0,0,32,20.148V19.076H25.844Z" transform="translate(0 0.894)" fill="#56c596"/>
  <path id="Path_353" data-name="Path 353" d="M25.844,23.075a7.823,7.823,0,0,0-.409.968H6.565a7.89,7.89,0,0,0-.409-.968H0v1.073a1.946,1.946,0,0,0,1.9,1.989H30.1A1.946,1.946,0,0,0,32,24.148V23.076H25.844Z" transform="translate(0 1.081)" fill="#56c596"/>
</svg>
