<svg id="phone" xmlns="http://www.w3.org/2000/svg" width="24" height="24" viewBox="0 0 22 34.095">
  <path id="Path_348" data-name="Path 348" d="M19.211,0H2.788A2.644,2.644,0,0,0,0,2.469V31.624a2.644,2.644,0,0,0,2.788,2.471H19.21A2.644,2.644,0,0,0,22,31.625V2.469A2.644,2.644,0,0,0,19.211,0ZM5.5,1.827a.652.652,0,0,1,.687-.609h9.625a.652.652,0,0,1,.687.609.652.652,0,0,1-.687.609H6.187A.652.652,0,0,1,5.5,1.827ZM4.125,4.871h13.75V26.789H4.125ZM8.25,29.833a.652.652,0,0,1-.687.609H4.812a.613.613,0,1,1,0-1.218h2.75A.652.652,0,0,1,8.25,29.833Zm9.625,0a.652.652,0,0,1-.687.609h-2.75a.613.613,0,1,1,0-1.218h2.75A.652.652,0,0,1,17.875,29.833Z" fill="#56c596"/>
</svg>
