<?xml version="1.0" encoding="iso-8859-1"?>
<!-- Generator: Adobe Illustrator 16.0.0, SVG Export Plug-In . SVG Version: 6.00 Build 0)  -->
<!DOCTYPE svg PUBLIC "-//W3C//DTD SVG 1.1//EN" "http://www.w3.org/Graphics/SVG/1.1/DTD/svg11.dtd">
<svg id="pin-2" xmlns="http://www.w3.org/2000/svg" width="24" height="24" viewBox="0 0 22 34.095">
<g id="pin-2">
	<path id="pin" d="M24.186,2.614c-2.575-2.393-5.615-3.311-6.788-2.047c-0.351,0.379-1.544,1.66-1.925,2.069
		c-0.708,0.763-0.574,2.144,0.205,3.646l-1.902,2.049c-3-0.881-6.435-0.029-8.682,2.393L3.77,12.147
		c-1.404,1.51,0.336,4.691,2.959,7.428l-6.521,7.02c-0.343,0.371-0.251,1.016,0.208,1.441l0.226,0.209
		c0.457,0.426,1.108,0.471,1.451,0.102l6.519-7.016c2.901,2.428,6.18,3.938,7.581,2.428l1.353-1.48
		c2.241-2.412,2.842-5.879,1.761-8.799l1.931-2.078c1.519,0.635,2.868,0.651,3.566-0.1c0.346-0.371,1.536-1.65,1.923-2.069
		C27.898,7.97,26.761,5.005,24.186,2.614z" fill="#56c596"/>
</g>
<g id="Layer_1">
</g>
</svg>
