<svg id="schedule" xmlns="http://www.w3.org/2000/svg" width="24" height="24" viewBox="0 0 30 31.406">
  <path id="Path_143" data-name="Path 143" d="M27,5.234V2.094A2.049,2.049,0,0,0,25,0H24a2.049,2.049,0,0,0-2,2.094V5.234H21V2.094A2.049,2.049,0,0,0,19,0H18a2.049,2.049,0,0,0-2,2.094V5.234H14V2.094A2.049,2.049,0,0,0,12,0H11A2.049,2.049,0,0,0,9,2.094V5.234H8V2.094A2.049,2.049,0,0,0,6,0H5A2.049,2.049,0,0,0,3,2.094V5.234H2A2.049,2.049,0,0,0,0,7.328v3.141H30V7.328a2.049,2.049,0,0,0-2-2.094ZM7,6.281A1.025,1.025,0,0,1,6,7.328H5A1.025,1.025,0,0,1,4,6.281V2.094A1.025,1.025,0,0,1,5,1.047H6A1.025,1.025,0,0,1,7,2.094Zm6,0a1.025,1.025,0,0,1-1,1.047H11a1.025,1.025,0,0,1-1-1.047V2.094a1.025,1.025,0,0,1,1-1.047h1a1.025,1.025,0,0,1,1,1.047Zm7,0a1.025,1.025,0,0,1-1,1.047H18a1.025,1.025,0,0,1-1-1.047V2.094a1.025,1.025,0,0,1,1-1.047h1a1.025,1.025,0,0,1,1,1.047Zm6,0a1.025,1.025,0,0,1-1,1.047H24a1.025,1.025,0,0,1-1-1.047V2.094a1.025,1.025,0,0,1,1-1.047h1a1.025,1.025,0,0,1,1,1.047Z" fill="#56c596"/>
  <path id="Path_144" data-name="Path 144" d="M2,28.8A2.049,2.049,0,0,0,4,30.89H26A2.049,2.049,0,0,0,28,28.8V11H2Zm20-15.7h4v3.141H22Zm0,5.234h4v3.141H22Zm0,5.234h4V26.7H22ZM16,13.094h4v3.141H16Zm0,5.234h4v3.141H16Zm0,5.234h4V26.7H16ZM10,13.094h4v3.141H10Zm0,5.234h4v3.141H10Zm0,5.234h4V26.7H10ZM4,13.094H8v3.141H4Zm0,5.234H8v3.141H4Zm0,5.234H8V26.7H4Z" transform="translate(0 0.515)" fill="#56c596"/>
</svg>
