<svg id="world" xmlns="http://www.w3.org/2000/svg" width="24" height="24" viewBox="0 0 32.054 33.557">
  <path id="Path_210" data-name="Path 210" d="M29.076,7.135a5.907,5.907,0,0,0-2.957.284c-.416.183-1.367,1.113-2.174.329-.455-.441-.608-2.013-.668-2.157-.716-1.645-2.915-1.585-3.166-2.606-.193-.777.562-1.592,1.854-1.04,2.846,1.212,3.222,1.252,2.506.646a3.483,3.483,0,0,0-.5-.333,1.078,1.078,0,0,0-.149-.086c-.046-.026-.095-.054-.144-.08A15.348,15.348,0,0,0,15.974,0,15.749,15.749,0,0,0,3.281,6.56l.035,0-.091.094C5.284,4.927,4.2,6.8,8.384,5.087a6.154,6.154,0,0,1,1.571-.113c4.3,1.183,6.254-.027,6.414-.142,1.982-1.412,3.514-1.08,3.524.129.006.742.2,1.58-.66,1.371-1.245-.3-1.964-1.656-2.141-.175-.128,1.077-2.106,1.185-1.788,1.872.206.446,2.081-.385,2.93-.9s1.562.463,1.617.588A4.584,4.584,0,0,0,22.44,9.742c1.441.6-.09,1.412-.933,1.875-.022.01-3.507,4.086-4.763,3.781-.157-.038-.537-.688-.744-.742-4-1.047-1.878,4.879-.852,2.534.428-.977.365.484.372,1.076s.858,1.177.858,1.177c.035.067.946.172,1.017.423l.279.181s.521-.916,1.248-.833c1.8.2,4.612,2.046,4.914,2.2,2.912,1.525,1.931,4.26-.8,5.769-.866.483-.8,2.481-1.819,1.728-.578-.425-2.046,3.638-2.132,4.321a16.421,16.421,0,0,0,12.574-13c-.039-.052-.08-.109-.119-.172L31.565,20a1.2,1.2,0,0,0-.029-.572,1.209,1.209,0,0,1-.076-.3c-.016-.143.015-.223,0-.43s.12-.189.182-.555-.045-.268-.091-.474a.2.2,0,0,1,.076-.189c.022-.019.049-.04.077-.066a.657.657,0,0,0,.163-.15.939.939,0,0,0,.115-.124c0-.119.018-.236.018-.36A17.221,17.221,0,0,0,29.076,7.135Z" transform="translate(0.054)" fill="#56c596"/>
  <path id="Path_211" data-name="Path 211" d="M17.494,20.756c.336-.7-.737-.7-1.35-1.211a10.044,10.044,0,0,0-2.224-1.351,14.552,14.552,0,0,1-2.512-2.333c-.338-.445-.1-1.041-.679-.774-.012.005-.012-.012-.016-.008-.386.268-.962.111-1.473-2.027-.093-.385-.075-.411.045-.588.641-.911-1.5-3.755-1.969-4.346-.236-.3-1.048-.065-1.394-.014-.1-.063-.345.014-.438.014s.014-.158.076-.284-.063-.066-.152-.082.03-.14.09-.285c.108-.249-.852.453-1.09.569-.289.143-.168.177-.258.288s-.136.348-.244.443.213.046.3.064c.117.021.046.431-.212.382a9.281,9.281,0,0,1-.845.543c-.075.016-.082-.031-.074-.076.123-.083.191-.229.335-.261.2-.044.114-.254,0-.285-.04-.014-.058-.028-.063-.051s0-.036.006-.046a.471.471,0,0,1,.053-.094c.054-.084-.306-.143-.5-.143s-.15-.127-.2-.35c-.086-.416,1.069-.6.606-.9-.065-.268-.265.1-.506.017-.065-.023-.173.044-.258.112a.493.493,0,0,1-.273.066A17.229,17.229,0,0,0-.054,16.431c0,9.268,7.175,16.779,16.028,16.779a15.242,15.242,0,0,0,1.965-.141,13.9,13.9,0,0,1,.286-2.314,24.936,24.936,0,0,0,.448-5.2C18.471,24.2,18.454,24.833,17.494,20.756Z" transform="translate(0.054 0.347)" fill="#56c596"/>
</svg>
