<?xml version="1.0" encoding="iso-8859-1"?>
<!-- Generator: Adobe Illustrator 16.0.0, SVG Export Plug-In . SVG Version: 6.00 Build 0)  -->
<!DOCTYPE svg PUBLIC "-//W3C//DTD SVG 1.1//EN" "http://www.w3.org/Graphics/SVG/1.1/DTD/svg11.dtd">
<svg id="zoom-in" xmlns="http://www.w3.org/2000/svg" width="24" height="24" viewBox="0 0 30.624 29.862">
<g id="zoom-in">
	<path d="M17.074,2.929C13.168-0.977,6.836-0.977,2.93,2.93s-3.906,10.239-0.001,14.146c3.412,3.412,8.675,3.842,12.556,1.294
		l3.584,3.585c-0.375,0.375-0.586,0.884-0.586,1.414s0.211,1.039,0.586,1.414l3.537,3.536c0.75,0.75,1.768,1.171,2.828,1.171
		s2.078-0.421,2.828-1.172c1.562-1.562,1.562-4.095,0-5.656l-3.537-3.536c-0.78-0.78-2.046-0.78-2.828,0.001l-3.574-3.574
		C20.92,11.664,20.506,6.361,17.074,2.929z M5.05,14.954c-2.73-2.73-2.729-7.173,0.001-9.903s7.172-2.731,9.902-0.001
		s2.73,7.174,0,9.904S7.78,17.685,5.05,14.954z" fill="#56c596"/>
	<path d="M14,10c0-0.552-0.448-1-1-1h-2V7c0-0.552-0.448-1-1-1S9,6.448,9,7v2H7c-0.552,0-1,0.448-1,1s0.448,1,1,1h2v2
		c0,0.552,0.448,1,1,1s1-0.448,1-1v-2h2C13.552,11,14,10.552,14,10z" fill="#56c596"/>
</g>
<g id="Layer_1">
</g>
</svg>
