<?xml version="1.0" encoding="iso-8859-1"?>
<!-- Generator: Adobe Illustrator 16.0.0, SVG Export Plug-In . SVG Version: 6.00 Build 0)  -->
<!DOCTYPE svg PUBLIC "-//W3C//DTD SVG 1.1//EN" "http://www.w3.org/Graphics/SVG/1.1/DTD/svg11.dtd">
<svg version="1.1" xmlns="http://www.w3.org/2000/svg" xmlns:xlink="http://www.w3.org/1999/xlink" x="0px" y="0px" 
width="24" height="24" viewBox="0 0 32 23" style="enable-background:new 0 0 32 23;" xml:space="preserve" fill="#56c596">
<g id="user-id">
	<path d="M13.392,11.02c-0.574,1.314-1.825,2.411-3.04,2.411c-1.483,0-2.562-1.085-3.135-2.397c-3.34,1.73-2.92,6.105-2.92,6.105
		c0,0.6,0.472,0.686,1.027,0.686h5.027h5.02c0.555,0,1.028-0.086,1.028-0.686C16.399,17.139,16.732,12.751,13.392,11.02z"/>
	<path d="M10.352,12.719c1.672,0,3.002-2.394,3.002-4.371c0-1.979-1.357-3.583-3.03-3.583c-1.674,0-3.027,1.604-3.027,3.583
		C7.296,10.325,8.677,12.719,10.352,12.719z"/>
	<path d="M29,0H3C1.343,0,0,1.343,0,3v17c0,1.657,1.343,3,3,3h26c1.657,0,3-1.343,3-3V3C32,1.343,30.657,0,29,0z M30,20
		c0,0.552-0.448,1-1,1H3c-0.552,0-1-0.448-1-1V3c0-0.552,0.448-1,1-1h26c0.552,0,1,0.448,1,1V20z"/>
	<path d="M27,6h-8c-0.553,0-1,0.447-1,1s0.447,1,1,1h8c0.553,0,1-0.447,1-1S27.553,6,27,6z"/>
	<path d="M27,10h-8c-0.553,0-1,0.447-1,1s0.447,1,1,1h8c0.553,0,1-0.447,1-1S27.553,10,27,10z"/>
	<path d="M27,14h-8c-0.553,0-1,0.447-1,1s0.447,1,1,1h8c0.553,0,1-0.447,1-1S27.553,14,27,14z"/>
</g>
<g id="Layer_1">
</g>
</svg>
