<svg xmlns="http://www.w3.org/2000/svg" width="63.006" height="59.398" viewBox="0 0 63.006 59.398">
  <g id="apple" transform="translate(-6.156 -2)">
    <path id="Apple-2" data-name="Apple" d="M41.667,6.5A19.583,19.583,0,0,1,53.063,2c.5,3.484-1.33,6.973-4.03,9.487a16.3,16.3,0,0,1-11.474,4.2C36.969,12.281,39.157,8.727,41.667,6.5ZM63.8,54.024c-3.229,3.621-6.568,7.22-11.84,7.295-5.188.075-6.851-2.357-12.772-2.357s-7.782,2.282-12.68,2.433c-5.09.147-8.961-3.91-12.214-7.515C7.648,46.509,2.571,33.04,9.4,23.95c3.38-4.514,9.437-7.37,16-7.446,5-.071,9.721,2.585,12.773,2.585s8.791-3.188,14.815-2.72c2.522.08,9.6.779,14.147,5.882-.36.181-8.449,3.792-8.351,11.313.1,8.984,10.264,11.97,10.382,12.011A29.993,29.993,0,0,1,63.8,54.024Z" transform="translate(0)"/>
  </g>
</svg>
