<svg xmlns="http://www.w3.org/2000/svg" xmlns:xlink="http://www.w3.org/1999/xlink" width="63.006" height="59.398" viewBox="0 0 63.006 59.398">
  <defs>
    <clipPath id="clip-path">
      <path id="Path_334" data-name="Path 334" d="M64.273,26.3H34.235V37.774h17.29c-1.612,7.29-8.352,11.475-17.29,11.475-10.55,0-19.048-7.83-19.048-17.549s8.5-17.549,19.048-17.549A19.63,19.63,0,0,1,46.1,18.064l9.378-8.64A33.7,33.7,0,0,0,34.235,2C16.359,2,2,15.23,2,31.7S16.359,61.4,34.235,61.4c16.118,0,30.77-10.8,30.77-29.7A22.8,22.8,0,0,0,64.273,26.3Z" transform="translate(-2 -2)"/>
    </clipPath>
  </defs>
  <g id="_1534129544" data-name="1534129544" transform="translate(-2 -2)">
    <g id="Group_372" data-name="Group 372" transform="translate(2 2)" clip-path="url(#clip-path)">
      <path id="Path_333" data-name="Path 333" d="M0,46.1V11L24.909,28.549Z" transform="translate(-2.93 1.15)" fill="#fbbc05"/>
    </g>
    <g id="Group_373" data-name="Group 373" transform="translate(2 2)" clip-path="url(#clip-path)">
      <path id="Path_335" data-name="Path 335" d="M0,14.849,24.909,32.4l10.257-8.235L70.332,18.9V0H0Z" transform="translate(-2.93 -2.7)" fill="#ea4335"/>
    </g>
    <g id="Group_374" data-name="Group 374" transform="translate(2 2)" clip-path="url(#clip-path)">
      <path id="Path_337" data-name="Path 337" d="M0,49.948,43.957,18.9l11.575,1.35L70.332,0V64.8H0Z" transform="translate(-2.93 -2.7)" fill="#34a853"/>
    </g>
    <g id="Group_375" data-name="Group 375" transform="translate(2 2)" clip-path="url(#clip-path)">
      <path id="Path_339" data-name="Path 339" d="M64.284,60.948l-45.423-32.4L13,24.5,64.284,11Z" transform="translate(3.118 1.15)" fill="#4285f4"/>
    </g>
  </g>
</svg>
