<svg xmlns="http://www.w3.org/2000/svg" width="68.727" height="59.398" viewBox="0 0 68.727 59.398">
  <g id="twitter_1_" transform="translate(-2.225 -6.999)">
    <path id="Twitter__x28_alt_x29_" d="M63.166,33.406a8.382,8.382,0,0,0,7.486-5.588c-1.393,1.073-5.715,2.243-8.1,1.129-.117-.7-.247-1.372-.376-1.975C60.355,18.593,54.127,11.843,47.6,12.658c.528-.267,1.063-.516,1.6-.74.718-.323,4.932-1.183,4.269-3.049-.56-1.641-5.708,1.241-6.677,1.617,1.279-.6,3.4-1.642,3.622-3.487a9.51,9.51,0,0,0-5.371,3.191,5.146,5.146,0,0,0,1.03-2.56c-5.229,4.191-8.284,12.641-10.756,20.837a27.624,27.624,0,0,0-5.2-5.25A123.9,123.9,0,0,0,12.478,13.48a12.194,12.194,0,0,0,5.88,10.841,11.635,11.635,0,0,0-4.231.637c.587,3.865,2.5,7.048,7.7,8.588-2.373.2-3.6.874-4.71,2.334,1.081,2.687,3.717,5.851,8.461,5.2-5.274,2.852-2.15,8.133,2.141,7.345-7.321,9.486-18.863,8.79-25.491.855,17.3,29.582,54.922,17.5,60.527-11a9.458,9.458,0,0,0,8.2-3.887A13.562,13.562,0,0,1,63.166,33.406Z" transform="translate(0 0)" fill="#00acee"/>
  </g>
</svg>
