<svg id="edit-text" xmlns="http://www.w3.org/2000/svg" width="30" height="30" viewBox="0 0 23.112 15.74">
  <path id="Path_49" data-name="Path 49" d="M29.261,2.047,27.62.407A1.1,1.1,0,0,0,26.175.185l3.307,3.308A1.1,1.1,0,0,0,29.261,2.047Z" transform="translate(-6.558 0.001)" fill="#56c596"/>
  <rect id="Rectangle_2" data-name="Rectangle 2" width="0.666" height="13.926" transform="matrix(-0.706, -0.708, 0.708, -0.706, 12.709, 13.739)" fill="#56c596"/>
  <path id="Path_50" data-name="Path 50" d="M25.035,3.448,23.652,2.064l-9.863,9.8,1.428,1.405Z" transform="translate(-3.455 -0.516)" fill="#56c596"/>
  <rect id="Rectangle_3" data-name="Rectangle 3" width="0.739" height="13.925" transform="translate(9.906 10.936) rotate(-135)" fill="#56c596"/>
  <path id="Path_51" data-name="Path 51" d="M9.945,20.389l1.494-.479-1.023-1.023Z" transform="translate(-2.492 -4.731)" fill="#56c596"/>
  <path id="Path_52" data-name="Path 52" d="M10.918,17.112l1.36,1.471,2.689-.821-3.28-3.248Z" transform="translate(-2.735 -3.635)" fill="#56c596"/>
  <path id="Path_53" data-name="Path 53" d="M1.5,6h10.93l3-3H1.5a1.5,1.5,0,0,0,0,3Z" transform="translate(0 -0.751)" fill="#56c596"/>
  <path id="Path_54" data-name="Path 54" d="M1.5,13h6l2.679-3H1.5a1.5,1.5,0,1,0,0,3Z" transform="translate(0 -2.505)" fill="#56c596"/>
  <path id="Path_55" data-name="Path 55" d="M0,18.5A1.5,1.5,0,0,0,1.5,20h4.47a1.48,1.48,0,0,1,.055-.53L6.837,17H1.5A1.5,1.5,0,0,0,0,18.5Z" transform="translate(0 -4.258)" fill="#56c596"/>
</svg>
