<svg id="trash" xmlns="http://www.w3.org/2000/svg" width="24" height="24" viewBox="0 0 14.24 15.74">
  <path id="Path_183" data-name="Path 183" d="M2,19.991a1.5,1.5,0,0,0,1.5,1.5v.749H5V21.49h5.246v.749h1.5V21.49a1.5,1.5,0,0,0,1.5-1.5V8H2Z" transform="translate(-0.501 -6.5)" fill="#56c596"/>
  <path id="Path_184" data-name="Path 184" d="M11.991,2.248h-1.5V1.5A1.5,1.5,0,0,0,8.994,0H5.246a1.5,1.5,0,0,0-1.5,1.5v.749h-1.5A2.248,2.248,0,0,0,0,4.5H14.24A2.248,2.248,0,0,0,11.991,2.248ZM4.5,1.5A.75.75,0,0,1,5.246.749H8.994a.75.75,0,0,1,.749.749v.749H4.5Z" fill="#56c596"/>
</svg>
