<svg xmlns="http://www.w3.org/2000/svg" width="145.817" height="99.653" viewBox="0 0 145.817 99.653">
  <g id="emergence_profile_2" data-name="emergence profile 2" transform="translate(0.125 0.125)">
    <path id="Path_701" data-name="Path 701" d="M999.816,179.013a35.181,35.181,0,0,0-11.636,6.206c-2.353,1.979-5.554,4.671-4.526,7.545.3.825.86.99,1.717,2.641,1.057,2.039,1.68,3.236.955,4.434-.508.839-1.286,1.034-4.533,2.784-1.966,1.056-3.492,1.961-4.46,2.549q-3.658,5.342-7.566,10.791-3.107,4.334-6.24,8.555a9.561,9.561,0,0,1,2.583,2.4,5.534,5.534,0,0,1,1,4.414q14.046-.048,28.086-.094,10.373-.191,20.75-.379l.466-36.308-13.382-9.937Z" transform="translate(-870.852 -131.933)" fill="#999" opacity="0.33"/>
    <path id="Path_702" data-name="Path 702" d="M945.654,181.34a41.924,41.924,0,0,1,14.757,2.6c4.569,1.782,9.709,5.036,8.481,6.594-.745.949-3.335.315-4.894,1.517-2.081,1.6-.082,4.679,1.661,6.311a15.15,15.15,0,0,0,5.488,3.037q7.892,10.6,15.788,21.208a10.775,10.775,0,0,0-4.526,2.358,4.337,4.337,0,0,0-1.51,3.866l-45.607.1q.389-18.061.778-36.121Q940.861,187.075,945.654,181.34Z" transform="translate(-935.291 -129.623)" fill="#999" opacity="0.33"/>
    <path id="Path_703" data-name="Path 703" d="M988.513,176.226c-11.353-.6-13.759-6.842-22.467-6.036-8.193.757-14.646,7.27-15.6,12.45-.493,2.663.4,5.357,1.247,7.922,1.8,5.441,4.438,7.473,2.5,9.43-2.032,2.047-7.09.951-9.361,3.017-1.868,1.7-.568,4.209.755,6a58.011,58.011,0,0,0,16.093,7.958c16.812,5.482,33.052,3.834,36.82,3.4,19.172-2.234,30.01-9.851,32.806-11.947.341-1.8.292-4.241-2.225-5.783-1.838-1.128-3.588-.933-5.3-1.7-4.2-1.875-1.913-7.145-1.247-11.5.932-6.124-.417-16.5-7.49-18.486C1008.058,168.98,1001.671,176.92,988.513,176.226Z" transform="translate(-915.652 -140.765)" fill="none" stroke="#000" stroke-miterlimit="10" stroke-width="0.25" opacity="0.72"/>
    <path id="Path_704" data-name="Path 704" d="M1007.146,214.559l-40.877.189q-10.964-12.492-21.922-24.985c2.078,1.535,16.74,12,41.589,12.3,26.842.335,42.778-11.459,44.534-12.806Q1018.806,201.909,1007.146,214.559Z" transform="translate(-914.625 -121.758)" fill="#1a1a1a" opacity="0.72"/>
    <path id="Path_705" data-name="Path 705" d="M976.063,190.608a22.288,22.288,0,0,1-2.186-9.432c-.131-4.548-.21-7.184,2.5-9.62,4.552-4.091,13.651-4.618,16.224-4.715q.157,19.9.312,39.8C988.349,204.11,979.953,198.733,976.063,190.608Z" transform="translate(-847.345 -144.018)" fill="none" stroke="#000" stroke-linecap="round" stroke-linejoin="round" stroke-width="0.25" opacity="0.72"/>
    <path id="Path_706" data-name="Path 706" d="M935.529,165.781a11.5,11.5,0,0,1,5.609-1.67,14.471,14.471,0,0,1,6.25,1.483c6.1,3.033,6.847,14.849.935,27.161a59.876,59.876,0,0,1-12.794,17.165Z" transform="translate(-934.75 -146.731)" fill="none" stroke="#000" stroke-miterlimit="10" stroke-width="0.25" opacity="0.72"/>
    <path id="Path_707" data-name="Path 707" d="M1000.84,181.644q-1.669.039-.958,39.158-3.274,2.924-6.551,5.847H964.62v2.075h42.751Q1002.669,181.6,1000.84,181.644Z" transform="translate(-868.357 -129.321)" fill="#1a1a1a" opacity="0.71"/>
    <path id="Path_708" data-name="Path 708" d="M978.943,224.358l-.624,1.887-42.124.377q2.117-42.87,3.906-42.861,1.615.006,2.958,35.033L949.3,223.6Z" transform="translate(-933.23 -127.219)" fill="#1a1a1a" opacity="0.71"/>
    <path id="Path_709" data-name="Path 709" d="M996.1,201.955c.765.42,3.7,2.134,3.742,4.685a3.74,3.74,0,0,1-.519,1.915l-50.133-.187a4.589,4.589,0,0,1,.571-2.106,6.283,6.283,0,0,1,.46-.719c1.168-1.568,4.549-3.185,5-3.4Z" transform="translate(-903.577 -109.154)" fill="#1a1a1a" stroke="#000" stroke-linecap="round" stroke-linejoin="round" stroke-width="0.25" opacity="0.35"/>
    <path id="Path_710" data-name="Path 710" d="M947.033,185.362a132.966,132.966,0,0,0,33.233,4.056,132.183,132.183,0,0,0,34.572-4.566" transform="translate(-908.495 -126.136)" fill="none" stroke="#000" stroke-linecap="round" stroke-linejoin="bevel" stroke-width="0.25" opacity="0.72"/>
    <path id="Path_711" data-name="Path 711" d="M945.832,164.527a3.311,3.311,0,0,1-1.878,2.411c-2.052,1.1-5.528,1.156-8.426,0" transform="translate(-934.75 -146.316)" fill="none" stroke="#000" stroke-linecap="round" stroke-linejoin="bevel" stroke-width="0.25" opacity="0.72"/>
    <path id="Path_712" data-name="Path 712" d="M949.644,170.921a32.549,32.549,0,0,1,6.341-.885c10.306-.415,12.893,4.4,21.285,4.283,7.947-.112,10.838-4.5,20.593-3.834a30.718,30.718,0,0,1,3.732.48" transform="translate(-902.536 -140.871)" fill="none" stroke="#000" stroke-linecap="round" stroke-linejoin="bevel" stroke-width="0.25" opacity="0.72"/>
    <rect id="Rectangle_104" data-name="Rectangle 104" width="145.567" height="99.403" fill="none" stroke="#000" stroke-linecap="round" stroke-linejoin="round" stroke-width="0.25"/>
  </g>
</svg>
