<svg xmlns="http://www.w3.org/2000/svg" width="145.309" height="99.747" viewBox="0 0 145.309 99.747">
  <g id="emergence_profile_1" data-name="emergence profile 1" transform="translate(0.125 0.125)">
    <path id="Path_689" data-name="Path 689" d="M950.137,179.035a35.022,35.022,0,0,0-11.6,6.212c-2.344,1.981-5.534,4.677-4.51,7.553.47,1.315,1.313,1.236,1.71,2.643.814,2.872-2.064,5.447-3.574,6.8a20.891,20.891,0,0,1-4.434,2.981q-3.648,5.348-7.54,10.8-3.1,4.341-6.219,8.563a9.639,9.639,0,0,1,2.576,2.405,5.564,5.564,0,0,1,1,4.418l27.988-.094q10.334-.188,20.675-.379l.469-36.342q-6.671-4.974-13.339-9.946Z" transform="translate(-821.623 -131.911)" fill="#999" opacity="0.33"/>
    <path id="Path_690" data-name="Path 690" d="M896.163,181.365a41.625,41.625,0,0,1,14.7,2.607c4.556,1.784,9.676,5.04,8.455,6.6-.807,1.03-3.729.5-4.877,1.519-1.073.953-.512,3.171,7.346,8.85q7.754,10.869,15.509,21.734a10.747,10.747,0,0,0-4.51,2.36,4.355,4.355,0,0,0-1.5,3.872q-22.727.045-45.449.094.389-18.077.778-36.155Q891.39,187.106,896.163,181.365Z" transform="translate(-885.837 -129.598)" fill="#999" opacity="0.33"/>
    <path id="Path_691" data-name="Path 691" d="M938.549,176.244c-11.317-.6-13.713-6.846-22.388-6.04-8.167.757-14.6,7.276-15.548,12.462-.489,2.664.4,5.363,1.244,7.928,1.792,5.449,4.421,7.481,2.488,9.44-2.288,2.318-7.644,1.178-9.328,3.021-2.606,2.85,6.164,9.984,16.792,13.972,15.414,5.783,32.081,3.948,36.689,3.4,1.595-.191,25.349-3.2,30.475-12.083.532-.927,2.265-3.882,0-5.664-1.484-1.166-3.479-.891-5.287-1.7-4.192-1.877-1.907-7.15-1.244-11.517.932-6.128-.417-16.511-7.461-18.5C958.023,168.992,951.662,176.94,938.549,176.244Z" transform="translate(-865.943 -140.751)" fill="none" stroke="#000" stroke-miterlimit="10" stroke-width="0.25" opacity="0.72"/>
    <path id="Path_692" data-name="Path 692" d="M953.959,213.179l-40.733.189q-8.424-11.315-16.841-22.629c2.629,1.662,15.584,9.488,36.439,9.938,18.82.4,31.723-5.466,35.048-7.079Z" transform="translate(-861.763 -120.29)" fill="#1a1a1a" opacity="0.72"/>
    <path id="Path_693" data-name="Path 693" d="M926.465,190.641a22.385,22.385,0,0,1-2.176-9.44c-.134-4.552-.21-7.192,2.488-9.628,4.536-4.1,13.6-4.623,16.168-4.721q.153,19.918.312,39.838C938.708,204.155,930.341,198.774,926.465,190.641Z" transform="translate(-798.198 -144.007)" fill="none" stroke="#000" stroke-linecap="round" stroke-linejoin="round" stroke-width="0.25" opacity="0.72"/>
    <path id="Path_694" data-name="Path 694" d="M886.074,165.791a11.4,11.4,0,0,1,5.586-1.672,14.372,14.372,0,0,1,6.23,1.485c6.076,3.037,6.82,14.863.932,27.187a59.956,59.956,0,0,1-12.748,17.181Z" transform="translate(-885.296 -146.723)" fill="none" stroke="#000" stroke-miterlimit="10" stroke-width="0.25" opacity="0.72"/>
    <path id="Path_695" data-name="Path 695" d="M951.155,181.669q-1.664.039-.955,39.194l-6.528,5.853H915.063v2.077h42.6Q952.981,181.627,951.155,181.669Z" transform="translate(-819.136 -129.296)" fill="#1a1a1a" opacity="0.71"/>
    <path id="Path_696" data-name="Path 696" d="M929.337,224.423l-.623,1.889-41.977.377q2.112-42.909,3.893-42.9,1.61.006,2.948,35.067l6.22,4.813Z" transform="translate(-883.783 -127.192)" fill="#1a1a1a" opacity="0.71"/>
    <path id="Path_697" data-name="Path 697" d="M946.43,202c.762.423,3.689,2.138,3.732,4.689a3.743,3.743,0,0,1-.519,1.917l-49.959-.185a4.668,4.668,0,0,1,.571-2.108,6.209,6.209,0,0,1,.46-.721c1.162-1.568,4.533-3.189,4.983-3.4Z" transform="translate(-854.234 -109.111)" fill="#1a1a1a" stroke="#000" stroke-linecap="round" stroke-linejoin="round" stroke-width="0.25" opacity="0.35"/>
    <path id="Path_698" data-name="Path 698" d="M897.537,185.391a131.935,131.935,0,0,0,33.114,4.06,130.984,130.984,0,0,0,34.454-4.572" transform="translate(-859.134 -126.109)" fill="none" stroke="#000" stroke-linecap="round" stroke-linejoin="bevel" stroke-width="0.25" opacity="0.72"/>
    <path id="Path_699" data-name="Path 699" d="M896.338,164.536a3.3,3.3,0,0,1-1.868,2.413c-2.045,1.1-5.508,1.156-8.4,0" transform="translate(-885.296 -146.307)" fill="none" stroke="#000" stroke-linecap="round" stroke-linejoin="bevel" stroke-width="0.25" opacity="0.72"/>
    <path id="Path_700" data-name="Path 700" d="M900.139,170.935a32.308,32.308,0,0,1,6.318-.885c10.27-.415,12.847,4.4,21.21,4.287,7.92-.112,10.8-4.506,20.524-3.838a30.137,30.137,0,0,1,3.719.482" transform="translate(-853.196 -140.857)" fill="none" stroke="#000" stroke-linecap="round" stroke-linejoin="bevel" stroke-width="0.25" opacity="0.72"/>
    <rect id="Rectangle_103" data-name="Rectangle 103" width="145.058" height="99.497" fill="none" stroke="#000" stroke-linecap="round" stroke-linejoin="round" stroke-width="0.25"/>
  </g>
</svg>
