<svg xmlns="http://www.w3.org/2000/svg" width="145.308" height="99.747" viewBox="0 0 145.308 99.747">
  <g id="emergence_profile_1" data-name="emergence profile 1" transform="translate(0.125 0.125)">
    <path id="Path_713" data-name="Path 713" d="M900.2,179.034a35.021,35.021,0,0,0-11.6,6.212c-2.344,1.979-5.534,4.677-4.51,7.551.47,1.317,1.313,1.238,1.714,2.643.814,2.872-2.068,5.449-3.578,6.8a20.72,20.72,0,0,1-4.434,2.979q-3.648,5.348-7.536,10.8-3.1,4.338-6.22,8.561a9.6,9.6,0,0,1,2.573,2.407,5.547,5.547,0,0,1,1,4.418l27.988-.1,20.678-.377.466-36.344q-6.671-4.971-13.339-9.946Z" transform="translate(-771.69 -131.909)" fill="#999" opacity="0.33"/>
    <path id="Path_714" data-name="Path 714" d="M846.234,181.363a41.543,41.543,0,0,1,14.7,2.609c4.556,1.782,9.676,5.038,8.455,6.6-.807,1.028-3.725.494-4.878,1.517-1.073.955-.512,3.173,7.346,8.852q7.754,10.866,15.509,21.734a10.718,10.718,0,0,0-4.51,2.36,4.335,4.335,0,0,0-1.5,3.87q-22.726.048-45.452.094.389-18.076.778-36.155Q841.458,187.1,846.234,181.363Z" transform="translate(-835.905 -129.597)" fill="#999" opacity="0.33"/>
    <path id="Path_715" data-name="Path 715" d="M888.617,176.244c-11.314-.6-13.71-6.848-22.388-6.042-8.166.759-14.6,7.278-15.548,12.462-.489,2.664.4,5.363,1.244,7.93,1.792,5.447,4.424,7.479,2.488,9.44-2.287,2.316-7.644,1.178-9.328,3.021-2.6,2.848,6.164,9.982,16.792,13.97,15.416,5.785,32.081,3.95,36.692,3.4,1.592-.189,25.349-3.2,30.472-12.083.535-.927,2.268-3.882,0-5.664-1.483-1.166-3.479-.891-5.287-1.7-4.192-1.875-1.9-7.15-1.241-11.515.929-6.13-.417-16.511-7.464-18.5C908.094,168.992,901.729,176.94,888.617,176.244Z" transform="translate(-816.011 -140.75)" fill="none" stroke="#000" stroke-miterlimit="10" stroke-width="0.25" opacity="0.72"/>
    <path id="Path_716" data-name="Path 716" d="M904.03,213.179l-40.736.189q-8.419-11.315-16.841-22.631c2.633,1.662,15.584,9.49,36.44,9.939,18.82.4,31.726-5.465,35.048-7.079Q910.984,203.39,904.03,213.179Z" transform="translate(-811.832 -120.289)" fill="#1a1a1a" opacity="0.72"/>
    <path id="Path_717" data-name="Path 717" d="M876.533,190.638a22.424,22.424,0,0,1-2.176-9.438c-.134-4.554-.21-7.194,2.488-9.63,4.536-4.1,13.6-4.623,16.169-4.719q.157,19.918.312,39.836C888.776,204.154,880.41,198.771,876.533,190.638Z" transform="translate(-748.267 -144.005)" fill="none" stroke="#000" stroke-linecap="round" stroke-linejoin="round" stroke-width="0.25" opacity="0.72"/>
    <path id="Path_718" data-name="Path 718" d="M836.142,165.791a11.421,11.421,0,0,1,5.586-1.674,14.364,14.364,0,0,1,6.23,1.485c6.079,3.037,6.824,14.863.932,27.187a59.877,59.877,0,0,1-12.748,17.181Z" transform="translate(-835.364 -146.722)" fill="none" stroke="#000" stroke-miterlimit="10" stroke-width="0.25" opacity="0.72"/>
    <path id="Path_719" data-name="Path 719" d="M901.223,181.668q-1.659.036-.952,39.194l-6.532,5.853H865.131v2.077h42.6Q903.049,181.623,901.223,181.668Z" transform="translate(-769.204 -129.294)" fill="#1a1a1a" opacity="0.71"/>
    <path id="Path_720" data-name="Path 720" d="M879.406,224.422l-.621,1.887-41.98.379q2.112-42.912,3.893-42.9,1.61,0,2.947,35.065l6.22,4.815Z" transform="translate(-833.851 -127.19)" fill="#1a1a1a" opacity="0.71"/>
    <path id="Path_721" data-name="Path 721" d="M896.5,202c.762.42,3.686,2.136,3.729,4.689a3.785,3.785,0,0,1-.515,1.917l-49.959-.187a4.624,4.624,0,0,1,.568-2.108,6.824,6.824,0,0,1,.459-.719c1.162-1.57,4.533-3.189,4.982-3.4Z" transform="translate(-804.301 -109.109)" fill="#1a1a1a" stroke="#000" stroke-linecap="round" stroke-linejoin="round" stroke-width="0.25" opacity="0.35"/>
    <path id="Path_722" data-name="Path 722" d="M847.6,185.39a132.135,132.135,0,0,0,33.118,4.059,131.092,131.092,0,0,0,34.454-4.572" transform="translate(-809.203 -126.107)" fill="none" stroke="#000" stroke-linecap="round" stroke-linejoin="bevel" stroke-width="0.25" opacity="0.72"/>
    <path id="Path_723" data-name="Path 723" d="M846.406,164.534a3.3,3.3,0,0,1-1.868,2.413c-2.045,1.1-5.508,1.156-8.4,0" transform="translate(-835.364 -146.306)" fill="none" stroke="#000" stroke-linecap="round" stroke-linejoin="bevel" stroke-width="0.25" opacity="0.72"/>
    <path id="Path_724" data-name="Path 724" d="M850.208,170.935a32.265,32.265,0,0,1,6.318-.887c10.27-.415,12.844,4.4,21.21,4.287,7.917-.11,10.8-4.5,20.52-3.838a30.94,30.94,0,0,1,3.719.482" transform="translate(-803.262 -140.856)" fill="none" stroke="#000" stroke-linecap="round" stroke-linejoin="bevel" stroke-width="0.25" opacity="0.72"/>
    <rect id="Rectangle_105" data-name="Rectangle 105" width="145.058" height="99.497" transform="translate(0)" fill="none" stroke="#000" stroke-linecap="round" stroke-linejoin="round" stroke-width="0.25"/>
  </g>
</svg>
