<svg xmlns="http://www.w3.org/2000/svg" width="41.869" height="31.758" viewBox="0 0 41.869 31.758">
  <path id="file-media-svgrepo-com" d="M3.686,5.007a.438.438,0,0,0-.455.418V31.333a.438.438,0,0,0,.455.418H9.471l15.6-15.082a3.387,3.387,0,0,1,4.562-.053l10,9.185V5.425a.438.438,0,0,0-.455-.418ZM10.05,34.258H39.183a3.064,3.064,0,0,0,3.186-2.925V5.425A3.064,3.064,0,0,0,39.183,2.5H3.686A3.064,3.064,0,0,0,.5,5.425V31.333a3.065,3.065,0,0,0,3.186,2.925Zm29.589-2.925V29.344L27.706,18.389a.484.484,0,0,0-.652.007L13.237,31.751H39.183A.438.438,0,0,0,39.639,31.333ZM15.973,13.782a3.064,3.064,0,0,1-3.186,2.925A3.064,3.064,0,0,1,9.6,13.782a3.064,3.064,0,0,1,3.186-2.925,3.064,3.064,0,0,1,3.186,2.925Zm2.731,0a5.69,5.69,0,0,1-5.916,5.432,5.69,5.69,0,0,1-5.916-5.432A5.69,5.69,0,0,1,12.788,8.35,5.69,5.69,0,0,1,18.7,13.782Z" transform="translate(-0.5 -2.5)" fill="#56c596" fill-rule="evenodd"/>
</svg>
