<svg id="upload-svgrepo-com" xmlns="http://www.w3.org/2000/svg" width="70.524" height="65.401" viewBox="0 0 70.524 65.401">
  <g id="Group_487" data-name="Group 487" transform="translate(0 0)">
    <path id="Path_473" data-name="Path 473" d="M69.831,190.716,59.795,176.287a4.278,4.278,0,0,0-3.523-1.787H51.839a.752.752,0,0,0-.679,1.169l10.83,15.585a.3.3,0,0,1-.274.47H49.384a.812.812,0,0,0-.823.739c-.419,6.5-6.209,11.662-13.313,11.662s-12.895-5.159-13.313-11.662a.8.8,0,0,0-.823-.739H8.794a.307.307,0,0,1-.274-.47l10.83-15.585a.758.758,0,0,0-.679-1.169H14.238a4.278,4.278,0,0,0-3.523,1.787L.693,190.716A3.851,3.851,0,0,0,0,192.906V213a3.707,3.707,0,0,0,3.827,3.56H66.7A3.707,3.707,0,0,0,70.524,213v-20.1A3.776,3.776,0,0,0,69.831,190.716Z" transform="translate(0 -151.164)" fill="#56c596"/>
    <path id="Path_474" data-name="Path 474" d="M180.142,1.324a1.551,1.551,0,0,0-2.325,0L168.3,12.582a1.372,1.372,0,0,0,1.155,2.23h3.754V36.08a5.584,5.584,0,0,0,5.776,5.374h0a5.584,5.584,0,0,0,5.776-5.374V14.8h3.754a1.372,1.372,0,0,0,1.155-2.23Z" transform="translate(-143.725 -0.8)" fill="#56c596"/>
  </g>
</svg>
