<svg xmlns="http://www.w3.org/2000/svg" width="42.429" height="33" viewBox="0 0 42.429 33">
  <path id="media-svgrepo-com" d="M40.071,2H2.357A2.357,2.357,0,0,0,0,4.357V32.643A2.357,2.357,0,0,0,2.357,35H40.071a2.357,2.357,0,0,0,2.357-2.357V4.357A2.357,2.357,0,0,0,40.071,2ZM31.7,20.6,17.561,27.669a2.428,2.428,0,0,1-1.061.259,2.39,2.39,0,0,1-1.249-.354,2.357,2.357,0,0,1-1.108-2V11.429a2.357,2.357,0,0,1,3.418-2.1L31.7,16.4a2.357,2.357,0,0,1,0,4.2Z" transform="translate(0 -2)" fill="#56c596"/>
</svg>
