<svg xmlns="http://www.w3.org/2000/svg" width="257.542" height="181.101" viewBox="0 0 257.542 181.101">
  <g id="charactrizations" transform="translate(-281.658 -466.199)">
    <path id="Path_580" data-name="Path 580" d="M322.558,468.537c6.469-2.234,12.069-1.276,19.7,0,23.472,3.921,41.713,21.276,50.021,39.41,4.514,9.853,5.016,17.58,6.063,28.8,7.032,75.31,18.389,91,6.821,102.316-5.385,5.267-9.224,3.213-53.81,4.548-47.227,1.413-52.673,4.274-59.874-1.516-13.1-10.533-9.668-35.965-2.273-86.4C300.473,478.873,316.283,470.7,322.558,468.537Z" fill="none" stroke="#000" stroke-miterlimit="10" stroke-width="2"/>
    <path id="Path_581" data-name="Path 581" d="M498.3,469.3c-6.469-2.234-12.069-1.275-19.7,0-23.472,3.922-41.714,21.276-50.021,39.411-4.514,9.853-5.016,17.579-6.064,28.8-7.031,75.309-18.388,91-6.821,102.316,5.386,5.266,9.225,3.212,53.811,4.547,47.227,1.414,52.673,4.275,59.874-1.516,13.1-10.532,9.668-35.965,2.273-86.4C520.384,479.639,504.575,471.469,498.3,469.3Z" fill="none" stroke="#000" stroke-miterlimit="10" stroke-width="2"/>
    <line id="Line_26" data-name="Line 26" y2="174.918" transform="translate(501.617 470.834)" fill="none" stroke="#000" stroke-miterlimit="10" stroke-width="0.75" stroke-dasharray="5"/>
    <line id="Line_27" data-name="Line 27" y2="162.907" transform="translate(450.853 481.042)" fill="none" stroke="#000" stroke-miterlimit="10" stroke-width="0.75" stroke-dasharray="5"/>
    <line id="Line_28" data-name="Line 28" y2="174.918" transform="translate(322.768 469.694)" fill="none" stroke="#000" stroke-miterlimit="10" stroke-width="0.75" stroke-dasharray="5"/>
    <line id="Line_29" data-name="Line 29" y2="159.556" transform="translate(373.042 483.582)" fill="none" stroke="#000" stroke-miterlimit="10" stroke-width="0.75" stroke-dasharray="5"/>
    <line id="Line_30" data-name="Line 30" y1="0.792" x2="102.735" transform="translate(294.18 524.416)" fill="none" stroke="#000" stroke-miterlimit="10" stroke-width="0.75" stroke-dasharray="5"/>
    <line id="Line_31" data-name="Line 31" y1="0.926" x2="120.175" transform="translate(284.534 587.92)" fill="none" stroke="#000" stroke-miterlimit="10" stroke-width="0.75" stroke-dasharray="5"/>
    <line id="Line_32" data-name="Line 32" y1="0.782" x2="101.492" transform="translate(424.241 523.634)" fill="none" stroke="#000" stroke-miterlimit="10" stroke-width="0.75" stroke-dasharray="5"/>
    <line id="Line_33" data-name="Line 33" y1="0.922" x2="119.603" transform="translate(416.529 587.462)" fill="none" stroke="#000" stroke-miterlimit="10" stroke-width="0.75" stroke-dasharray="5"/>
    <path id="Path_582" data-name="Path 582" d="M295.078,523.071c2.266-6.025,8.685-20.453,23.9-29.524,19.865-11.842,46.584-9.7,68.23,5.293" fill="none" stroke="#000" stroke-miterlimit="10" stroke-width="0.75" stroke-dasharray="5"/>
    <path id="Path_583" data-name="Path 583" d="M383.4,498.1" fill="none" stroke="#000" stroke-miterlimit="10" stroke-width="2"/>
    <path id="Path_584" data-name="Path 584" d="M524.5,520.716c-2.2-6.026-8.418-20.453-23.168-29.524-19.257-11.842-45.156-9.7-66.139,5.292" fill="none" stroke="#000" stroke-miterlimit="10" stroke-width="0.75" stroke-dasharray="5"/>
  </g>
</svg>
