<svg id="g33588" xmlns="http://www.w3.org/2000/svg" width="585.65" height="79.511" viewBox="0 0 585.65 79.511">
  <path id="path33590" d="M244.5,71.7c4.146-.534,17.274-4.269,24.6-3.38C354.361,78.548,400.378,78.815,434.926,49.2c.276-.178-.553,1.156-1.935,3.024a40.312,40.312,0,0,1-5.942,6.493s20.176,3.113,21.558,13.608c0,0-5.251-9.872-25.289-11.206,0,0-6.219,4.358-8.706,4.981,0,0,17.965,3.38,20.452,12.718,0,0-5.389-8.538-24.46-10.939,0,0-7.739,3.646-12.161,4.269,0,0,17.274,1.779,23.907,12.007A88.22,88.22,0,0,0,390.843,74.1s-29.02,8.8-122.989-3.113C268.131,71.077,260.254,69.743,244.5,71.7Z" transform="translate(93.375 -5.44)"/>
  <path id="path33592" d="M436.584,39.4c30.4-2.135,55.691-13.963,55.691-13.963C466.019,36.109,437,30.773,437,30.773c28.053-.889,41.181-16.72,41.181-16.72-8.568,9.961-49.748,11.562-49.748,11.562,23.769-2.668,33.58-17.966,33.58-17.966-15.339,16.365-49.887,13.074-49.887,13.074,21.7-1.779,28.605-17.61,28.605-17.61-11.055,19.3-48.781,12.9-48.781,12.9C409.5,15.3,415.856,0,415.856,0c-4.56,13.074-37.311,12.451-37.311,12.451C300.052,6.4,244.5,59.589,244.5,59.589,363.482-11.117,436.584,39.4,436.584,39.4" transform="translate(93.375 0)"/>
  <path id="path33594" d="M370.227,38.344s.276.623.829,1.69c.138.267.276.623.415.889.138.356.276.712.415,1.156l.415,1.334c.138.445.138.978.276,1.512,0,.267.138.534.138.8v.889c0,.623.138,1.245.138,1.868,0,.712-.138,1.334-.138,2.046-.138.712-.276,1.423-.415,2.223a20.508,20.508,0,0,1-5.942,9.783,37.538,37.538,0,0,1-15.063,8.182,25.413,25.413,0,0,1-2.487.623l-1.244.267-.691.178h-.415l-.276.089c-1.658.267-3.178.534-5.113.712a67.2,67.2,0,0,1-11.193,0,74.7,74.7,0,0,1-10.917-1.957,73.108,73.108,0,0,1-9.95-3.646L306.8,65.826c-.829-.356-1.382-.889-2.073-1.245l-1.106-.623c-.276-.267-.691-.445-.967-.712-.691-.445-1.244-.978-1.935-1.423a31.61,31.61,0,0,1-6.08-6.581,22.245,22.245,0,0,1-1.8-3.646,20.764,20.764,0,0,1-1.105-3.913,16.433,16.433,0,0,1,.829-7.738,24.365,24.365,0,0,1,4.284-7.2,37.584,37.584,0,0,1,7.186-6.048,43.621,43.621,0,0,1,9.259-4.269c1.658-.623,3.317-.978,5.113-1.512l.276-.089h.276l.276-.089.553-.089,1.244-.178c.829-.178,1.52-.267,2.487-.445,1.8-.178,3.731-.445,5.389-.534.829,0,1.658-.089,2.626-.089a23.25,23.25,0,0,1,2.487.089,41.826,41.826,0,0,1,4.837.356,21.417,21.417,0,0,1,2.349.356,19.053,19.053,0,0,0,2.211.356,48.791,48.791,0,0,1,14.234,5.336l2.487,1.6,2.073,1.6c.691.534,1.244,1.067,1.8,1.512.276.267.553.445.829.712s.415.445.691.712l1.244,1.334a15.118,15.118,0,0,1,.967,1.245l.829,1.067a5.143,5.143,0,0,1,.553.889C369.812,37.721,370.227,38.344,370.227,38.344Zm-.691.089s-.415-.534-1.106-1.6a9.134,9.134,0,0,0-1.52-1.868c-.276-.356-.691-.712-1.106-1.156a17.457,17.457,0,0,1-1.382-1.245,3.115,3.115,0,0,1-.691-.623c-.276-.178-.553-.445-.829-.623-.691-.445-1.244-.889-1.935-1.334s-1.52-.8-2.349-1.334c-.829-.445-1.8-.8-2.764-1.245a60.8,60.8,0,0,0-13.819-3.469,62.142,62.142,0,0,0-8.291-.445h-2.211c-.691.089-1.382.089-2.211.178-1.52.089-2.764.356-4.284.445-.691.089-1.52.267-2.349.445l-1.244.267-.553.089h0v.356a38.864,38.864,0,0,0-4.284,1.245,38.018,38.018,0,0,0-7.877,3.558,30.6,30.6,0,0,0-6.357,4.892,21.612,21.612,0,0,0-4.146,6.048l-.691,1.6a7.548,7.548,0,0,0-.415,1.69l-.276.889a2.2,2.2,0,0,1-.138.889c0,.534-.138,1.156-.138,1.69l.138,1.69a6.507,6.507,0,0,0,.276,1.69,16.82,16.82,0,0,0,1.106,3.469,22.573,22.573,0,0,0,4.7,6.4,31.143,31.143,0,0,0,7.6,5.158,23.97,23.97,0,0,0,2.211.978,15.933,15.933,0,0,0,2.349.889,17.931,17.931,0,0,0,2.487.8c.829.178,1.658.445,2.487.623a58.7,58.7,0,0,0,10.364,1.156,56.026,56.026,0,0,0,9.811-.8,44.121,44.121,0,0,0,4.7-.978l.276-.089h.276l.553-.178,1.106-.267a18.346,18.346,0,0,0,2.073-.623,52.116,52.116,0,0,0,13.4-6.848,25.365,25.365,0,0,0,7.324-8.271,13.572,13.572,0,0,0,1.8-7.471c0-.534-.138-1.067-.138-1.512a4.6,4.6,0,0,0-.276-1.334,7.188,7.188,0,0,0-.691-2.046A18.81,18.81,0,0,1,369.536,38.433Z" transform="translate(111.366 -2.146)"/>
  <path id="circle33596" d="M343.071,49.528c0,6.091-7.672,11.028-17.136,11.028S308.8,55.619,308.8,49.528,316.472,38.5,325.936,38.5,343.071,43.438,343.071,49.528Z" transform="translate(117.931 -4.259)"/>
  <path id="ellipse33598" d="M331.2,43.272c2.016,1.54,2.469,3.43,1.01,4.222s-4.277.185-6.293-1.355-2.469-3.429-1.012-4.221S329.182,41.733,331.2,43.272Z" transform="translate(123.755 -4.598)" fill="#fff"/>
  <path id="path33600" d="M247.8,45.975a10.22,10.22,0,0,0,1.382-1.156c.967-.712,2.211-1.868,4.008-3.2.967-.623,1.935-1.423,3.04-2.223a20.161,20.161,0,0,0,1.658-1.245c.553-.445,1.244-.8,1.935-1.245,1.382-.889,2.764-1.868,4.284-2.757q2.28-1.467,4.975-2.935c1.8-.978,3.593-2.046,5.528-3.113,1.935-.978,4.008-2.046,6.219-3.113,2.211-.978,4.422-2.046,6.771-3.024,1.244-.534,2.349-.978,3.593-1.512,1.244-.445,2.487-.978,3.731-1.423,5.113-1.868,10.5-3.735,16.306-5.247,2.9-.8,5.8-1.512,8.706-2.223,3.04-.623,5.942-1.334,8.982-1.779,6.08-1.067,12.3-1.868,18.379-2.49,6.08-.534,12.3-.889,18.1-.889,5.942-.089,11.608.089,17,.445,2.626.089,5.251.356,7.739.534,2.487.267,4.975.445,7.186.8,2.349.267,4.56.534,6.633.889,2.073.267,4.008.623,5.942.978,1.8.267,3.593.623,5.113.978,1.52.267,3.04.623,4.284.889,2.626.534,4.56,1.067,5.942,1.423l2.073.534s-.691-.089-2.211-.356c-1.382-.267-3.455-.623-6.08-.978-1.382-.178-2.764-.445-4.422-.623s-3.317-.445-5.113-.712-3.869-.445-5.942-.712-4.284-.445-6.633-.623c-2.349-.267-4.7-.356-7.186-.534-2.487-.089-5.113-.267-7.739-.356-5.251-.178-10.917-.178-16.583,0-5.8.089-11.746.534-17.688,1.156-5.942.534-12.023,1.423-17.827,2.49-3.04.445-5.942,1.156-8.844,1.69-2.9.712-5.8,1.334-8.568,2.046s-5.528,1.512-8.291,2.312c-1.382.445-2.626.889-4.008,1.245-1.244.445-2.626.8-3.869,1.334l-3.731,1.334c-1.244.445-2.349.978-3.593,1.423-2.349.889-4.7,1.868-6.91,2.846-2.211.889-4.284,1.957-6.357,2.846-2.073.978-3.869,1.957-5.666,2.846q-5.389,2.8-9.535,5.336c-.691.445-1.382.8-2.073,1.156a20.324,20.324,0,0,0-1.8,1.156c-1.244.712-2.211,1.423-3.178,2.046C250.011,44.552,247.8,45.975,247.8,45.975Z" transform="translate(94.635 -0.705)"/>
  <g id="Group_356" data-name="Group 356" transform="translate(0 0.8)">
    <path id="path33604" d="M55.691,40.3C25.289,38.165,0,26.336,0,26.336c26.256,10.673,55.276,5.336,55.276,5.336C27.223,30.783,14.1,14.952,14.1,14.952c8.568,9.961,49.748,11.562,49.748,11.562C40.075,23.846,30.264,8.549,30.264,8.549,45.741,24.824,80.288,21.623,80.288,21.623c-21.7-1.779-28.605-17.61-28.605-17.61,11.055,19.3,48.781,12.9,48.781,12.9C82.914,16.2,76.557.9,76.557.9c4.56,13.074,37.311,12.451,37.311,12.451C192.361,7.3,247.913,60.489,247.913,60.489,128.793-10.217,55.691,40.3,55.691,40.3" transform="translate(0 -0.9)"/>
    <path id="circle33608" d="M124.371,50.428c0,6.091-7.672,11.028-17.136,11.028S90.1,56.519,90.1,50.428,97.772,39.4,107.236,39.4,124.371,44.338,124.371,50.428Z" transform="translate(34.409 -5.159)"/>
    <path id="path33606" d="M76.578,39.344s-.276.623-.829,1.69a18.076,18.076,0,0,0-.691,2.046,4.059,4.059,0,0,0-.276,1.334c0,.445-.138.978-.138,1.512a14.9,14.9,0,0,0,1.8,7.471,27.093,27.093,0,0,0,7.324,8.271,47.5,47.5,0,0,0,13.4,6.848,18.343,18.343,0,0,0,2.073.623l1.106.267.553.178h.276l.276.089c1.52.356,3.317.8,4.7.978a58.358,58.358,0,0,0,9.812.8,51.4,51.4,0,0,0,10.364-1.156c.829-.178,1.658-.445,2.487-.623s1.658-.534,2.487-.8a15.932,15.932,0,0,0,2.349-.889c.829-.356,1.52-.623,2.211-.978a34.043,34.043,0,0,0,7.6-5.158,20.621,20.621,0,0,0,2.626-3.113,11.1,11.1,0,0,0,1.106-1.6l.829-1.6a17.571,17.571,0,0,0,1.106-3.558,6.506,6.506,0,0,0,.276-1.69l.138-1.69c0-.534-.138-1.156-.138-1.69a2.2,2.2,0,0,0-.138-.889l-.276-.889a7.543,7.543,0,0,0-.415-1.69l-.691-1.6a21.612,21.612,0,0,0-4.146-6.048,35.544,35.544,0,0,0-6.357-4.892,48.069,48.069,0,0,0-7.877-3.558c-1.382-.534-2.9-.8-4.284-1.245L124.945,26h-.138s.276.089.138,0l-.553-.089-1.244-.267c-.829-.178-1.658-.356-2.349-.445a32.362,32.362,0,0,0-4.284-.445c-.691-.089-1.382-.089-2.211-.178h-2.211a63.433,63.433,0,0,0-8.291.445,52.71,52.71,0,0,0-13.819,3.469c-.967.445-1.8.8-2.764,1.245-.829.445-1.52.889-2.349,1.334a23.445,23.445,0,0,0-1.935,1.334c-.276.178-.553.445-.829.623-.276.267-.553.445-.691.623A12.464,12.464,0,0,0,80.033,34.9c-.415.356-.691.8-1.106,1.156a9.135,9.135,0,0,0-1.52,1.868A8.122,8.122,0,0,1,76.578,39.344Zm-.553-.089a10.142,10.142,0,0,0,.967-1.69,3.128,3.128,0,0,1,.553-.889l.829-1.067a15.116,15.116,0,0,1,.967-1.245l1.244-1.334c.276-.267.415-.445.691-.712s.553-.445.829-.712a20.645,20.645,0,0,1,1.8-1.512l2.073-1.6,2.487-1.6A48.791,48.791,0,0,1,102.7,21.556c.691-.089,1.52-.267,2.211-.356.829-.089,1.52-.267,2.349-.356a44.227,44.227,0,0,1,4.837-.356c.829,0,1.658-.089,2.487-.089s1.658.089,2.626.089a38.839,38.839,0,0,1,5.389.534,19.022,19.022,0,0,1,2.487.445l1.244.178.553.089.276.089h.276l.276.089c1.658.445,3.455.889,5.113,1.512a43.621,43.621,0,0,1,9.259,4.269,33.776,33.776,0,0,1,7.186,6.048,21.735,21.735,0,0,1,4.284,7.2,18.568,18.568,0,0,1,.829,7.738,20.769,20.769,0,0,1-1.106,3.913,26.039,26.039,0,0,1-1.8,3.558v.178l-.138.178-.138.178-.276.445-.691.889c-.415.623-.967,1.156-1.382,1.69a44.309,44.309,0,0,1-3.317,3.2,12.547,12.547,0,0,1-1.935,1.423c-.276.267-.691.445-.967.712l-1.106.623c-.691.445-1.382.889-2.073,1.245l-2.211,1.156a73.106,73.106,0,0,1-9.95,3.646,74.7,74.7,0,0,1-10.917,1.957,58.831,58.831,0,0,1-11.193,0c-1.935-.178-3.455-.445-5.113-.712l-.276-.089H99.38l-.691-.178-1.244-.267a25.417,25.417,0,0,1-2.487-.623,37.414,37.414,0,0,1-15.063-8.182,20.92,20.92,0,0,1-5.942-9.783c-.138-.8-.276-1.512-.415-2.223,0-.712-.138-1.423-.138-2.046s.138-1.334.138-1.868v-.889c0-.267.138-.534.138-.8.138-.534.138-1.067.276-1.512l.415-1.334c.138-.445.276-.8.415-1.156a8.517,8.517,0,0,1,.415-.889C75.749,39.789,76.026,39.255,76.026,39.255Z" transform="translate(28.032 -3.057)"/>
    <path id="ellipse33610" d="M95.048,44.132c2.018-1.54,4.835-2.146,6.295-1.355s1.006,2.681-1.012,4.221-4.834,2.146-6.293,1.355S93.031,45.672,95.048,44.132Z" transform="translate(35.586 -5.494)" fill="#fff"/>
    <path id="path33612" d="M225.685,46.856s-2.211-1.423-5.942-3.913c-.967-.623-2.073-1.245-3.178-2.046a20.35,20.35,0,0,1-1.8-1.156c-.691-.356-1.382-.8-2.073-1.156-2.764-1.69-6.08-3.38-9.535-5.336-1.8-.889-3.731-1.868-5.666-2.846-2.073-.889-4.008-1.957-6.357-2.846-2.211-.978-4.422-1.957-6.91-2.846-1.244-.445-2.349-.889-3.593-1.423L176.9,21.953c-1.244-.445-2.487-.889-3.869-1.334-1.244-.445-2.626-.889-4.008-1.245-2.764-.8-5.389-1.6-8.291-2.312-2.764-.8-5.666-1.423-8.568-2.046s-5.8-1.245-8.844-1.69c-5.942-1.067-11.884-1.957-17.827-2.49s-11.884-.978-17.688-1.156-11.332-.178-16.583,0c-2.626.089-5.251.267-7.739.356-2.487.178-4.837.267-7.186.534-2.349.178-4.56.445-6.633.623s-4.008.445-5.942.712c-1.8.178-3.593.445-5.113.712-1.658.178-3.04.445-4.422.623-2.626.445-4.7.8-6.08.978-1.382.267-2.211.356-2.211.356l2.073-.534c1.382-.356,3.317-.8,5.942-1.423,1.244-.267,2.764-.623,4.284-.889,1.52-.356,3.317-.623,5.113-.978s3.731-.623,5.942-.978c2.073-.356,4.284-.623,6.633-.889s4.7-.534,7.186-.8c2.487-.178,5.113-.445,7.739-.534,5.389-.356,11.055-.445,17-.445,5.942.089,12.023.356,18.1.889s12.3,1.334,18.379,2.49c3.04.534,6.08,1.156,8.982,1.779,2.9.712,5.942,1.334,8.706,2.223,5.8,1.512,11.193,3.38,16.306,5.247,1.244.445,2.487.978,3.731,1.423a37.374,37.374,0,0,1,3.593,1.512c2.349.978,4.56,2.046,6.771,3.024s4.146,2.135,6.219,3.113c1.935,1.067,3.731,2.135,5.528,3.113s3.317,2.046,4.975,2.935c1.52.978,2.9,1.957,4.284,2.757.691.445,1.244.889,1.935,1.245.553.445,1.106.8,1.658,1.245,1.106.8,2.073,1.512,3.04,2.223,1.8,1.334,3.04,2.4,4.008,3.2A15.928,15.928,0,0,0,225.685,46.856Z" transform="translate(17.529 -1.586)"/>
    <path id="path33602" d="M235.707,72.6c-4.146-.534-17.274-4.269-24.6-3.38C125.846,79.448,79.828,79.715,45.281,50.1c-.276-.178.553,1.156,1.935,3.024a40.311,40.311,0,0,0,5.942,6.493S32.982,62.727,31.6,73.222c0,0,5.251-9.872,25.289-11.206,0,0,6.219,4.358,8.706,4.981,0,0-17.965,3.38-20.452,12.718,0,0,5.389-8.538,24.46-10.939,0,0,7.739,3.646,12.161,4.269,0,0-17.274,1.779-23.907,12.007A88.219,88.219,0,0,1,89.363,75s29.02,8.8,122.989-3.113C212.076,71.888,219.953,70.554,235.707,72.6Z" transform="translate(12.068 -6.34)"/>
  </g>
</svg>
