<svg xmlns="http://www.w3.org/2000/svg" width="329.041" height="104.468" viewBox="0 0 329.041 104.468">
  <g id="Group_372" data-name="Group 372" transform="translate(-397 -653.563)">
    <g id="Group_356" data-name="Group 356" transform="translate(397 652.5)">
      <path id="path33604" d="M73.915,53.193C33.564,50.36,0,34.66,0,34.66c34.848,14.165,73.365,7.083,73.365,7.083-37.233-1.18-54.657-22.192-54.657-22.192C30.08,32.772,84.736,34.9,84.736,34.9,53.189,31.355,40.167,11.052,40.167,11.052c20.542,21.6,66.4,17.352,66.4,17.352C77.767,26.043,68.6,5.032,68.6,5.032c14.673,25.615,64.744,17.116,64.744,17.116C110.047,21.2,101.61.9,101.61.9c6.053,17.352,49.521,16.526,49.521,16.526C255.309,9.4,329.041,79.989,329.041,79.989c-158.1-93.844-255.126-26.8-255.126-26.8" transform="translate(0 0.163)"/>
      <path id="circle33608" d="M135.586,54.037c0,8.084-10.183,14.637-22.743,14.637S90.1,62.121,90.1,54.037,100.283,39.4,112.843,39.4,135.586,45.954,135.586,54.037Z" transform="translate(75.154 7.109)"/>
      <path id="path33606" d="M77.618,45.543s-.367.826-1.1,2.243A23.991,23.991,0,0,0,75.6,50.5a5.387,5.387,0,0,0-.367,1.771c0,.59-.183,1.3-.183,2.007a19.769,19.769,0,0,0,2.384,9.916,35.959,35.959,0,0,0,9.721,10.978,63.038,63.038,0,0,0,17.791,9.089,24.348,24.348,0,0,0,2.751.826l1.467.354.734.236h.367l.367.118c2.018.472,4.4,1.062,6.236,1.3a77.455,77.455,0,0,0,13.022,1.062,68.217,68.217,0,0,0,13.756-1.535c1.1-.236,2.2-.59,3.3-.826s2.2-.708,3.3-1.062a21.146,21.146,0,0,0,3.118-1.18c1.1-.472,2.018-.826,2.935-1.3a45.184,45.184,0,0,0,10.088-6.847,27.368,27.368,0,0,0,3.485-4.132,14.74,14.74,0,0,0,1.467-2.125l1.1-2.125a23.323,23.323,0,0,0,1.467-4.722,8.635,8.635,0,0,0,.367-2.243l.183-2.243c0-.708-.183-1.535-.183-2.243a2.924,2.924,0,0,0-.183-1.18l-.367-1.18a10.012,10.012,0,0,0-.55-2.243l-.917-2.125a28.684,28.684,0,0,0-5.5-8.027,47.176,47.176,0,0,0-8.437-6.492,63.8,63.8,0,0,0-10.454-4.722c-1.834-.708-3.852-1.062-5.686-1.653l-.367-.118h-.183s.367.118.183,0l-.734-.118-1.651-.354c-1.1-.236-2.2-.472-3.118-.59a42.952,42.952,0,0,0-5.686-.59c-.917-.118-1.834-.118-2.935-.236h-2.935a84.191,84.191,0,0,0-11,.59,69.959,69.959,0,0,0-18.341,4.6c-1.284.59-2.384,1.062-3.668,1.653-1.1.59-2.018,1.18-3.118,1.771a31.122,31.122,0,0,0-2.568,1.771c-.367.236-.734.59-1.1.826-.367.354-.734.59-.917.826A16.543,16.543,0,0,0,82.2,39.641c-.55.472-.917,1.062-1.467,1.535a12.124,12.124,0,0,0-2.018,2.479A10.78,10.78,0,0,1,77.618,45.543Zm-.734-.118a13.461,13.461,0,0,0,1.284-2.243A4.151,4.151,0,0,1,78.9,42L80,40.585a20.065,20.065,0,0,1,1.284-1.653l1.651-1.771c.367-.354.55-.59.917-.944s.734-.59,1.1-.944a27.4,27.4,0,0,1,2.384-2.007l2.751-2.125,3.3-2.125a64.757,64.757,0,0,1,18.891-7.083c.917-.118,2.018-.354,2.935-.472,1.1-.118,2.018-.354,3.118-.472a58.7,58.7,0,0,1,6.419-.472c1.1,0,2.2-.118,3.3-.118s2.2.118,3.485.118a51.549,51.549,0,0,1,7.153.708,25.247,25.247,0,0,1,3.3.59l1.651.236.734.118.367.118h.367l.367.118c2.2.59,4.585,1.18,6.786,2.007a57.9,57.9,0,0,1,12.289,5.666,44.83,44.83,0,0,1,9.537,8.027,28.848,28.848,0,0,1,5.686,9.561,24.644,24.644,0,0,1,1.1,10.27,27.565,27.565,0,0,1-1.467,5.194,34.563,34.563,0,0,1-2.384,4.722v.236l-.183.236-.183.236-.367.59-.917,1.18c-.55.826-1.284,1.535-1.834,2.243a58.809,58.809,0,0,1-4.4,4.25,16.654,16.654,0,0,1-2.568,1.889c-.367.354-.917.59-1.284.944l-1.467.826c-.917.59-1.834,1.18-2.751,1.653l-2.935,1.535a97.031,97.031,0,0,1-13.206,4.84,99.15,99.15,0,0,1-14.49,2.6,78.084,78.084,0,0,1-14.856,0c-2.568-.236-4.585-.59-6.786-.944l-.367-.118h-.55l-.917-.236-1.651-.354a33.733,33.733,0,0,1-3.3-.826c-8.437-2.479-15.407-6.492-19.992-10.86a27.765,27.765,0,0,1-7.887-12.985c-.183-1.062-.367-2.007-.55-2.951,0-.944-.183-1.889-.183-2.715s.183-1.771.183-2.479v-1.18c0-.354.183-.708.183-1.062.183-.708.183-1.417.367-2.007l.55-1.771c.183-.59.367-1.062.55-1.535a11.3,11.3,0,0,1,.55-1.18C76.518,46.133,76.885,45.425,76.885,45.425Z" transform="translate(61.225 3.681)"/>
      <path id="ellipse33610" d="M95.658,44.689c2.678-2.043,6.418-2.848,8.354-1.8s1.335,3.559-1.343,5.6-6.416,2.848-8.353,1.8S92.982,46.733,95.658,44.689Z" transform="translate(77.725 7.656)" fill="#fff"/>
      <path id="path33612" d="M284.519,59.865s-2.935-1.889-7.887-5.194c-1.284-.826-2.751-1.653-4.219-2.715a27.009,27.009,0,0,1-2.384-1.535c-.917-.472-1.834-1.062-2.751-1.535-3.668-2.243-8.07-4.486-12.655-7.083-2.384-1.18-4.952-2.479-7.52-3.777-2.751-1.18-5.319-2.6-8.437-3.777-2.935-1.3-5.869-2.6-9.171-3.777-1.651-.59-3.118-1.18-4.769-1.889l-4.952-1.771c-1.651-.59-3.3-1.18-5.136-1.771-1.651-.59-3.485-1.18-5.319-1.653-3.668-1.062-7.153-2.125-11-3.069-3.668-1.062-7.52-1.889-11.372-2.715s-7.7-1.653-11.738-2.243c-7.887-1.417-15.773-2.6-23.66-3.305s-15.773-1.3-23.477-1.535-15.04-.236-22.009,0c-3.485.118-6.97.354-10.271.472-3.3.236-6.419.354-9.537.708-3.118.236-6.053.59-8.8.826s-5.319.59-7.887.944c-2.384.236-4.769.59-6.786.944-2.2.236-4.035.59-5.869.826-3.485.59-6.236,1.062-8.07,1.3-1.834.354-2.935.472-2.935.472l2.751-.708c1.834-.472,4.4-1.062,7.887-1.889,1.651-.354,3.668-.826,5.686-1.18,2.018-.472,4.4-.826,6.786-1.3s4.952-.826,7.887-1.3c2.751-.472,5.686-.826,8.8-1.18s6.236-.708,9.537-1.062c3.3-.236,6.786-.59,10.271-.708,7.153-.472,14.673-.59,22.56-.59,7.887.118,15.957.472,24.027,1.18s16.324,1.771,24.394,3.305c4.035.708,8.07,1.535,11.922,2.361,3.852.944,7.887,1.771,11.555,2.951,7.7,2.007,14.856,4.486,21.643,6.965,1.651.59,3.3,1.3,4.952,1.889a49.6,49.6,0,0,1,4.769,2.007c3.118,1.3,6.053,2.715,8.987,4.013s5.5,2.833,8.254,4.132c2.568,1.417,4.952,2.833,7.336,4.132s4.4,2.715,6.6,3.9c2.018,1.3,3.852,2.6,5.686,3.659.917.59,1.651,1.18,2.568,1.653.734.59,1.467,1.062,2.2,1.653,1.467,1.062,2.751,2.007,4.035,2.951,2.384,1.771,4.035,3.187,5.319,4.25A21.141,21.141,0,0,0,284.519,59.865Z" transform="translate(38.285 1.281)"/>
      <path id="path33602" d="M302.5,79.968c-5.5-.708-22.926-5.666-32.647-4.486C156.687,89.057,95.611,89.412,49.758,50.1c-.367-.236.734,1.535,2.568,4.013a53.5,53.5,0,0,0,7.887,8.617S33.434,66.865,31.6,80.794c0,0,6.97-13.1,33.564-14.873,0,0,8.254,5.784,11.555,6.61,0,0-23.844,4.486-27.145,16.88,0,0,7.153-11.332,32.464-14.519,0,0,10.271,4.84,16.14,5.666,0,0-22.926,2.361-31.73,15.936,0,0,18.891-10.978,41.818-13.339,0,0,38.517,11.686,163.237-4.132C271.136,79.024,281.591,77.253,302.5,79.968Z" transform="translate(26.357 9.037)"/>
    </g>
  </g>
</svg>
