<svg xmlns="http://www.w3.org/2000/svg" width="328.858" height="104.468" viewBox="0 0 328.858 104.468">
  <g id="Group_371" data-name="Group 371" transform="translate(-845.442 -652.5)">
    <path id="path33590" d="M244.5,79.068c5.5-.708,22.926-5.666,32.647-4.486C390.313,88.157,451.389,88.512,497.242,49.2c.367-.236-.734,1.535-2.568,4.013a53.5,53.5,0,0,1-7.887,8.617s26.778,4.132,28.612,18.061c0,0-6.97-13.1-33.564-14.873,0,0-8.254,5.784-11.555,6.61,0,0,23.844,4.486,27.145,16.88,0,0-7.153-11.332-32.464-14.519,0,0-10.271,4.84-16.14,5.666,0,0,22.927,2.361,31.73,15.936,0,0-18.891-10.978-41.818-13.339,0,0-38.516,11.686-163.237-4.132C275.863,78.242,265.409,76.471,244.5,79.068Z" transform="translate(600.942 661.374)"/>
    <path id="path33592" d="M499.443,52.293c40.351-2.833,73.915-18.533,73.915-18.533-34.848,14.165-73.365,7.083-73.365,7.083,37.233-1.18,54.657-22.192,54.657-22.192C543.278,31.872,488.621,34,488.621,34c31.547-3.541,44.569-23.845,44.569-23.845C512.832,31.872,466.979,27.5,466.979,27.5c28.8-2.361,37.966-23.373,37.966-23.373C490.272,29.747,440.2,21.248,440.2,21.248,463.494,20.3,471.931,0,471.931,0c-6.053,17.352-49.521,16.526-49.521,16.526C318.232,8.5,244.5,79.089,244.5,79.089c157.918-93.844,254.943-26.8,254.943-26.8" transform="translate(600.942 652.5)"/>
    <path id="path33594" d="M395.954,44.543s.367.826,1.1,2.243c.183.354.367.826.55,1.18.183.472.367.944.55,1.535l.55,1.771c.183.59.183,1.3.367,2.007,0,.354.183.708.183,1.062v1.18c0,.826.183,1.653.183,2.479,0,.944-.183,1.771-.183,2.715-.183.944-.367,1.889-.55,2.951a27.219,27.219,0,0,1-7.887,12.985c-4.585,4.368-11.372,8.263-19.992,10.86a33.732,33.732,0,0,1-3.3.826l-1.651.354-.917.236h-.55l-.367.118c-2.2.354-4.219.708-6.786.944a89.19,89.19,0,0,1-14.856,0,99.147,99.147,0,0,1-14.49-2.6,97.03,97.03,0,0,1-13.206-4.84l-2.935-1.535c-1.1-.472-1.834-1.18-2.751-1.653l-1.467-.826c-.367-.354-.917-.59-1.284-.944-.917-.59-1.651-1.3-2.568-1.889a41.953,41.953,0,0,1-8.07-8.735,29.529,29.529,0,0,1-2.384-4.84,27.563,27.563,0,0,1-1.467-5.194,21.81,21.81,0,0,1,1.1-10.27,32.338,32.338,0,0,1,5.686-9.561A49.882,49.882,0,0,1,308.1,29.08a57.9,57.9,0,0,1,12.289-5.666c2.2-.826,4.4-1.3,6.786-2.007l.367-.118h.367l.367-.118.734-.118,1.651-.236c1.1-.236,2.018-.354,3.3-.59,2.384-.236,4.952-.59,7.153-.708,1.1,0,2.2-.118,3.485-.118a30.858,30.858,0,0,1,3.3.118,55.512,55.512,0,0,1,6.419.472,28.425,28.425,0,0,1,3.118.472,25.291,25.291,0,0,0,2.935.472,64.758,64.758,0,0,1,18.891,7.083l3.3,2.125,2.751,2.125c.917.708,1.651,1.417,2.384,2.007.367.354.734.59,1.1.944s.55.59.917.944l1.651,1.771a20.076,20.076,0,0,1,1.284,1.653l1.1,1.417a6.826,6.826,0,0,1,.734,1.18C395.4,43.717,395.954,44.543,395.954,44.543Zm-.917.118s-.55-.708-1.467-2.125a12.124,12.124,0,0,0-2.018-2.479c-.367-.472-.917-.944-1.467-1.535a23.17,23.17,0,0,1-1.834-1.653,4.132,4.132,0,0,1-.917-.826c-.367-.236-.734-.59-1.1-.826-.917-.59-1.651-1.18-2.568-1.771s-2.017-1.062-3.118-1.771c-1.1-.59-2.384-1.062-3.668-1.653a80.692,80.692,0,0,0-18.341-4.6,82.477,82.477,0,0,0-11-.59H344.6c-.917.118-1.834.118-2.935.236-2.018.118-3.668.472-5.686.59-.917.118-2.017.354-3.118.59l-1.651.354-.734.118h0v.472a51.583,51.583,0,0,0-5.686,1.653,50.458,50.458,0,0,0-10.455,4.722,40.608,40.608,0,0,0-8.437,6.492,28.685,28.685,0,0,0-5.5,8.027l-.917,2.125a10.018,10.018,0,0,0-.55,2.243l-.367,1.18a2.923,2.923,0,0,1-.183,1.18c0,.708-.183,1.535-.183,2.243l.183,2.243a8.636,8.636,0,0,0,.367,2.243,22.326,22.326,0,0,0,1.467,4.6,29.961,29.961,0,0,0,6.236,8.5,41.333,41.333,0,0,0,10.088,6.847,31.81,31.81,0,0,0,2.935,1.3,21.146,21.146,0,0,0,3.118,1.18,23.8,23.8,0,0,0,3.3,1.062c1.1.236,2.2.59,3.3.826a77.915,77.915,0,0,0,13.756,1.535A74.36,74.36,0,0,0,355.97,86.33a58.556,58.556,0,0,0,6.236-1.3l.367-.118h.367l.734-.236,1.467-.354a24.349,24.349,0,0,0,2.751-.826,69.171,69.171,0,0,0,17.791-9.089c4.585-3.541,7.887-7.319,9.721-10.978a18.013,18.013,0,0,0,2.384-9.916c0-.708-.183-1.417-.183-2.007a6.1,6.1,0,0,0-.367-1.771,9.539,9.539,0,0,0-.917-2.715A24.973,24.973,0,0,1,395.037,44.661Z" transform="translate(640.237 656.001)"/>
    <path id="circle33596" d="M354.286,53.137c0,8.084-10.183,14.637-22.743,14.637S308.8,61.221,308.8,53.137,318.983,38.5,331.543,38.5,354.286,45.054,354.286,53.137Z" transform="translate(654.576 659.447)"/>
    <path id="ellipse33598" d="M333.539,43.829c2.676,2.045,3.278,4.553,1.341,5.6s-5.677.246-8.353-1.8-3.278-4.552-1.343-5.6S330.862,41.786,333.539,43.829Z" transform="translate(667.297 660.001)" fill="#fff"/>
    <path id="path33600" d="M247.8,58.934a13.564,13.564,0,0,0,1.834-1.535c1.284-.944,2.935-2.479,5.319-4.25,1.284-.826,2.568-1.889,4.035-2.951a26.763,26.763,0,0,0,2.2-1.653c.734-.59,1.651-1.062,2.568-1.653,1.834-1.18,3.668-2.479,5.686-3.659q3.026-1.948,6.6-3.9c2.384-1.3,4.769-2.715,7.336-4.132,2.568-1.3,5.319-2.715,8.254-4.132,2.935-1.3,5.869-2.715,8.987-4.013,1.651-.708,3.118-1.3,4.769-2.007,1.651-.59,3.3-1.3,4.952-1.889,6.786-2.479,13.939-4.958,21.643-6.965,3.852-1.062,7.7-2.007,11.555-2.951,4.035-.826,7.887-1.771,11.922-2.361,8.07-1.417,16.324-2.479,24.394-3.305,8.07-.708,16.324-1.18,24.027-1.18,7.887-.118,15.407.118,22.56.59,3.485.118,6.97.472,10.271.708,3.3.354,6.6.59,9.537,1.062,3.118.354,6.053.708,8.8,1.18,2.751.354,5.319.826,7.887,1.3,2.384.354,4.769.826,6.786,1.3,2.018.354,4.035.826,5.686,1.18,3.485.708,6.053,1.417,7.887,1.889l2.751.708s-.917-.118-2.935-.472c-1.834-.354-4.585-.826-8.07-1.3-1.834-.236-3.668-.59-5.869-.826s-4.4-.59-6.786-.944-5.135-.59-7.887-.944-5.686-.59-8.8-.826c-3.118-.354-6.236-.472-9.537-.708-3.3-.118-6.786-.354-10.271-.472-6.97-.236-14.49-.236-22.009,0-7.7.118-15.59.708-23.477,1.535-7.887.708-15.957,1.889-23.66,3.305-4.035.59-7.887,1.535-11.738,2.243-3.852.944-7.7,1.771-11.372,2.715s-7.336,2.007-11,3.069c-1.834.59-3.485,1.18-5.319,1.653-1.651.59-3.485,1.062-5.136,1.771l-4.952,1.771c-1.651.59-3.118,1.3-4.769,1.889-3.118,1.18-6.236,2.479-9.171,3.777-2.935,1.18-5.686,2.6-8.437,3.777-2.751,1.3-5.135,2.6-7.52,3.777q-7.153,3.718-12.655,7.083c-.917.59-1.834,1.062-2.751,1.535a26.977,26.977,0,0,0-2.384,1.535c-1.651.944-2.935,1.889-4.218,2.715C250.735,57.045,247.8,58.934,247.8,58.934Z" transform="translate(603.695 653.65)"/>
  </g>
</svg>
