<svg xmlns="http://www.w3.org/2000/svg" width="680.014" height="148.452" viewBox="0 0 680.014 148.452">
  <g id="layer1" transform="translate(-565.908 20.098)">
    <path id="path2998" d="M884.228,1.264a105.716,105.716,0,0,1-33.2-6.008C823.614-14.608,754.485-20.1,733.856-20.1c-58.109-.009-115.316,1.258-167.948,6.475l1.747,25.567c15.043,3.57,19.627,10.24,21.687,18.291,9.5,37.107,22.806,68.664,47.589,81.64,17.6,9.215,39.715,17.245,81.1,16.421,44.081-.877,90.911-8.743,113.884-25.967,20.168-15.122,41.2-38.387,48.822-63.817,2.87-9.582,13.311-13.818,25.182-13.818s22.312,4.236,25.182,13.818c7.617,25.43,28.654,48.695,48.822,63.817,22.973,17.225,69.8,25.09,113.884,25.967,41.381.823,63.5-7.206,81.1-16.421,24.783-12.976,38.093-44.532,47.589-81.64,2.06-8.051,6.644-14.72,21.687-18.291l1.747-25.567c-52.632-5.217-109.839-6.484-167.948-6.475-20.629,0-89.758,5.49-117.173,15.353a105.717,105.717,0,0,1-33.2,6.008c-14.444.411-28.93.411-43.374,0ZM715.047-7.214c12.837-.015,25.837.187,38.133.067,10.64-.1,83.948-1.4,95.794,27.1,11.291,27.17-5.457,61.713-41.113,81.239-24.844,13.606-122.617,28.37-160.958-.8C620.622,80.4,615.062,62.258,612.263,37.11,610.489,21.179,616.8,4.924,656.871-3.343c15.921-3.285,36.781-3.848,58.176-3.872Zm336.923,0c3.046-.011,5.351.054,6.681.067,12.3.12,25.3-.082,38.133-.067,21.394.024,42.255.587,58.175,3.872,40.07,8.267,46.381,24.522,44.608,40.453-2.8,25.148-8.359,43.289-34.638,63.283-38.342,29.172-136.114,14.407-160.958.8-35.657-19.526-52.4-54.069-41.114-81.24C973.221-4.987,1030.649-7.143,1051.969-7.214Zm-468.9,6.008h29.91V3.4h-29.91Zm615.775,0h29.91V3.4h-29.91Z" transform="translate(0 0)"/>
  </g>
</svg>
