<svg xmlns="http://www.w3.org/2000/svg" width="21.114" height="18.482" viewBox="0 0 21.114 18.482">
  <path id="attach_2_" d="M19.632,10.261l-6.619-8.18A5.155,5.155,0,0,0,9.5.024a5.49,5.49,0,0,0-3.583.993L2.336,3.288a4.474,4.474,0,0,0-2.3,3.066A4.173,4.173,0,0,0,1.1,9.534S7.549,17.5,7.551,17.5a.987.987,0,0,0,1.272.127A.748.748,0,0,0,9.1,16.523c0-.006-6.506-8.037-6.506-8.037a2.672,2.672,0,0,1-.668-1.938A2.915,2.915,0,0,1,3.44,4.653L7.121,2.315A3.438,3.438,0,0,1,9.292,1.7a3.312,3.312,0,0,1,2.169,1.367l6.626,8.185a4.775,4.775,0,0,1,1.083,3.233,2.462,2.462,0,0,1-1.232,1.646c-2.374,1.5-4.021.082-5.445-1.678C11.483,13.2,8.466,9.633,8.335,9.477c0,0-1.958-2.2-.654-3.024.842-.532,1.86.033,3.183,1.666l3.927,4.83a.994.994,0,0,0,1.258.112.751.751,0,0,0,.285-1.091L12.412,7.137C11.261,5.715,9.337,3.332,6.5,5.131A2.437,2.437,0,0,0,5.24,6.976a5.58,5.58,0,0,0,1.53,3.455c.285.339,3.128,3.882,4.082,5.062,2.556,3.158,5.375,3.793,8.2,2a4.11,4.11,0,0,0,2.005-2.756C21.459,12.5,19.706,10.352,19.632,10.261Z" transform="translate(0 0)" fill="#56c596"/>
</svg>
