<svg id="edit-text" xmlns="http://www.w3.org/2000/svg" width="25" height="20" viewBox="0 0 30.837 20">
  <path id="Path_49" data-name="Path 49" d="M30.293,2.732,28.1.544a1.462,1.462,0,0,0-1.928-.3l4.413,4.414A1.462,1.462,0,0,0,30.293,2.732Z" transform="translate(0 0.001)" fill="#fff"/>
  <rect id="Rectangle_2" data-name="Rectangle 2" width="0.888" height="18.581" transform="matrix(-0.706, -0.708, 0.708, -0.706, 16.957, 17.331)" fill="#fff"/>
  <path id="Path_50" data-name="Path 50" d="M28.794,3.91,26.949,2.064,13.789,15.137l1.906,1.875Z" transform="translate(0 0.001)" fill="#fff"/>
  <rect id="Rectangle_3" data-name="Rectangle 3" width="0.986" height="18.58" transform="translate(13.218 14.592) rotate(-135)" fill="#fff"/>
  <path id="Path_51" data-name="Path 51" d="M9.945,20.891l1.993-.639-1.365-1.365Z" transform="translate(0 -1)" fill="#fff"/>
  <path id="Path_52" data-name="Path 52" d="M10.918,17.98l1.814,1.963,3.588-1.1-4.377-4.334Z" transform="translate(0 -1)" fill="#ff"/>
  <path id="Path_53" data-name="Path 53" d="M2,7H16.583l4-4H2A2,2,0,0,0,2,7Z" transform="translate(0 0.001)" fill="#fff"/>
  <path id="Path_54" data-name="Path 54" d="M2,14h8.01l3.574-4H2a2,2,0,0,0,0,4Z" transform="translate(0 -0.588)" fill="#fff"/>
  <path id="Path_55" data-name="Path 55" d="M0,19a2,2,0,0,0,2,2H7.964a1.975,1.975,0,0,1,.073-.707L9.122,17H2A2,2,0,0,0,0,19Z" transform="translate(0 -1)" fill="#fff"/>
</svg>
