<svg id="Layer_1" data-name="Layer 1" xmlns="http://www.w3.org/2000/svg" viewBox="0 0 27.21 59.03"><defs><style>.cls-1{font-size:12px;fill:#1d1d1b;font-family:AdobeArabic-Regular, Adobe Arabic;}.cls-2{fill:none;stroke:#1d1d1b;stroke-width:0.75px;}.cls-2,.cls-3,.cls-4,.cls-5,.cls-6{stroke-miterlimit:10;}.cls-3,.cls-4{fill:#be1622;}.cls-3{stroke:#be1622;opacity:0.79;}.cls-3,.cls-4,.cls-5,.cls-6{stroke-width:0.25px;}.cls-4,.cls-5,.cls-6{stroke:#e30613;}.cls-5,.cls-6{fill:#e30613;}.cls-6{stroke-linecap:round;}</style></defs><text class="cls-1" transform="translate(10.83 8.79)">7</text><path class="cls-2" d="M500.23,247.3a5.22,5.22,0,0,1-1.73.45,5.85,5.85,0,0,1-2.4-.75,10.06,10.06,0,0,0-3.52-.3c-2.29,0-3.44,0-4.28.68a4.67,4.67,0,0,0-1.5,2.7,9.31,9.31,0,0,0,.08,4.57c.43,2.37.8,4.43,2.17,5,.6.23.85,0,2.33-.15a18,18,0,0,1,3.75.23c1.86.18,3.64-.08,7.2-.6s3.6-.8,4.95-.6c1.8.26,2.71,1,3.52.45s.8-1.72.83-3.15a11.71,11.71,0,0,0-1.13-5.25c-.72-1.48-1.43-2.93-3-3.6-.95-.42-1.86-.35-3.67-.23A14.05,14.05,0,0,0,500.23,247.3Z" transform="translate(-486.17 -229.73)"/><path class="cls-2" d="M489.58,260.13c-.25.49.45.9,1.42,2.92a15.82,15.82,0,0,1,1.43,4.58c.27,2-.23,2.2.07,4a10.52,10.52,0,0,0,1.73,4.13c1.7,2.58,4.4,4.56,4.95,4.12.38-.3-.77-1.43-.83-3.67a7.62,7.62,0,0,1,1.95-5.1,3.6,3.6,0,0,1,2.4-1.58,2.87,2.87,0,0,1,1.8.68,9.09,9.09,0,0,1,3.3,5c.64,2.62-.08,4.19.53,4.43.76.3,2.36-2.06,3-3.15a8,8,0,0,0,1.42-3.9,17.82,17.82,0,0,0-1.12-4.5c-.75-2.39-.74-2.05-.83-2.55-.51-2.9.81-4.56-.15-5.63-.15-.16-.4-.37-1.57-.6a15.13,15.13,0,0,0-5.25-.07c-3.61.6-5.42.9-6.83,1C492.65,260.41,490,259.2,489.58,260.13Z" transform="translate(-486.17 -229.73)"/><path class="cls-3" d="M501.36,253.93h-6.27a2.27,2.27,0,0,1-2.37-2.17v-2.53a2.26,2.26,0,0,1,.7-1.53,2.52,2.52,0,0,1,.9-.51c1.48-.45,2.25.82,4,.81s2.88-1.16,3.95-.74a2.45,2.45,0,0,1,.72.44,2,2,0,0,1,.59.89,2,2,0,0,1,.11.64v2.53A2.27,2.27,0,0,1,501.36,253.93Z" transform="translate(-486.17 -229.73)"/><path class="cls-3" d="M494.18,247.1a21.06,21.06,0,0,0-2.81,0,5.48,5.48,0,0,0-1.8.09,2.72,2.72,0,0,0-1.1.48,3.39,3.39,0,0,0-.93,1.46,7.29,7.29,0,0,0-.62,2.07,8.85,8.85,0,0,0,.21,3c.1.53.25,1.14.25,1.14.06.26.09.38.11.44.31.85,3.77,1.78,5.09,0,.22-.29.06-.39,0-3.51,0-1.52,0-.47,0-1.69a4.33,4.33,0,0,1,.16-1.94,2.6,2.6,0,0,1,.68-1C493.82,247.24,494.2,247.19,494.18,247.1Z" transform="translate(-486.17 -229.73)"/><path class="cls-3" d="M504,255.69c-.47-.48,0-.94,0-3.34,0-1.95,0-3.73-1-4.65-.11-.12-.4-.37-.33-.55s.64-.22,1.51-.2a14.4,14.4,0,0,1,2.9.13,4.4,4.4,0,0,1,2,1.58,12.65,12.65,0,0,1,.82,1.76c.71,1.49.88,1.58,1,2.18a14.11,14.11,0,0,0,.1,1.53c.13.73.27.82.19,1-.21.56-1.37.49-3.51.6C504.93,255.9,504.44,256.13,504,255.69Z" transform="translate(-486.17 -229.73)"/><rect class="cls-3" x="8.96" y="26.77" width="6.19" height="1.73" rx="0.87"/><path class="cls-3" d="M492.3,254.55l-5.09-.27h0l-.13-1.72-.14-.83,5.36-.43a1.27,1.27,0,0,1,1.26,1.26v.73A1.27,1.27,0,0,1,492.3,254.55Z" transform="translate(-486.17 -229.73)"/><path class="cls-3" d="M511,254l-5.48.54a1.27,1.27,0,0,1-1.26-1.26v-.73a1.27,1.27,0,0,1,1.26-1.26l4.86.37h0l.08.1Z" transform="translate(-486.17 -229.73)"/><path class="cls-4" d="M493.09,260.76c-.52.53,0,1.54.34,3.06.72,2.88,0,3.22.79,8.3a9.38,9.38,0,0,0,.91,3c.11.2,1.29,2.46,2,2.27s.33-2.16.79-6.57a46.62,46.62,0,0,1,.91-6.45c.5-2,1-3.05.45-3.63s-1.17,0-3.74-.11C494,260.6,493.46,260.38,493.09,260.76Z" transform="translate(-486.17 -229.73)"/><path class="cls-4" d="M502.31,260.09c.4-.74,1.75-.77,3.24-.8s2.07,0,2.6.34c1.21.86.44,2.59,1,5.44.68,3.31,2.21,3.36,2.49,6.11.31,3-1.15,5.84-1.92,5.78s-.05-3.15-2.27-6.23c-1.34-1.87-2.45-1.91-3.28-4-.51-1.27-.2-1.53-.91-3.52S502,260.71,502.31,260.09Z" transform="translate(-486.17 -229.73)"/><path class="cls-5" d="M508.19,257.81l-5.49,1.5a.39.39,0,0,1-.48-.23l-.43-1.29a.34.34,0,0,1,.26-.43l5.49-1.51a.4.4,0,0,1,.48.23l.43,1.3A.35.35,0,0,1,508.19,257.81Z" transform="translate(-486.17 -229.73)"/><path class="cls-5" d="M510.86,273.86l-.7.19a.68.68,0,0,1-.84-.4l-4.82-14.54a.61.61,0,0,1,.46-.76l.69-.19a.7.7,0,0,1,.85.4l4.82,14.54A.61.61,0,0,1,510.86,273.86Z" transform="translate(-486.17 -229.73)"/><path class="cls-5" d="M508.3,261.16l-3.75,1a.19.19,0,0,1-.24-.11l-.14-.42a.18.18,0,0,1,.13-.21l3.76-1a.18.18,0,0,1,.23.11l.14.42A.17.17,0,0,1,508.3,261.16Z" transform="translate(-486.17 -229.73)"/><path class="cls-5" d="M509.1,263.36l-3.78,1a.18.18,0,0,1-.22-.11l-.15-.44a.16.16,0,0,1,.12-.19l3.78-1a.17.17,0,0,1,.22.11l.15.43A.16.16,0,0,1,509.1,263.36Z" transform="translate(-486.17 -229.73)"/><path class="cls-5" d="M509.77,265.6l-3.75,1a.19.19,0,0,1-.24-.11l-.14-.41a.18.18,0,0,1,.13-.22l3.76-1a.18.18,0,0,1,.23.11l.14.41A.18.18,0,0,1,509.77,265.6Z" transform="translate(-486.17 -229.73)"/><path class="cls-5" d="M510.57,267.79l-3.79,1a.17.17,0,0,1-.21-.1l-.15-.44a.17.17,0,0,1,.12-.2l3.79-1a.18.18,0,0,1,.21.11l.15.44A.15.15,0,0,1,510.57,267.79Z" transform="translate(-486.17 -229.73)"/><path class="cls-5" d="M511.31,270l-3.8,1a.17.17,0,0,1-.2-.1l-.15-.45a.15.15,0,0,1,.11-.19l3.77-1a.19.19,0,0,1,.24.11l.14.43A.15.15,0,0,1,511.31,270Z" transform="translate(-486.17 -229.73)"/><path class="cls-5" d="M512,272.25l-3.75,1a.19.19,0,0,1-.24-.11l-.13-.41a.18.18,0,0,1,.13-.22l3.75-1a.19.19,0,0,1,.24.11l.13.41A.17.17,0,0,1,512,272.25Z" transform="translate(-486.17 -229.73)"/><line class="cls-6" x1="25.24" y1="40.21" x2="21.93" y2="43.54"/><line class="cls-6" x1="25" y1="39.56" x2="21.69" y2="42.9"/><line class="cls-6" x1="24.51" y1="37.97" x2="21.23" y2="41.32"/><line class="cls-6" x1="24.29" y1="37.35" x2="21.01" y2="40.65"/><line class="cls-6" x1="23.7" y1="35.8" x2="20.5" y2="39.1"/><line class="cls-6" x1="23.49" y1="35.14" x2="20.27" y2="38.45"/><line class="cls-6" x1="23.04" y1="33.55" x2="19.7" y2="36.88"/><line class="cls-6" x1="22.8" y1="32.9" x2="19.5" y2="36.22"/><line class="cls-6" x1="22.25" y1="31.35" x2="19.03" y2="34.66"/><line class="cls-6" x1="22.02" y1="30.7" x2="18.82" y2="33.98"/><path class="cls-5" d="M507.73,272.52" transform="translate(-486.17 -229.73)"/><path class="cls-5" d="M506.79,256.49l-3.75,1a.75.75,0,0,1-.93-.44l-.52-1.57a.67.67,0,0,1,.51-.84l3.74-1a.74.74,0,0,1,.93.44l.53,1.57A.68.68,0,0,1,506.79,256.49Z" transform="translate(-486.17 -229.73)"/><path class="cls-5" d="M498.74,259.36l-5,.23a.32.32,0,0,1-.33-.32l0-1.34a.35.35,0,0,1,.34-.35l5-.23a.31.31,0,0,1,.33.32l0,1.34A.38.38,0,0,1,498.74,259.36Z" transform="translate(-486.17 -229.73)"/><path class="cls-5" d="M496.11,275.32l-.64,0a.55.55,0,0,1-.58-.57l.38-15a.63.63,0,0,1,.61-.62l.64,0a.54.54,0,0,1,.58.57l-.38,15A.66.66,0,0,1,496.11,275.32Z" transform="translate(-486.17 -229.73)"/><path class="cls-5" d="M497.82,262.6l-3.45.15a.15.15,0,0,1-.16-.16v-.43a.18.18,0,0,1,.17-.17l3.45-.16a.16.16,0,0,1,.16.16v.43A.19.19,0,0,1,497.82,262.6Z" transform="translate(-486.17 -229.73)"/><path class="cls-5" d="M497.82,264.88l-3.47.15a.13.13,0,0,1-.15-.14v-.46a.17.17,0,0,1,.16-.16l3.47-.15a.14.14,0,0,1,.15.14v.46A.19.19,0,0,1,497.82,264.88Z" transform="translate(-486.17 -229.73)"/><path class="cls-5" d="M497.7,267.16l-3.44.16a.17.17,0,0,1-.17-.16v-.43a.18.18,0,0,1,.18-.17l3.44-.16a.15.15,0,0,1,.16.16V267A.18.18,0,0,1,497.7,267.16Z" transform="translate(-486.17 -229.73)"/><path class="cls-5" d="M497.7,269.45l-3.47.15a.13.13,0,0,1-.15-.14V269a.17.17,0,0,1,.16-.16l3.47-.16a.15.15,0,0,1,.15.15v.46A.17.17,0,0,1,497.7,269.45Z" transform="translate(-486.17 -229.73)"/><path class="cls-5" d="M497.65,271.73l-3.48.16a.15.15,0,0,1-.15-.14v-.47a.16.16,0,0,1,.16-.15l3.46-.16a.15.15,0,0,1,.16.16v.44A.16.16,0,0,1,497.65,271.73Z" transform="translate(-486.17 -229.73)"/><path class="cls-5" d="M497.53,274l-3.45.15a.15.15,0,0,1-.16-.16v-.42a.18.18,0,0,1,.17-.18l3.45-.15a.15.15,0,0,1,.16.16v.42A.19.19,0,0,1,497.53,274Z" transform="translate(-486.17 -229.73)"/><line class="cls-6" x1="11.58" y1="41.95" x2="7.81" y2="44.41"/><line class="cls-6" x1="11.58" y1="41.28" x2="7.81" y2="43.74"/><line class="cls-6" x1="11.66" y1="39.65" x2="7.91" y2="42.13"/><line class="cls-6" x1="11.65" y1="39.01" x2="7.92" y2="41.44"/><line class="cls-6" x1="11.64" y1="37.39" x2="7.96" y2="39.84"/><line class="cls-6" x1="11.66" y1="36.71" x2="7.97" y2="39.17"/><line class="cls-6" x1="11.76" y1="35.09" x2="7.97" y2="37.54"/><line class="cls-6" x1="11.76" y1="34.42" x2="8" y2="36.87"/><line class="cls-6" x1="11.76" y1="32.82" x2="8.08" y2="35.27"/><line class="cls-6" x1="11.77" y1="32.14" x2="8.11" y2="34.58"/><path class="cls-5" d="M493.9,273.34" transform="translate(-486.17 -229.73)"/><path class="cls-5" d="M498,257.79l-3.44.15a.6.6,0,0,1-.64-.63l0-1.62a.72.72,0,0,1,.68-.69l3.43-.15a.6.6,0,0,1,.64.63l0,1.62A.72.72,0,0,1,498,257.79Z" transform="translate(-486.17 -229.73)"/><path class="cls-5" d="M489.23,260a4.56,4.56,0,0,0,.15,1,5.34,5.34,0,0,0,.69,1.37,15.1,15.1,0,0,1,1.06,1.9c.2.51.11.47.46,1.75s.53,1.62.38,1.75-1.29-.25-2-1.06-.42-1.5-1.22-3.2c-.61-1.3-1.15-1.65-1-2.28S488.68,260.18,489.23,260Z" transform="translate(-486.17 -229.73)"/><path class="cls-5" d="M510.85,259.29c-.07.16.42.33.61.92s0,.73-.16,1.44c-.06.32-.09.87-.15,2-.09,1.63,0,1.83.15,2a1.19,1.19,0,0,0,1.45,0c.12-.1.32-.32.38-1.29a10.44,10.44,0,0,0-.08-1.83c-.08-1.62.42-1.93.08-2.51C512.61,259.1,511,259,510.85,259.29Z" transform="translate(-486.17 -229.73)"/><path class="cls-5" d="M506.2,262.25l-12.49,0c-.46,0-.83-.25-.83-.56l0-2.22c0-.31.38-.57.84-.57l12.49,0c.46,0,.83.25.83.56l0,2.22C507,262,506.66,262.25,506.2,262.25Z" transform="translate(-486.17 -229.73)"/><path class="cls-5" d="M500.34,288.63h-1.58c-.82,0-1.48-.44-1.47-1l.31-24.92c0-.54.68-1,1.49-1h1.58c.82,0,1.48.45,1.47,1l-.31,24.92C501.82,288.18,501.15,288.62,500.34,288.63Z" transform="translate(-486.17 -229.73)"/><path class="cls-5" d="M504.05,267.57l-8.54,0c-.23,0-.41-.12-.41-.27v-.72c0-.15.18-.28.41-.28h8.55c.22,0,.41.12.4.27v.72C504.46,267.45,504.28,267.57,504.05,267.57Z" transform="translate(-486.17 -229.73)"/><path class="cls-5" d="M504.14,271.37l-8.6,0c-.21,0-.38-.12-.38-.26v-.75c0-.14.18-.26.39-.26l8.6,0c.21,0,.38.12.38.26v.75C504.53,271.25,504.35,271.37,504.14,271.37Z" transform="translate(-486.17 -229.73)"/><path class="cls-5" d="M504,275.17l-8.53,0c-.23,0-.42-.13-.42-.28v-.71c0-.15.19-.28.42-.28l8.53,0c.24,0,.42.13.42.28v.71C504.37,275,504.18,275.17,504,275.17Z" transform="translate(-486.17 -229.73)"/><path class="cls-5" d="M504.05,279h-8.61c-.21,0-.38-.11-.37-.25V278c0-.14.17-.25.38-.25l8.61,0c.21,0,.37.11.37.25v.76C504.43,278.85,504.26,279,504.05,279Z" transform="translate(-486.17 -229.73)"/><path class="cls-5" d="M504,282.76l-8.63,0c-.2,0-.36-.11-.36-.24v-.78c0-.13.17-.24.37-.25H504c.24,0,.43.12.42.28v.74C504.38,282.65,504.22,282.76,504,282.76Z" transform="translate(-486.17 -229.73)"/><path class="cls-5" d="M503.81,286.56l-8.54,0c-.23,0-.41-.13-.41-.28v-.71c0-.15.19-.28.42-.28l8.53,0c.23,0,.42.13.42.28v.71C504.23,286.44,504,286.56,503.81,286.56Z" transform="translate(-486.17 -229.73)"/><line class="cls-6" x1="18.1" y1="52.96" x2="8.85" y2="56.79"/><line class="cls-6" x1="18.07" y1="51.83" x2="8.81" y2="55.68"/><line class="cls-6" x1="18.19" y1="49.13" x2="8.98" y2="53"/><line class="cls-6" x1="18.15" y1="48.06" x2="8.99" y2="51.85"/><line class="cls-6" x1="18.04" y1="45.38" x2="9.03" y2="49.2"/><line class="cls-6" x1="18.07" y1="44.24" x2="9.01" y2="48.07"/><line class="cls-6" x1="18.26" y1="41.55" x2="8.94" y2="45.37"/><line class="cls-6" x1="18.22" y1="40.43" x2="9.01" y2="44.26"/><line class="cls-6" x1="18.17" y1="37.77" x2="9.13" y2="41.6"/><line class="cls-6" x1="18.16" y1="36.64" x2="9.17" y2="40.44"/><path class="cls-5" d="M494.79,285.18" transform="translate(-486.17 -229.73)"/><path class="cls-5" d="M504.21,259.58l-8.51,0c-.9,0-1.63-.49-1.63-1.09l0-2.7c0-.6.75-1.1,1.65-1.1l8.51,0c.91,0,1.64.49,1.63,1.1l0,2.69C505.86,259.09,505.12,259.58,504.21,259.58Z" transform="translate(-486.17 -229.73)"/></svg>