<svg xmlns="http://www.w3.org/2000/svg" width="11.475" height="16.607" viewBox="0 0 11.475 16.607">
  <g id="Icon_Heart" data-name="Icon – Heart" transform="translate(1 1)">
    <path id="Path" d="M7.131,6.91a2.508,2.508,0,0,1-1.4-.449,2.015,2.015,0,0,1-.3-3.034A5.529,5.529,0,0,1,7.979,1.966V0l-.6.225A14.7,14.7,0,0,0,0,5.955H0" transform="translate(1.496 2.247)" fill="#56c596" stroke="#56c596" stroke-linecap="round" stroke-linejoin="round" stroke-miterlimit="10" stroke-width="2"/>
    <path id="Path-2" data-name="Path" d="M0,2.247V1.011A.956.956,0,0,1,.9,0h1.6V1.124" transform="translate(0.997 2.247)" fill="#56c596" stroke="#56c596" stroke-linecap="round" stroke-linejoin="round" stroke-miterlimit="10" stroke-width="2"/>
    <path id="Path-3" data-name="Path" d="M0,3.371V.843A.82.82,0,0,1,.748,0h0A.82.82,0,0,1,1.5.843v3.09" transform="translate(3.491)" fill="#56c596" stroke="#56c596" stroke-linecap="round" stroke-linejoin="round" stroke-miterlimit="10" stroke-width="2"/>
    <path id="Path-4" data-name="Path" d="M0,2.809V.843A.82.82,0,0,1,.748,0h0A.82.82,0,0,1,1.5.843v1.4" transform="translate(4.987 1.124)" fill="#56c596"/>
    <path id="Path-5" data-name="Path" d="M7.53,1.573a5.564,5.564,0,0,1,1.2,2.865c.3,1.91,2.394,6.4-2.144,6.4C4.139,10.843,0,8.371,0,4.438,0,1.966,1.546,0,3.94,0A6.008,6.008,0,0,1,5.685.281" transform="translate(0 3.764)" fill="#56c596" stroke="#56c596" stroke-linecap="round" stroke-linejoin="round" stroke-miterlimit="10" stroke-width="2"/>
  </g>
</svg>
