<svg id="CHID_DENT_all" xmlns="http://www.w3.org/2000/svg" viewBox="0 0 57.63 113.62"><g id="CHID_DENT_A_all"><text transform="translate(18.38 97.8) scale(1.21 1)" font-size="28.87" fill="#1d1d1b" font-family="AdobeArabic-Regular, Adobe Arabic">A</text><g id="CHID_DENT_A"><g id="CHID_DENT_ROOT_A"><path id="CHID_DENT_ROOT_A1" d="M293.2,232.57c-1.07.21,1.77,5.76-.67,13.19-1.83,5.55-4.54,5.88-7.23,12.5-2.55,6.31-2.09,10.94-3.19,11-1.26,0-.84-6.17-5.88-12.64-3-3.84-4.46-3.38-7.73-7.09-6.85-7.77-5.57-15.69-7.39-15.69-1.66,0-4.52,6.56-2.85,13.05,1.12,4.37,3.27,4.72,4.53,9.73.79,3.12.58,5.64.17,10.69-.6,7.34-2,11,0,11.95.67.32.89-.06,4.7-.42,3.36-.32,5.07-.47,7.06,0,2.22.52,2,1.14,4,1.53,1,.19,2.71.34,6.72-.7,3.65-.94,4.22-1.56,6.55-2.22,6.21-1.75,9.44.61,11.26-1,2.07-1.79-1.44-5.37-3-12.23-1.64-7.1,1-8.13,0-15.83C299.09,239.51,294.43,232.32,293.2,232.57Z" transform="translate(-254.88 -226.54)" fill="none" stroke="#1d1d1b" stroke-miterlimit="10" stroke-width="1.4"/><path id="CHID_DENT_ROOT_A2" d="M278.75,232.57c-.51-.14-2.55,3.16-4,7.36-1.65,4.67-2.89,8.2-1.34,11.94,1.3,3.17,3.08,2.82,5.54,7.09,2.56,4.44,2.52,8.09,3.19,8.05s-.43-4.53,2.35-9.58c1.61-2.93,3.1-3.4,2.86-5.14-.3-2.24-2.9-2.49-5.88-6.25a15.46,15.46,0,0,1-2.86-5.28C277.3,236.24,279.28,232.7,278.75,232.57Z" transform="translate(-254.88 -226.54)" fill="none" stroke="#1d1d1b" stroke-miterlimit="10" stroke-width="1.4"/></g><path id="CHID_DENT_CROWN_A" d="M262.29,280.35c-1.44,1.2-.61,1.93-2.19,6.11-1.63,4.34-2.91,4.54-3.36,7.36-.21,1.32-.75,4.74,1.68,7.22,2.9,2.95,8.75,2.46,11.93,2.23,3-.22,2.54-.66,6.55-1.12,3.61-.4,7.58-.85,11.93.28,3.26.85,3.16,1.66,6.05,2.09a17.1,17.1,0,0,0,8.23-.84,13.56,13.56,0,0,0,7.06-5.83c2.66-4.41,1.42-8.68.84-10.7-.71-2.45-2.34-8.06-7.39-9.72-3.33-1.09-6.94-.08-13.61,1.81-4.7,1.32-6.5,2.44-9.91,2.08-2.81-.3-2.87-1.2-6.39-1.94C272.51,279.12,265.54,277.64,262.29,280.35Z" transform="translate(-254.88 -226.54)" fill="none" stroke="#1d1d1b" stroke-miterlimit="10" stroke-width="1.4"/></g><path id="CHID_DENT_fiiling-caries_class_I_A" d="M295.65,303.83c-1.63.32-2.44-.7-6-1.72a28.21,28.21,0,0,0-5.68-1,28.51,28.51,0,0,0-6,.26c-1.83.29-4.83.94-5.13,1-2.09.46-3.08.73-3.81.28a2.18,2.18,0,0,1-.79-2.08V294c0-2.63,2.58-4.76,5.76-4.76h17.34a8.63,8.63,0,0,1,4.82,1.19,6.09,6.09,0,0,1,2.74,3.49c0,2.45-.09,4.89-.13,7.33A4.7,4.7,0,0,1,295.65,303.83Z" transform="translate(-254.88 -226.54)" fill="#be1622" stroke="#be1622" stroke-miterlimit="10" stroke-width="0.47" opacity="0.79"/><path id="CHID_DENT_fiiling_caries_class_IV_Mesial_A" d="M307.73,285.91h-8.16a3.11,3.11,0,0,0-3.36,2.78,1.94,1.94,0,0,0,.11,1.18c.26.64.74.82,1.35,1.41a5.69,5.69,0,0,1,1.39,2.43,7.09,7.09,0,0,1,0,2.1,20.51,20.51,0,0,0,.11,2.85,4.38,4.38,0,0,1-1.12,3.89c-.81.8-2.13,1.34-2,1.55s.39,0,1-.05c1-.12,1.78-.18,2.36-.22l2.56-.4a14.13,14.13,0,0,0,3.28-1.52,12.12,12.12,0,0,0,4.4-4.76,12,12,0,0,0,1.19-3.19,11.19,11.19,0,0,0,0-4.68,6.52,6.52,0,0,0-.43-1.51,3,3,0,0,0-.62-1.06A3.39,3.39,0,0,0,307.73,285.91Z" transform="translate(-254.88 -226.54)" fill="#be1622" stroke="#be1622" stroke-miterlimit="10" stroke-width="0.47" opacity="0.79"/><path id="CHID_DENT_filling_caries_Class_IV_Distal_A" d="M268.33,302.67c-.14.16-.53.37-3.83,0a10.13,10.13,0,0,1-3.61-.81,6.51,6.51,0,0,1-2.7-2.34c-.59-1-.66-2-.79-4a10.24,10.24,0,0,1,.06-2,5.24,5.24,0,0,1,.38-1.61c.13-.33.2-.4.69-1.36.38-.73.34-.69.52-1,.41-.76.6-.93,1.39-2.13s.75-1.25,1-1.36c.64-.34,1.12,0,3.32.13,1.31.09,2,.08,2.37.08,1.65,0,2-.13,2.37.23,1.18,1.09-1.35,3-1.58,7.63-.18,3.5-.26,5.26.34,6.81C268.39,301.4,268.74,302.2,268.33,302.67Z" transform="translate(-254.88 -226.54)" fill="#be1622" stroke="#be1622" stroke-miterlimit="10" stroke-width="0.47" opacity="0.79"/><rect id="CHID_DENT_filling_caries_Class_V_A" x="21.42" y="56.21" width="12.72" height="2.94" rx="0.87" fill="#be1622" stroke="#be1622" stroke-miterlimit="10" stroke-width="0.47" opacity="0.79"/><path id="CHID_DENT_filling_caries_Class_III_Mesial_A" d="M266.27,293.93h-5.94a2,2,0,0,1-1.82-.63,1.26,1.26,0,0,1-.13-1.34l.68-1a3.68,3.68,0,0,1,.13-.68,4.45,4.45,0,0,1,1.14-1.85h5.94a2.39,2.39,0,0,1,2.58,2.13v1.24A2.4,2.4,0,0,1,266.27,293.93Z" transform="translate(-254.88 -226.54)" fill="#be1622" stroke="#be1622" stroke-miterlimit="10" stroke-width="0.47" opacity="0.79"/><path id="CHID_DENT_filling_caries_Class_III_Distal_A" d="M306.55,293.94h-4.29a2.4,2.4,0,0,1-2.59-2.14v-1.24a2.4,2.4,0,0,1,2.59-2.13h4.52c.49.07,1.2.16,2.06.21,1.16.07,1.56,0,1.89.28.17.13.63.56.25,1.87l.07,1.64a1.2,1.2,0,0,1-.28,1.19,1.93,1.93,0,0,1-1.24.22A26.15,26.15,0,0,0,306.55,293.94Z" transform="translate(-254.88 -226.54)" fill="#be1622" stroke="#be1622" stroke-miterlimit="10" stroke-width="0.47" opacity="0.79"/><g id="CHID_DENT_EndoA"><path id="CHID_DENT_Endo2_A" d="M296.34,240.7c-.35,0-.61,2.5-2.19,7.24-1.14,3.39-2.47,6.47-2.59,6.75-1.36,3.13-1.69,3.34-2.19,5.1-.57,2-.39,2.58-1,5.6-.38,1.91-.54,2.15-1.19,4.77-1.33,5.4-2,8.1-1,8.56s2.09-1.5,5.58-2.31,5.46.55,6.76-.49c1.13-.9.56-2.57-.73-7.39-1.14-4.23-1.7-6.34-1.85-7.26-.61-3.66.2-4.33.59-11.84C296.7,246.29,296.85,240.74,296.34,240.7Z" transform="translate(-254.88 -226.54)" fill="#be1622" stroke="#e30613" stroke-miterlimit="10" stroke-width="0.47"/><path id="CHID_DENT_Endo1_A" d="M260.91,238.89c-.62.08-.75,4.81.79,9.71.72,2.29.95,1.89,2.19,5.1,1.5,3.89,4.2,15.93,3.25,11.93h0a20.4,20.4,0,0,1-.09,7.24c-.65,2.95-1.95,4.12-1.17,4.83s2.22-.2,5.18-.14c4.07.1,5.57,1.89,6.73,1.25,1.74-1-.2-5.79-1.7-9.44a84,84,0,0,0-5-10.07c-4.5-8-5.37-8.5-7.17-12.67C261.79,241.75,261.4,238.83,260.91,238.89Z" transform="translate(-254.88 -226.54)" fill="#be1622" stroke="#e30613" stroke-miterlimit="10" stroke-width="0.47"/><path id="CHID_DENT_Endo3_A" d="M276.43,239.88c-1,.08-.44,7.68-.2,11a9.34,9.34,0,0,0,1.59,5.1c.79,1.1,1.22,1.14,2,2.3,1.69,2.53,1.36,4.85,1.76,4.85s.44-1.15.82-2.71c.82-3.31,1.47-3.63,1.6-4.94.23-2.39-1.75-3.31-4-6.74C276.74,243.74,277.13,239.83,276.43,239.88Z" transform="translate(-254.88 -226.54)" fill="#be1622" stroke="#e30613" stroke-miterlimit="10" stroke-width="0.47"/></g><g id="CHID_DENT_Post_A"><g id="CHID_DENT_Post_A_1"><path d="M288.66,277.15l9.77.51a.64.64,0,0,1,.63.63l-.11,2.37a.62.62,0,0,1-.68.56l-9.76-.51a.63.63,0,0,1-.63-.63l.1-2.37A.62.62,0,0,1,288.66,277.15Z" transform="translate(-254.88 -226.54)" fill="#e30613" stroke="#e30613" stroke-miterlimit="10" stroke-width="0.47"/><path d="M294.24,249.3l1.24.06a1.11,1.11,0,0,1,1.11,1.12L295.41,277a1.1,1.1,0,0,1-1.21,1L293,278a1.13,1.13,0,0,1-1.12-1.12L293,250.29A1.09,1.09,0,0,1,294.24,249.3Z" transform="translate(-254.88 -226.54)" fill="#e30613" stroke="#e30613" stroke-miterlimit="10" stroke-width="0.47"/><path d="M290.54,271.57l6.69.35a.32.32,0,0,1,.31.31l0,.76a.29.29,0,0,1-.33.28l-6.69-.35a.31.31,0,0,1-.3-.31l0-.76A.31.31,0,0,1,290.54,271.57Z" transform="translate(-254.88 -226.54)" fill="#e30613" stroke="#e30613" stroke-miterlimit="10" stroke-width="0.47"/><path d="M290.62,267.52l6.72.35a.29.29,0,0,1,.29.29l0,.8a.29.29,0,0,1-.32.26l-6.72-.35a.29.29,0,0,1-.29-.29l0-.8A.29.29,0,0,1,290.62,267.52Z" transform="translate(-254.88 -226.54)" fill="#e30613" stroke="#e30613" stroke-miterlimit="10" stroke-width="0.47"/><path d="M290.91,263.48l6.67.35a.33.33,0,0,1,.32.32l0,.75a.31.31,0,0,1-.34.28l-6.67-.35a.31.31,0,0,1-.31-.32l0-.75A.31.31,0,0,1,290.91,263.48Z" transform="translate(-254.88 -226.54)" fill="#e30613" stroke="#e30613" stroke-miterlimit="10" stroke-width="0.47"/><path d="M291,259.43l6.74.35a.29.29,0,0,1,.28.29l0,.81a.28.28,0,0,1-.31.25l-6.74-.35a.29.29,0,0,1-.28-.29l0-.81A.29.29,0,0,1,291,259.43Z" transform="translate(-254.88 -226.54)" fill="#e30613" stroke="#e30613" stroke-miterlimit="10" stroke-width="0.47"/><path d="M291.14,255.38l6.76.36a.27.27,0,0,1,.27.27l0,.83a.29.29,0,0,1-.3.25l-6.71-.35a.33.33,0,0,1-.32-.32l0-.79A.29.29,0,0,1,291.14,255.38Z" transform="translate(-254.88 -226.54)" fill="#e30613" stroke="#e30613" stroke-miterlimit="10" stroke-width="0.47"/><path d="M291.45,251.35l6.68.34a.33.33,0,0,1,.31.32l0,.75a.3.3,0,0,1-.34.28l-6.67-.35a.31.31,0,0,1-.31-.31l0-.75A.31.31,0,0,1,291.45,251.35Z" transform="translate(-254.88 -226.54)" fill="#e30613" stroke="#e30613" stroke-miterlimit="10" stroke-width="0.47"/><line x1="36.05" y1="28.91" x2="43.44" y2="25.23" fill="#e30613" stroke="#e30613" stroke-linecap="round" stroke-miterlimit="10" stroke-width="0.47"/><line x1="36.04" y1="30.12" x2="43.42" y2="26.42" fill="#e30613" stroke="#e30613" stroke-linecap="round" stroke-miterlimit="10" stroke-width="0.47"/><line x1="35.84" y1="33" x2="43.19" y2="29.27" fill="#e30613" stroke="#e30613" stroke-linecap="round" stroke-miterlimit="10" stroke-width="0.47"/><line x1="35.83" y1="34.13" x2="43.14" y2="30.49" fill="#e30613" stroke="#e30613" stroke-linecap="round" stroke-miterlimit="10" stroke-width="0.47"/><line x1="35.82" y1="37" x2="43.01" y2="33.32" fill="#e30613" stroke="#e30613" stroke-linecap="round" stroke-miterlimit="10" stroke-width="0.47"/><line x1="35.75" y1="38.21" x2="42.98" y2="34.52" fill="#e30613" stroke="#e30613" stroke-linecap="round" stroke-miterlimit="10" stroke-width="0.47"/><line x1="35.5" y1="41.06" x2="42.94" y2="37.4" fill="#e30613" stroke="#e30613" stroke-linecap="round" stroke-miterlimit="10" stroke-width="0.47"/><line x1="35.49" y1="42.26" x2="42.84" y2="38.58" fill="#e30613" stroke="#e30613" stroke-linecap="round" stroke-miterlimit="10" stroke-width="0.47"/><line x1="35.43" y1="45.1" x2="42.65" y2="41.41" fill="#e30613" stroke="#e30613" stroke-linecap="round" stroke-miterlimit="10" stroke-width="0.47"/><line x1="35.4" y1="46.31" x2="42.57" y2="42.64" fill="#e30613" stroke="#e30613" stroke-linecap="round" stroke-miterlimit="10" stroke-width="0.47"/><path d="M298.45,253.21" transform="translate(-254.88 -226.54)" fill="#e30613" stroke="#e30613" stroke-miterlimit="10" stroke-width="0.47"/><path d="M290.12,280.08l6.65.35a1.25,1.25,0,0,1,1.24,1.23l-.13,2.87a1.23,1.23,0,0,1-1.34,1.11l-6.65-.35a1.26,1.26,0,0,1-1.24-1.24l.13-2.87A1.23,1.23,0,0,1,290.12,280.08Z" transform="translate(-254.88 -226.54)" fill="#e30613" stroke="#e30613" stroke-miterlimit="10" stroke-width="0.47"/></g><g id="CHID_DENT_Post_A_2"><path d="M267.76,280.28l10.16-1.82a.64.64,0,0,1,.78.45l.43,2.26a.64.64,0,0,1-.57.69l-10.15,1.82a.65.65,0,0,1-.79-.45l-.43-2.26A.64.64,0,0,1,267.76,280.28Z" transform="translate(-254.88 -226.54)" fill="#e30613" stroke="#e30613" stroke-miterlimit="10" stroke-width="0.47"/><path d="M267.2,252.66l1.28-.23a1.15,1.15,0,0,1,1.4.79l4.78,25.35a1.12,1.12,0,0,1-1,1.22l-1.28.23a1.15,1.15,0,0,1-1.4-.79l-4.79-25.35A1.13,1.13,0,0,1,267.2,252.66Z" transform="translate(-254.88 -226.54)" fill="#e30613" stroke="#e30613" stroke-miterlimit="10" stroke-width="0.47"/><path d="M268.43,274.57l6.95-1.25a.33.33,0,0,1,.39.22l.14.73a.32.32,0,0,1-.29.34l-6.94,1.25a.33.33,0,0,1-.39-.22l-.14-.73A.31.31,0,0,1,268.43,274.57Z" transform="translate(-254.88 -226.54)" fill="#e30613" stroke="#e30613" stroke-miterlimit="10" stroke-width="0.47"/><path d="M267.59,270.72l7-1.25a.3.3,0,0,1,.37.21l.14.76a.29.29,0,0,1-.26.32l-7,1.25a.31.31,0,0,1-.37-.2l-.14-.77A.3.3,0,0,1,267.59,270.72Z" transform="translate(-254.88 -226.54)" fill="#e30613" stroke="#e30613" stroke-miterlimit="10" stroke-width="0.47"/><path d="M267,266.84l6.94-1.24a.32.32,0,0,1,.39.22l.14.72a.32.32,0,0,1-.29.35l-6.94,1.24a.33.33,0,0,1-.39-.23l-.14-.71A.32.32,0,0,1,267,266.84Z" transform="translate(-254.88 -226.54)" fill="#e30613" stroke="#e30613" stroke-miterlimit="10" stroke-width="0.47"/><path d="M266.13,263l7-1.25a.3.3,0,0,1,.36.2l.14.77a.28.28,0,0,1-.26.31l-7,1.26a.28.28,0,0,1-.35-.2l-.15-.78A.28.28,0,0,1,266.13,263Z" transform="translate(-254.88 -226.54)" fill="#e30613" stroke="#e30613" stroke-miterlimit="10" stroke-width="0.47"/><path d="M265.39,259.14l7-1.26a.28.28,0,0,1,.34.2l.15.78a.28.28,0,0,1-.25.31l-7,1.25a.34.34,0,0,1-.4-.23l-.14-.75A.27.27,0,0,1,265.39,259.14Z" transform="translate(-254.88 -226.54)" fill="#e30613" stroke="#e30613" stroke-miterlimit="10" stroke-width="0.47"/><path d="M264.79,255.25l6.94-1.24a.33.33,0,0,1,.39.22l.14.72a.32.32,0,0,1-.29.35L265,256.54a.33.33,0,0,1-.39-.22l-.14-.72A.32.32,0,0,1,264.79,255.25Z" transform="translate(-254.88 -226.54)" fill="#e30613" stroke="#e30613" stroke-miterlimit="10" stroke-width="0.47"/><line x1="10.31" y1="32.71" x2="17.07" y2="27.5" fill="#e30613" stroke="#e30613" stroke-linecap="round" stroke-miterlimit="10" stroke-width="0.47"/><line x1="10.57" y1="33.85" x2="17.32" y2="28.62" fill="#e30613" stroke="#e30613" stroke-linecap="round" stroke-miterlimit="10" stroke-width="0.47"/><line x1="11.02" y1="36.62" x2="17.72" y2="31.37" fill="#e30613" stroke="#e30613" stroke-linecap="round" stroke-miterlimit="10" stroke-width="0.47"/><line x1="11.26" y1="37.69" x2="17.95" y2="32.53" fill="#e30613" stroke="#e30613" stroke-linecap="round" stroke-miterlimit="10" stroke-width="0.47"/><line x1="11.89" y1="40.41" x2="18.45" y2="35.23" fill="#e30613" stroke="#e30613" stroke-linecap="round" stroke-miterlimit="10" stroke-width="0.47"/><line x1="12.1" y1="41.56" x2="18.7" y2="36.37" fill="#e30613" stroke="#e30613" stroke-linecap="round" stroke-miterlimit="10" stroke-width="0.47"/><line x1="12.49" y1="44.32" x2="19.3" y2="39.11" fill="#e30613" stroke="#e30613" stroke-linecap="round" stroke-miterlimit="10" stroke-width="0.47"/><line x1="12.75" y1="45.45" x2="19.47" y2="40.25" fill="#e30613" stroke="#e30613" stroke-linecap="round" stroke-miterlimit="10" stroke-width="0.47"/><line x1="13.33" y1="48.15" x2="19.91" y2="42.96" fill="#e30613" stroke="#e30613" stroke-linecap="round" stroke-miterlimit="10" stroke-width="0.47"/><line x1="13.57" y1="49.29" x2="20.11" y2="44.14" fill="#e30613" stroke="#e30613" stroke-linecap="round" stroke-miterlimit="10" stroke-width="0.47"/><path d="M272.41,255.36" transform="translate(-254.88 -226.54)" fill="#e30613" stroke="#e30613" stroke-miterlimit="10" stroke-width="0.47"/><path d="M269.92,282.7l6.92-1.24a1.27,1.27,0,0,1,1.54.88l.52,2.74a1.25,1.25,0,0,1-1.12,1.36l-6.92,1.24a1.28,1.28,0,0,1-1.55-.88l-.51-2.74A1.24,1.24,0,0,1,269.92,282.7Z" transform="translate(-254.88 -226.54)" fill="#e30613" stroke="#e30613" stroke-miterlimit="10" stroke-width="0.47"/></g><g id="CHID_DENT_Post_A_3"><path d="M278.28,279.67l8.31-.84a.59.59,0,0,1,.59.62l.15,2.65a.67.67,0,0,1-.52.73l-8.32.83a.58.58,0,0,1-.59-.61l-.15-2.65A.67.67,0,0,1,278.28,279.67Z" transform="translate(-254.88 -226.54)" fill="#e30613" stroke="#e30613" stroke-miterlimit="10" stroke-width="0.47"/><path d="M280.27,247.81l1.05-.11a1.05,1.05,0,0,1,1.05,1.09l1.6,29.76a1.18,1.18,0,0,1-.92,1.29l-1.05.1a1,1,0,0,1-1.06-1.08l-1.6-29.77A1.17,1.17,0,0,1,280.27,247.81Z" transform="translate(-254.88 -226.54)" fill="#e30613" stroke="#e30613" stroke-miterlimit="10" stroke-width="0.47"/><path d="M279.32,273.18l5.69-.57a.29.29,0,0,1,.29.3l.05.85a.34.34,0,0,1-.26.36l-5.69.57a.29.29,0,0,1-.29-.3l-.05-.85A.32.32,0,0,1,279.32,273.18Z" transform="translate(-254.88 -226.54)" fill="#e30613" stroke="#e30613" stroke-miterlimit="10" stroke-width="0.47"/><path d="M279,268.65l5.72-.57c.14,0,.26.11.27.28l0,.89a.31.31,0,0,1-.24.34l-5.72.57a.27.27,0,0,1-.28-.28l0-.89A.31.31,0,0,1,279,268.65Z" transform="translate(-254.88 -226.54)" fill="#e30613" stroke="#e30613" stroke-miterlimit="10" stroke-width="0.47"/><path d="M278.84,264.11l5.68-.58a.3.3,0,0,1,.29.31l.05.84a.34.34,0,0,1-.26.37l-5.68.57a.3.3,0,0,1-.3-.31l0-.84A.31.31,0,0,1,278.84,264.11Z" transform="translate(-254.88 -226.54)" fill="#e30613" stroke="#e30613" stroke-miterlimit="10" stroke-width="0.47"/><path d="M278.49,259.58l5.74-.58a.27.27,0,0,1,.27.28l0,.91a.29.29,0,0,1-.23.32l-5.74.58a.27.27,0,0,1-.26-.28l-.05-.9A.29.29,0,0,1,278.49,259.58Z" transform="translate(-254.88 -226.54)" fill="#e30613" stroke="#e30613" stroke-miterlimit="10" stroke-width="0.47"/><path d="M278.24,255l5.75-.58a.26.26,0,0,1,.26.27l.05.93a.29.29,0,0,1-.23.32l-5.71.57a.3.3,0,0,1-.3-.31l-.05-.88A.3.3,0,0,1,278.24,255Z" transform="translate(-254.88 -226.54)" fill="#e30613" stroke="#e30613" stroke-miterlimit="10" stroke-width="0.47"/><path d="M278.1,250.5l5.69-.58a.29.29,0,0,1,.29.31l.05.84a.34.34,0,0,1-.26.37l-5.68.57a.3.3,0,0,1-.3-.31l-.05-.84A.32.32,0,0,1,278.1,250.5Z" transform="translate(-254.88 -226.54)" fill="#e30613" stroke="#e30613" stroke-miterlimit="10" stroke-width="0.47"/><line x1="23.19" y1="28.61" x2="29.08" y2="23.44" fill="#e30613" stroke="#e30613" stroke-linecap="round" stroke-miterlimit="10" stroke-width="0.47"/><line x1="23.29" y1="29.95" x2="29.18" y2="24.77" fill="#e30613" stroke="#e30613" stroke-linecap="round" stroke-miterlimit="10" stroke-width="0.47"/><line x1="23.41" y1="33.19" x2="29.26" y2="27.98" fill="#e30613" stroke="#e30613" stroke-linecap="round" stroke-miterlimit="10" stroke-width="0.47"/><line x1="23.51" y1="34.46" x2="29.34" y2="29.34" fill="#e30613" stroke="#e30613" stroke-linecap="round" stroke-miterlimit="10" stroke-width="0.47"/><line x1="23.78" y1="37.66" x2="29.51" y2="32.52" fill="#e30613" stroke="#e30613" stroke-linecap="round" stroke-miterlimit="10" stroke-width="0.47"/><line x1="23.85" y1="39.01" x2="29.6" y2="33.86" fill="#e30613" stroke="#e30613" stroke-linecap="round" stroke-miterlimit="10" stroke-width="0.47"/><line x1="23.92" y1="42.24" x2="29.84" y2="37.09" fill="#e30613" stroke="#e30613" stroke-linecap="round" stroke-miterlimit="10" stroke-width="0.47"/><line x1="24.02" y1="43.57" x2="29.88" y2="38.42" fill="#e30613" stroke="#e30613" stroke-linecap="round" stroke-miterlimit="10" stroke-width="0.47"/><line x1="24.25" y1="46.75" x2="29.99" y2="41.59" fill="#e30613" stroke="#e30613" stroke-linecap="round" stroke-miterlimit="10" stroke-width="0.47"/><line x1="24.34" y1="48.1" x2="30.05" y2="42.98" fill="#e30613" stroke="#e30613" stroke-linecap="round" stroke-miterlimit="10" stroke-width="0.47"/><path d="M284.21,251.56" transform="translate(-254.88 -226.54)" fill="#e30613" stroke="#e30613" stroke-miterlimit="10" stroke-width="0.47"/><path d="M279.79,282.73l5.67-.57a1.14,1.14,0,0,1,1.16,1.2l.18,3.22a1.3,1.3,0,0,1-1,1.42l-5.66.57a1.16,1.16,0,0,1-1.17-1.2l-.17-3.22A1.29,1.29,0,0,1,279.79,282.73Z" transform="translate(-254.88 -226.54)" fill="#e30613" stroke="#e30613" stroke-miterlimit="10" stroke-width="0.47"/></g></g><g id="CHID_DENT_Periodental_A"><path id="CHID_DENT_Left_Periodental_A" d="M262.11,279.32c.09-.28-.37-.41-.75-1.06s-.33-1.14-.21-2.48c.19-2.1.24-2.08.32-3.19a14,14,0,0,1,.21-2.66c.26-1,.57-1.27.32-1.59-.44-.6-2.33-.65-3.32.09-.49.36-.63.82-.75,3.27-.16,3.29.05,3.13-.11,4.79-.18,1.94-.5,2.43,0,2.92C258.86,280.42,261.9,280,262.11,279.32Z" transform="translate(-254.88 -226.54)" fill="#e30613" stroke="#e30613" stroke-miterlimit="10" stroke-width="0.47"/><path id="CHID_DENT_Right_Periodental_A" d="M303.9,276.75c-.11-.23.46-.44.75-1.24a2.75,2.75,0,0,0,.11-1.33,8.64,8.64,0,0,0-.64-2.21c-.61-1.72-.49-1.5-.65-1.86-.61-1.44-1.05-1.68-.85-2.13a2.27,2.27,0,0,1,2.46-.79c.79.24,1.08,1,1.61,2.39a19.17,19.17,0,0,1,.74,2.94c.64,2.86.94,3.2.55,3.7C307.06,277.37,304.13,277.25,303.9,276.75Z" transform="translate(-254.88 -226.54)" fill="#e30613" stroke="#e30613" stroke-miterlimit="10" stroke-width="0.47"/></g><g id="CHID_DENT_Implant_A"><path d="M270.83,271.52l25.83,0c1,0,1.73.43,1.71,1l-.08,3.77c0,.53-.8.95-1.76.95l-25.83,0c-1,0-1.72-.43-1.71-1l.08-3.77C269.09,271.94,269.87,271.52,270.83,271.52Z" transform="translate(-254.88 -226.54)" fill="#e30613" stroke="#e30613" stroke-miterlimit="10" stroke-width="0.47"/><path d="M283.31,226.77h3.26c1.7,0,3.05.76,3,1.69l-1,42.31c0,.93-1.42,1.68-3.11,1.68h-3.26c-1.7,0-3.05-.76-3-1.69l1-42.31C280.22,227.52,281.61,226.77,283.31,226.77Z" transform="translate(-254.88 -226.54)" fill="#e30613" stroke="#e30613" stroke-miterlimit="10" stroke-width="0.47"/><path d="M275.34,262.5l17.68,0c.47,0,.85.21.84.47l0,1.21c0,.26-.39.47-.86.47l-17.68,0c-.47,0-.84-.21-.84-.47l0-1.22C274.49,262.7,274.87,262.5,275.34,262.5Z" transform="translate(-254.88 -226.54)" fill="#e30613" stroke="#e30613" stroke-miterlimit="10" stroke-width="0.47"/><path d="M275.21,256.05l17.79,0c.44,0,.79.19.78.44l0,1.27c0,.24-.36.44-.8.44l-17.79,0c-.44,0-.79-.2-.79-.44l0-1.28C274.41,256.24,274.77,256.05,275.21,256.05Z" transform="translate(-254.88 -226.54)" fill="#e30613" stroke="#e30613" stroke-miterlimit="10" stroke-width="0.47"/><path d="M275.66,249.6l17.64,0c.48,0,.87.21.86.48l0,1.19c0,.27-.4.48-.88.48l-17.64,0c-.48,0-.87-.22-.86-.48l0-1.2C274.78,249.81,275.18,249.6,275.66,249.6Z" transform="translate(-254.88 -226.54)" fill="#e30613" stroke="#e30613" stroke-miterlimit="10" stroke-width="0.47"/><path d="M275.49,243.15l17.82,0c.43,0,.78.19.77.43l0,1.29c0,.24-.36.43-.79.43l-17.82,0c-.43,0-.78-.19-.77-.43l0-1.29C274.7,243.34,275.06,243.15,275.49,243.15Z" transform="translate(-254.88 -226.54)" fill="#e30613" stroke="#e30613" stroke-miterlimit="10" stroke-width="0.47"/><path d="M275.62,236.7l17.86,0c.42,0,.75.19.75.42l0,1.31c0,.23-.35.42-.77.42l-17.74,0c-.49,0-.88-.22-.87-.48l0-1.25C274.85,236.89,275.2,236.7,275.62,236.7Z" transform="translate(-254.88 -226.54)" fill="#e30613" stroke="#e30613" stroke-miterlimit="10" stroke-width="0.47"/><path d="M276.1,230.25l17.65,0c.48,0,.86.22.85.48l0,1.2c0,.26-.4.47-.88.47l-17.65,0c-.48,0-.86-.21-.86-.47l0-1.21C275.23,230.46,275.62,230.25,276.1,230.25Z" transform="translate(-254.88 -226.54)" fill="#e30613" stroke="#e30613" stroke-miterlimit="10" stroke-width="0.47"/><line x1="20.2" y1="10.28" x2="39.4" y2="3.85" fill="#e30613" stroke="#e30613" stroke-linecap="round" stroke-miterlimit="10" stroke-width="0.47"/><line x1="20.25" y1="12.2" x2="39.46" y2="5.74" fill="#e30613" stroke="#e30613" stroke-linecap="round" stroke-miterlimit="10" stroke-width="0.47"/><line x1="19.97" y1="16.79" x2="39.07" y2="10.29" fill="#e30613" stroke="#e30613" stroke-linecap="round" stroke-miterlimit="10" stroke-width="0.47"/><line x1="20.03" y1="18.6" x2="39.05" y2="12.23" fill="#e30613" stroke="#e30613" stroke-linecap="round" stroke-miterlimit="10" stroke-width="0.47"/><line x1="20.23" y1="23.17" x2="38.91" y2="16.74" fill="#e30613" stroke="#e30613" stroke-linecap="round" stroke-miterlimit="10" stroke-width="0.47"/><line x1="20.16" y1="25.09" x2="38.95" y2="18.65" fill="#e30613" stroke="#e30613" stroke-linecap="round" stroke-miterlimit="10" stroke-width="0.47"/><line x1="19.73" y1="29.66" x2="39.05" y2="23.25" fill="#e30613" stroke="#e30613" stroke-linecap="round" stroke-miterlimit="10" stroke-width="0.47"/><line x1="19.78" y1="31.56" x2="38.91" y2="25.13" fill="#e30613" stroke="#e30613" stroke-linecap="round" stroke-miterlimit="10" stroke-width="0.47"/><line x1="19.87" y1="36.09" x2="38.61" y2="29.64" fill="#e30613" stroke="#e30613" stroke-linecap="round" stroke-miterlimit="10" stroke-width="0.47"/><line x1="19.87" y1="38" x2="38.51" y2="31.61" fill="#e30613" stroke="#e30613" stroke-linecap="round" stroke-miterlimit="10" stroke-width="0.47"/><path d="M294.75,232.66" transform="translate(-254.88 -226.54)" fill="#e30613" stroke="#e30613" stroke-miterlimit="10" stroke-width="0.47"/><path d="M274.91,276.06l17.6,0c1.88,0,3.38.84,3.35,1.87l-.1,4.58c0,1-1.57,1.86-3.44,1.86l-17.61,0c-1.87,0-3.37-.84-3.35-1.87l.11-4.58C271.49,276.89,273,276.06,274.91,276.06Z" transform="translate(-254.88 -226.54)" fill="#e30613" stroke="#e30613" stroke-miterlimit="10" stroke-width="0.47"/></g><g id="CHID_DENT_Periapical_A"><path id="CHID_DENT_Periapical_A_2" d="M257.93,248.54c.18-.07-.48-1.17-.82-3.21a17.13,17.13,0,0,1-.15-3.52,15.27,15.27,0,0,1,.45-3.83,12.7,12.7,0,0,1,1.79-3.58c.48-.68.92-1.17,1.57-1.23a2,2,0,0,1,1.34.43c.53.41.57.91.75,1.73.26,1.18.2.31.82,2.78.46,1.81.32,1.58.6,2.53.37,1.25.41.91,1.12,2.9.33.91.42,1.27.67,1.29.45,0,1.07-1,1.34-1.85.48-1.5,0-2.78-.89-5.24-.08-.23,0,0-1.49-3.34-.81-1.81-1.08-2.42-1.87-3a4.13,4.13,0,0,0-2.69-1c-1.73.1-2.79,1.69-3.36,2.53s-1,1.92-1.42,4.69c-.55,3.6-.81,5.43-.29,7C256.12,246.93,257.7,248.62,257.93,248.54Z" transform="translate(-254.88 -226.54)" fill="#be1622" stroke="#be1622" stroke-miterlimit="10" stroke-width="0.47"/><path id="CHID_DENT_Periapical_A_3" d="M273.69,240.27c.46,0,.94-1.48,1.86-4.39a9.44,9.44,0,0,1,2.17-3.58,1.46,1.46,0,0,1,1-.43,1.14,1.14,0,0,1,.89.43c.26.38,0,.83-.07,1.12a13.88,13.88,0,0,0-.45,3,11.51,11.51,0,0,0,0,2.53c0,.28.2.95.52,2.28s.41,1.58.67,1.67c.53.17,1.51-.39,1.95-1.11.88-1.45-1.06-2.44-1.05-4.94,0-2,1.3-2.36.9-4.2a3.74,3.74,0,0,0-2.17-2.77,4.4,4.4,0,0,0-2.84-.13,4.2,4.2,0,0,0-2.46,2.9c-.47,1.33,0,1.55-.52,2.66s-1.42,1.31-1.64,2.28C272.12,238.86,273.08,240.3,273.69,240.27Z" transform="translate(-254.88 -226.54)" fill="#be1622" stroke="#be1622" stroke-miterlimit="10" stroke-width="0.47"/><path id="CHID_DENT_Periapical_A_1" d="M292.65,240.76c.19-.07.15-.8.07-2.28,0-.81-.1-1.46-.15-2-.11-1.21-.17-1.81-.22-2-.17-.68-.36-1-.23-1.54a1.24,1.24,0,0,1,.68-.92,1.88,1.88,0,0,1,1.42.18,2.52,2.52,0,0,1,1,1c1.09,1.77.74.85,1.57,2.35a24.07,24.07,0,0,1,1.57,3.27c.65,1.72.76,2.66,1,2.65s.58-1.67.6-1.85a6.39,6.39,0,0,0-.08-2.22c-.26-1.22-.73-1.59-2-3.64-1.6-2.56-1.53-3-2.47-3.46a4.19,4.19,0,0,0-3.58.12c-.4.25-.71.6-1.49,3.77a9.91,9.91,0,0,0-.52,3C290.19,239.26,292.12,240.94,292.65,240.76Z" transform="translate(-254.88 -226.54)" fill="#be1622" stroke="#be1622" stroke-miterlimit="10" stroke-width="0.47"/></g><path id="CHID_DENT_Occlusal_Veneer_A" d="M290.31,301.81a35.83,35.83,0,0,0-13.75-.55,71.15,71.15,0,0,1-8,1.07c-4.26.32-6,0-7.47-.72a7,7,0,0,1-2.92-2.93l-.43-2.36a1.35,1.35,0,0,1,.52-1,2.06,2.06,0,0,1,1.26-.43h48.63a1.42,1.42,0,0,1,1.26.43.91.91,0,0,1,0,1.16L307.3,300a14.36,14.36,0,0,1-6.78,3.24A16.53,16.53,0,0,1,290.31,301.81Z" transform="translate(-254.88 -226.54)" fill="#e30613" stroke="#e30613" stroke-miterlimit="10" stroke-width="1.4"/><g id="CHID_DENT_Endo_Crown_A"><path id="CHID_DENT_Endo_Crown_1A" d="M289.11,287.92l-12.26.23-1.9,6c-.05.14.08.28.26.28h16c.18,0,.32-.15.26-.29Z" transform="translate(-254.88 -226.54)" fill="#e30613" stroke="#e30613" stroke-miterlimit="10" stroke-width="1.4"/><path id="CHID_DENT_Endo_Crown_2A" d="M290.34,301.67a35.79,35.79,0,0,0-13.75-.54,75.31,75.31,0,0,1-8,1.06c-4.26.32-6,0-7.47-.72a7,7,0,0,1-2.92-2.93l-.43-2.36a1.35,1.35,0,0,1,.52-1,2.06,2.06,0,0,1,1.26-.43h48.62a1.41,1.41,0,0,1,1.26.43.92.92,0,0,1,.05,1.16l-2.17,3.52a14.36,14.36,0,0,1-6.78,3.24A16.48,16.48,0,0,1,290.34,301.67Z" transform="translate(-254.88 -226.54)" fill="#e30613" stroke="#e30613" stroke-miterlimit="10" stroke-width="1.4"/></g></g></svg>