<svg id="CHID_DENT_all" xmlns="http://www.w3.org/2000/svg" viewBox="0 0 57.95 113.65"><g id="CHID_DENT_E_all"><text transform="translate(20.52 99.13) scale(1.77 1)" font-size="26.5" fill="#1d1d1b" font-family="AdobeArabic-Regular, Adobe Arabic">F</text><g id="CHID_DENT_F"><path id="CHID_DENT_ROOT_F" d="M298,229.6c-3.4-.7-12,8.07-13.12,9.19a58.34,58.34,0,0,0-8.14,10.83c-.53.83-1.87,3-5,8.93-7.32,14-7.22,16.12-5.2,17.09,1.53.74,3,.24,7.92.13,15.32-.35,22.8,4,26.69,2,.56-.29,1.42-.9.23-7.78-.82-4.7-1.77-7.57-2.49-10.71a58.82,58.82,0,0,1-1.36-10.46C296.8,236.33,300.75,230.18,298,229.6Z" transform="translate(-254.64 -226.51)" fill="none" stroke="#1d1d1b" stroke-miterlimit="10" stroke-width="1.56"/><path id="CHID_DENT_CROWN_F" d="M265.18,276.91c-2.74,1-3.91,2.57-5.66,4.85-1.9,2.49-2.36,4.44-3.16,8a48.6,48.6,0,0,0-.91,10.08c-.17,6.24.3,7.12,1.6,7.79,2,1,5.42.94,12.2.75,6.42-.18,6.61-.69,10.64-.51,5.45.24,5.81,1.21,10.85,1.28,1.19,0,1.54,0,9.73-.9,7.91-.83,8.53-.88,9.39-1.3,2-1,2.26-2.46,1.7-8-.68-6.67-1.05-10.08-3-13.06-2-3.18-3.28-5.12-6.77-6.7-2.56-1.16-4.4-1.25-19-2.3C270.64,276,268.06,275.82,265.18,276.91Z" transform="translate(-254.64 -226.51)" fill="none" stroke="#1d1d1b" stroke-miterlimit="10" stroke-width="1.56"/></g><path id="CHID_DENT_fiiling_caries_class_IV_Mesial_F" d="M274.71,307.61l-12.55.29a7.71,7.71,0,0,1-3.75-.47,2.73,2.73,0,0,1-1.66-1.56v-7.95a37.39,37.39,0,0,1,.16-4.28c.25-2.73.49-2,.47-3.22,0-.7-.11-1.12.37-1.53.85-.73,2.78-.83,4-.83h10.59c2.78,0,5,1.27,5,2.84v15a2.8,2.8,0,0,1-1.39,1.29A5.73,5.73,0,0,1,274.71,307.61Z" transform="translate(-254.64 -226.51)" fill="#be1622" stroke="#be1622" stroke-miterlimit="10" stroke-width="0.52" opacity="0.79"/><path id="CHID_DENT_filling_caries_Class_IV_Distal_F" d="M308.54,287.87c-1-.52-2-.3-7.93-.18-6.86.15-7.18-.1-8.08.26-2.88,1.18-.37,4-.08,10.39.22,4.77-.88,9.62,1.25,9.94a11.34,11.34,0,0,0,1.86-.09c1.21-.09,1.52-.19,3.19-.39,1.07-.13,1.92-.2,2.56-.26,1.46-.13,1.54-.11,2.65-.22,1.34-.14,1.21-.17,2.56-.31a10.09,10.09,0,0,0,2.41-.31,2.63,2.63,0,0,0,1.32-1.05,2.68,2.68,0,0,0,.54-1.66,19.4,19.4,0,0,0-.15-3.29c-.19-1.53-.21-1.46-.31-2.41-.13-1.16-.12-1.45-.23-2.62-.09-.82-.16-1.36-.32-2.5C309.14,288.41,309.11,288.16,308.54,287.87Z" transform="translate(-254.64 -226.51)" fill="#be1622" stroke="#be1622" stroke-miterlimit="10" stroke-width="0.52" opacity="0.79"/><rect id="CHID_DENT_filling_caries_Class_V_F" x="17.34" y="56.79" width="17.13" height="2.7" rx="0.87" fill="#be1622" stroke="#be1622" stroke-miterlimit="10" stroke-width="0.52" opacity="0.79"/><path id="CHID_DENT_filling_caries_Class_III_Mesial_F" d="M310,296.4l-7.1.65c-1.92,0-3.48-.88-3.48-2V294c0-1.08,1.56-2,3.48-2l6.85.78h0l-.09,1.18v1.14C309.74,295.52,309.86,296,310,296.4Z" transform="translate(-254.64 -226.51)" fill="#be1622" stroke="#be1622" stroke-miterlimit="10" stroke-width="0.52" opacity="0.79"/><path id="CHID_DENT_filling_caries_Class_III_Distal_F" d="M263.58,297.05l-6.71-.8h0l.38-3.22h0l6.33-1c1.93,0,3.48.88,3.48,2v1.14C267.06,296.17,265.51,297.05,263.58,297.05Z" transform="translate(-254.64 -226.51)" fill="#be1622" stroke="#be1622" stroke-miterlimit="10" stroke-width="0.52" opacity="0.79"/><path id="CHID_DENT_EndoF" d="M274.64,275.05a50.16,50.16,0,0,0,7.4.93c3.32.21,6.39.41,8.15,0,5.77-1.43,2.35-10.93,1.88-21.3-.64-13.93,4.43-20.22,2.41-20.54C289.52,233.3,265.59,272.21,274.64,275.05Z" transform="translate(-254.64 -226.51)" fill="#be1622" stroke="#e30613" stroke-miterlimit="10" stroke-width="0.52"/><g id="CHID_DENT_Post_F"><path d="M274.44,276.61l17.22.91c.64,0,1.1.34,1,.67l-.45,2.43c-.06.34-.63.59-1.27.56l-17.22-.91c-.63,0-1.1-.34-1-.67l.45-2.43C273.23,276.83,273.8,276.58,274.44,276.61Z" transform="translate(-254.64 -226.51)" fill="#e30613" stroke="#e30613" stroke-miterlimit="10" stroke-width="0.52"/><path d="M287.39,248.19l2.17.12c1.13.06,2,.59,1.85,1.19l-5,27.24c-.11.6-1.11,1-2.24,1L282,277.6c-1.13-.06-1.95-.59-1.84-1.19l5-27.24C285.26,248.57,286.26,248.13,287.39,248.19Z" transform="translate(-254.64 -226.51)" fill="#e30613" stroke="#e30613" stroke-miterlimit="10" stroke-width="0.52"/><path d="M278.38,271l11.79.62c.31,0,.54.17.51.33l-.15.79c0,.16-.31.28-.62.27l-11.78-.62c-.32,0-.55-.17-.52-.34l.15-.78C277.79,271.06,278.07,270.94,278.38,271Z" transform="translate(-254.64 -226.51)" fill="#e30613" stroke="#e30613" stroke-miterlimit="10" stroke-width="0.52"/><path d="M279,266.79l11.86.62c.29,0,.5.16.48.31l-.16.82c0,.16-.29.27-.58.26l-11.86-.63c-.29,0-.5-.15-.47-.31l.15-.82C278.41,266.89,278.67,266.77,279,266.79Z" transform="translate(-254.64 -226.51)" fill="#e30613" stroke="#e30613" stroke-miterlimit="10" stroke-width="0.52"/><path d="M279.92,262.65l11.77.62c.32,0,.55.16.52.33l-.14.77c0,.17-.32.3-.64.28L279.67,264c-.32,0-.55-.17-.52-.34l.14-.77C279.32,262.75,279.61,262.63,279.92,262.65Z" transform="translate(-254.64 -226.51)" fill="#e30613" stroke="#e30613" stroke-miterlimit="10" stroke-width="0.52"/><path d="M280.48,258.48l11.88.63c.29,0,.5.15.47.3l-.15.83c0,.16-.29.27-.58.25l-11.87-.62c-.29,0-.5-.15-.47-.31l.15-.83C279.94,258.58,280.2,258.47,280.48,258.48Z" transform="translate(-254.64 -226.51)" fill="#e30613" stroke="#e30613" stroke-miterlimit="10" stroke-width="0.52"/><path d="M281.24,254.33l11.9.63c.28,0,.48.15.46.29l-.16.85c0,.15-.28.26-.56.24l-11.82-.62c-.33,0-.56-.17-.53-.34l.15-.81C280.71,254.42,281,254.32,281.24,254.33Z" transform="translate(-254.64 -226.51)" fill="#e30613" stroke="#e30613" stroke-miterlimit="10" stroke-width="0.52"/><path d="M282.22,250.19l11.77.62c.32,0,.55.17.52.33l-.14.78c0,.17-.32.29-.63.27L282,251.57c-.32,0-.55-.16-.52-.33l.14-.78C281.62,250.3,281.9,250.17,282.22,250.19Z" transform="translate(-254.64 -226.51)" fill="#e30613" stroke="#e30613" stroke-miterlimit="10" stroke-width="0.52"/><line x1="26.23" y1="27.88" x2="39.7" y2="24.39" fill="#e30613" stroke="#e30613" stroke-linecap="round" stroke-miterlimit="10" stroke-width="0.52"/><line x1="26.06" y1="29.12" x2="39.54" y2="25.61" fill="#e30613" stroke="#e30613" stroke-linecap="round" stroke-miterlimit="10" stroke-width="0.52"/><line x1="25.4" y1="32.07" x2="38.81" y2="28.52" fill="#e30613" stroke="#e30613" stroke-linecap="round" stroke-miterlimit="10" stroke-width="0.52"/><line x1="25.26" y1="33.24" x2="38.59" y2="29.78" fill="#e30613" stroke="#e30613" stroke-linecap="round" stroke-miterlimit="10" stroke-width="0.52"/><line x1="24.91" y1="36.19" x2="38.04" y2="32.68" fill="#e30613" stroke="#e30613" stroke-linecap="round" stroke-miterlimit="10" stroke-width="0.52"/><line x1="24.67" y1="37.42" x2="37.86" y2="33.91" fill="#e30613" stroke="#e30613" stroke-linecap="round" stroke-miterlimit="10" stroke-width="0.52"/><line x1="23.91" y1="40.35" x2="37.46" y2="36.88" fill="#e30613" stroke="#e30613" stroke-linecap="round" stroke-miterlimit="10" stroke-width="0.52"/><line x1="23.75" y1="41.58" x2="37.16" y2="38.09" fill="#e30613" stroke="#e30613" stroke-linecap="round" stroke-miterlimit="10" stroke-width="0.52"/><line x1="23.34" y1="44.5" x2="36.5" y2="40.99" fill="#e30613" stroke="#e30613" stroke-linecap="round" stroke-miterlimit="10" stroke-width="0.52"/><line x1="23.14" y1="45.74" x2="36.23" y2="42.25" fill="#e30613" stroke="#e30613" stroke-linecap="round" stroke-miterlimit="10" stroke-width="0.52"/><path d="M294.41,252.38" transform="translate(-254.64 -226.51)" fill="#e30613" stroke="#e30613" stroke-miterlimit="10" stroke-width="0.52"/><path d="M276.69,279.68l11.73.62c1.25.06,2.17.66,2,1.32l-.54,2.95c-.12.66-1.24,1.14-2.49,1.08L275.7,285c-1.25-.07-2.16-.66-2-1.32l.54-2.95C274.32,280.1,275.44,279.62,276.69,279.68Z" transform="translate(-254.64 -226.51)" fill="#e30613" stroke="#e30613" stroke-miterlimit="10" stroke-width="0.52"/></g><g id="CHID_DENT_Periodental_F"><path id="CHID_DENT_Left_Periodental_F" d="M258.22,281.91c.64-.05.4-1,1.88-2.52a9.9,9.9,0,0,1,2.74-2c1.46-.75,2.48-.9,2.59-1.47s-.56-.67-1-1.3c-.64-.89-.21-1.74.15-2.52,1.36-3-.65-.05,2-5.53,1.56-3.2,1.59-2.86,2.74-5.29,1.7-3.57,1.37-3.78,2.6-5.61,1.57-2.34,2.91-3.22,2.31-3.58-.9-.53-5.55.42-8.52,2.36-3.36,2.2-2,4-4.47,9.93a67.46,67.46,0,0,1-3.46,6.75c-1.88,3.26-3.21,5-2.46,7.48C255.88,280.36,257.37,282,258.22,281.91Z" transform="translate(-254.64 -226.51)" fill="#e30613" stroke="#e30613" stroke-miterlimit="10" stroke-width="0.52"/><path id="CHID_DENT_Right_Periodental_F" d="M309.3,284.76c-.42,0-.56-.6-2.6-2.93s-2.59-2.54-3.17-2.76c-.84-.32-1.87-.52-1.88-.9s.57-.36,1-.73c.72-.59.33-1.28.15-2.11-.24-1.09.15-1.08.14-2.69,0-1.13-.2-1.7-.86-4.23-.57-2.15-.85-3.22-1-4-.71-3.33-.2-3.14-.87-5.53-.38-1.38-.53-2.78-1-4.15-.31-.87-.58-1.47-.14-1.63.71-.26,2.92.84,4.18,1.71,2.64,1.82,2.82,3.85,3.17,7.48.53,5.4.8,8.12,1,8.79,1.16,3.63,2.53,4,3,7.4C310.93,281.68,310.21,284.72,309.3,284.76Z" transform="translate(-254.64 -226.51)" fill="#e30613" stroke="#e30613" stroke-miterlimit="10" stroke-width="0.52"/></g><g id="CHID_DENT_Implant_F"><path d="M266.25,271.61l30.06,0c1.11,0,2,.4,2,.88l-.1,3.47c0,.48-.93.87-2.05.87l-30,0c-1.11,0-2-.4-2-.88l.1-3.46C264.23,272,265.14,271.61,266.25,271.61Z" transform="translate(-254.64 -226.51)" fill="#e30613" stroke="#e30613" stroke-miterlimit="10" stroke-width="0.52"/><path d="M280.77,230.53h3.8c2,0,3.54.7,3.52,1.55L287,270.93c0,.86-1.65,1.55-3.62,1.55h-3.79c-2,0-3.55-.7-3.53-1.55l1.14-38.84C277.18,231.22,278.8,230.53,280.77,230.53Z" transform="translate(-254.64 -226.51)" fill="#e30613" stroke="#e30613" stroke-miterlimit="10" stroke-width="0.52"/><path d="M271.5,263.33l20.57,0c.55,0,1,.19,1,.43l0,1.12c0,.23-.45.42-1,.42l-20.56,0c-.55,0-1-.2-1-.43l0-1.12C270.51,263.52,271,263.33,271.5,263.33Z" transform="translate(-254.64 -226.51)" fill="#e30613" stroke="#e30613" stroke-miterlimit="10" stroke-width="0.52"/><path d="M271.35,257.41l20.69,0c.51,0,.92.18.92.4l0,1.17c0,.22-.43.4-.94.4l-20.69,0c-.51,0-.92-.18-.92-.4l0-1.17C270.41,257.59,270.83,257.41,271.35,257.41Z" transform="translate(-254.64 -226.51)" fill="#e30613" stroke="#e30613" stroke-miterlimit="10" stroke-width="0.52"/><path d="M271.87,251.49l20.53,0c.55,0,1,.2,1,.44l0,1.1c0,.24-.46.43-1,.43l-20.53,0c-.56,0-1-.2-1-.44l0-1.1C270.85,251.69,271.31,251.49,271.87,251.49Z" transform="translate(-254.64 -226.51)" fill="#e30613" stroke="#e30613" stroke-miterlimit="10" stroke-width="0.52"/><path d="M271.68,245.57l20.72,0c.5,0,.91.18.9.39l0,1.19c0,.22-.42.39-.93.39l-20.72,0c-.5,0-.91-.17-.9-.39l0-1.19C270.76,245.75,271.17,245.57,271.68,245.57Z" transform="translate(-254.64 -226.51)" fill="#e30613" stroke="#e30613" stroke-miterlimit="10" stroke-width="0.52"/><path d="M271.82,239.65l20.78,0c.49,0,.88.17.87.38l0,1.21c0,.21-.41.38-.9.38l-20.64,0c-.56,0-1-.2-1-.44l0-1.15C270.93,239.82,271.33,239.65,271.82,239.65Z" transform="translate(-254.64 -226.51)" fill="#e30613" stroke="#e30613" stroke-miterlimit="10" stroke-width="0.52"/><path d="M272.38,233.73l20.54,0c.55,0,1,.19,1,.43l0,1.11c0,.24-.46.43-1,.43l-20.54,0c-.55,0-1-.19-1-.43l0-1.11C271.37,233.92,271.82,233.73,272.38,233.73Z" transform="translate(-254.64 -226.51)" fill="#e30613" stroke="#e30613" stroke-miterlimit="10" stroke-width="0.52"/><line x1="16.56" y1="13.25" x2="38.91" y2="7.34" fill="#e30613" stroke="#e30613" stroke-linecap="round" stroke-miterlimit="10" stroke-width="0.52"/><line x1="16.62" y1="15.01" x2="38.97" y2="9.08" fill="#e30613" stroke="#e30613" stroke-linecap="round" stroke-miterlimit="10" stroke-width="0.52"/><line x1="16.3" y1="19.23" x2="38.51" y2="13.25" fill="#e30613" stroke="#e30613" stroke-linecap="round" stroke-miterlimit="10" stroke-width="0.52"/><line x1="16.37" y1="20.89" x2="38.49" y2="15.04" fill="#e30613" stroke="#e30613" stroke-linecap="round" stroke-miterlimit="10" stroke-width="0.52"/><line x1="16.59" y1="25.08" x2="38.34" y2="19.18" fill="#e30613" stroke="#e30613" stroke-linecap="round" stroke-miterlimit="10" stroke-width="0.52"/><line x1="16.51" y1="26.84" x2="38.37" y2="20.93" fill="#e30613" stroke="#e30613" stroke-linecap="round" stroke-miterlimit="10" stroke-width="0.52"/><line x1="16.01" y1="31.03" x2="38.5" y2="25.15" fill="#e30613" stroke="#e30613" stroke-linecap="round" stroke-miterlimit="10" stroke-width="0.52"/><line x1="16.08" y1="32.78" x2="38.33" y2="26.88" fill="#e30613" stroke="#e30613" stroke-linecap="round" stroke-miterlimit="10" stroke-width="0.52"/><line x1="16.18" y1="36.94" x2="37.99" y2="31.02" fill="#e30613" stroke="#e30613" stroke-linecap="round" stroke-miterlimit="10" stroke-width="0.52"/><line x1="16.18" y1="38.7" x2="37.87" y2="32.83" fill="#e30613" stroke="#e30613" stroke-linecap="round" stroke-miterlimit="10" stroke-width="0.52"/><path d="M294.07,235.94" transform="translate(-254.64 -226.51)" fill="#e30613" stroke="#e30613" stroke-miterlimit="10" stroke-width="0.52"/><path d="M271,275.78l20.49,0c2.18,0,3.92.77,3.89,1.72l-.12,4.2c0,.95-1.82,1.71-4,1.71l-20.48,0c-2.18,0-3.92-.77-3.9-1.72l.13-4.2C267,276.55,268.81,275.78,271,275.78Z" transform="translate(-254.64 -226.51)" fill="#e30613" stroke="#e30613" stroke-miterlimit="10" stroke-width="0.52"/></g><path id="CHID_DENT_Periapical_F" d="M280.2,242.54c.58.1,1.8-1.94,5.63-5.78,2.25-2.26,1.43-1.15,4.33-3.91a17.59,17.59,0,0,1,4.92-3.34,5.45,5.45,0,0,1,2.82-.63,3.39,3.39,0,0,1,1.91.8,1.41,1.41,0,0,1,.4,1.47c-.43,1.63-.4,3.3-.81,4.93-.48,1.91,0,1.45-.6,5.89-.3,2.26-.51,3-.3,3,.43.05,2.16-3,3.12-6.12a32.26,32.26,0,0,0,.8-6.18c.15-1.78.17-2.92-1-4.14a5.33,5.33,0,0,0-3.41-1.75c-.6-.06-1.88-.07-5.23,1.64a33.73,33.73,0,0,0-6.54,4.42,31.49,31.49,0,0,0-3.54,3.61,12.34,12.34,0,0,0-1.88,2.74C280.18,240.52,279.66,242.44,280.2,242.54Z" transform="translate(-254.64 -226.51)" fill="#be1622" stroke="#be1622" stroke-miterlimit="10" stroke-width="0.52"/><g id="CHID_DENT_Occlusal_Veneer_F"><path id="CHID_DENT_Occlusal_Veneer_F_2" d="M266.07,307.73l-5.26,0a4.23,4.23,0,0,1-3.16-.88,1.14,1.14,0,0,1-.31-1.16q-.36-2.87-.7-5.73c0-.72,1-1.31,2.2-1.31h14.23c1.22,0,2.2.59,2.2,1.31v6.22a1.14,1.14,0,0,1-.41.7,5.33,5.33,0,0,1-2.91.71C270.53,307.73,268.55,307.8,266.07,307.73Z" transform="translate(-254.64 -226.51)" fill="#e30613" stroke="#e30613" stroke-miterlimit="10" stroke-width="1.56"/><path id="CHID_DENT_Occlusal_Veneer_F_1" d="M296.49,307.85l9.92-.88a5.9,5.9,0,0,0,2.21-.76,2.34,2.34,0,0,0,1-1.17c.19-1.65.37-3.3.56-5,0-.77-1.1-1.39-2.46-1.39H296.49c-1.36,0-2.46.62-2.46,1.39v6.36C294,307.22,295.13,307.85,296.49,307.85Z" transform="translate(-254.64 -226.51)" fill="#e30613" stroke="#e30613" stroke-miterlimit="10" stroke-width="1.56"/></g><g id="CHID_DENT_Endo_Crown_F"><path id="CHID_DENT_Endo_Crown_F_2" d="M266.1,307.6l-5.25,0a4.26,4.26,0,0,1-3.17-.88,1.19,1.19,0,0,1-.31-1.16q-.35-2.87-.7-5.72c0-.73,1-1.32,2.2-1.32h14.24c1.21,0,2.19.59,2.19,1.32v6.21a1.14,1.14,0,0,1-.41.7,5.22,5.22,0,0,1-2.91.71C270.57,307.6,268.58,307.67,266.1,307.6Z" transform="translate(-254.64 -226.51)" fill="#e30613" stroke="#e30613" stroke-miterlimit="10" stroke-width="1.56"/><path id="CHID_DENT_Endo_Crown_F_1" d="M296.53,307.72l9.91-.88a5.93,5.93,0,0,0,2.22-.76,2.38,2.38,0,0,0,1-1.16c.18-1.65.37-3.31.55-5,0-.77-1.1-1.39-2.46-1.39H296.53c-1.36,0-2.47.62-2.47,1.39v6.37C294.06,307.1,295.17,307.72,296.53,307.72Z" transform="translate(-254.64 -226.51)" fill="#e30613" stroke="#e30613" stroke-miterlimit="10" stroke-width="1.56"/></g></g></svg>