<svg id="CHID_DENT_all" xmlns="http://www.w3.org/2000/svg" viewBox="0 0 57.57 113.6"><g id="CHID_DENT_I_all"><text transform="translate(21.76 99.09) scale(1.19 1)" font-size="26.49" fill="#1d1d1b" font-family="AdobeArabic-Regular, Adobe Arabic">I</text><g id="CHID_DENT_I"><g id="CHID_DENT_ROOT_I"><path id="CHID_DENT_ROOT_I1" d="M275.13,229.37c-1-.24-4.39,7.37-8.41,16.29-3.62,8-4.19,10-4.36,12.53-.34,4.78,1.14,5.38.74,10.74-.49,6.66-3.07,9.86-1.28,11.1s4.36-1.85,10.12-1.34c3.53.31,4.35,1.63,9.47,2.06a25.59,25.59,0,0,0,5.22,0c4.18-.47,4.79-1.7,7.77-1.88,4.46-.28,6.52,2.26,7.77,1.43,1.8-1.2-3.16-6-2.66-13.16.21-3,1.32-5.33,3-8.77,2.62-5.45,4.35-5.9,5.53-10.11a22.64,22.64,0,0,0,.54-8.42c-.25-3.1-1.08-7.79-2-7.78s-.14,5.66-4,11.9c-2.05,3.28-2.94,2.74-7.56,8.32a71.62,71.62,0,0,0-6.6,9.22c-3.49,5.87-4,8.92-5.32,8.86-1,0-2-3-3.94-8.95-1.43-4.42-1.33-4.69-2.56-8.23-1.5-4.36-1.88-4.6-2.23-6.62-.27-1.56-.32-3,.1-7.79C275,231.32,275.59,229.49,275.13,229.37Z" transform="translate(-254.48 -226.56)" fill="none" stroke="#1d1d1b" stroke-miterlimit="10" stroke-width="1.27"/><path id="CHID_DENT_ROOT_I2" d="M295.78,230c-.53-.35-3.53,2.67-7.88,7a52.9,52.9,0,0,0-5.32,5.78,32.31,32.31,0,0,0-3.94,7.13c-1.3,3.3-1.5,4.39-1.49,5,0,2,.88,3.28,1.71,4.91,3.17,6.26,2.24,10.32,3.72,10.5,1.1.13,1.73-2.1,4.79-7,4.43-7.15,6.1-7.35,6.39-10.41.38-4.1-2.58-4.4-2.34-9.53a26.46,26.46,0,0,1,2.34-8.57C295,231.73,296.14,230.23,295.78,230Z" transform="translate(-254.48 -226.56)" fill="none" stroke="#1d1d1b" stroke-miterlimit="10" stroke-width="1.27"/></g><g id="CHID_DENT_CROWN_I"><path id="CHID_DENT_CROWN_I1" d="M261.72,281a11.82,11.82,0,0,0-3.52,4,17,17,0,0,0-1.91,4.57,33.76,33.76,0,0,0-1,6.8c-.41,4.82-.17,5.37.32,5.73,1.35,1,2.93-.63,7.13-.09,1.6.2,4.41.56,6.39,2.32.74.67.89,1.11,1.59,1.26,1.22.25,2.13-.77,5-2.42,2.09-1.19,3.13-1.79,4.15-1.79,1.23,0,1.61.55,4.9,2.33a27.08,27.08,0,0,0,4.25,2.06,16.73,16.73,0,0,0,6.29.62,18.66,18.66,0,0,0,7.55-1.7c1.74-.85,2.26-1.55,4.15-2s2.57,0,3.41-.53,1.15-1.85.75-5.28c-.43-3.64-.64-5.46-1.39-7.34-1.22-3.08-2.42-6.1-5.85-8.06a16.92,16.92,0,0,0-9.05-1.79c-4,.21-5.37,1.59-10.86,1.79a29.61,29.61,0,0,1-4-.09c-5.2-.47-5.89-1.95-9.8-2.24C269.17,279.15,265,278.84,261.72,281Z" transform="translate(-254.48 -226.56)" fill="none" stroke="#1d1d1b" stroke-miterlimit="10" stroke-width="1.27"/><path id="CHID_DENT_CROWN_I2" d="M257.38,302c-.36.79,2.69,2.81,6,3.58,2.51.59,5.7.56,6-.18s-2.71-2.31-5.22-3C261.41,301.59,257.73,301.24,257.38,302Z" transform="translate(-254.48 -226.56)" fill="none" stroke="#1d1d1b" stroke-miterlimit="10" stroke-width="1.27"/><path id="CHID_DENT_CROWN_I3" d="M274,305.9c.36.7,2.54.53,6,.26,3.13-.24,4.88-.37,5.11-1.07.32-1-2.37-3-5.22-3C276.42,302,273.46,304.91,274,305.9Z" transform="translate(-254.48 -226.56)" fill="none" stroke="#1d1d1b" stroke-miterlimit="10" stroke-width="1.27"/></g></g><path id="CHID_DENT_fiiling-caries_class_I_I" d="M290.14,305.63a16.68,16.68,0,0,1-3.9-1.55c-1-.57-1.36-.92-2.81-1.72a9.93,9.93,0,0,0-3-1.37,6.49,6.49,0,0,0-4.65,1.64,15.84,15.84,0,0,1-1.41.91,15.64,15.64,0,0,1-2,.91l-.24-5.63c0-1.94,1.87-3.52,4.18-3.52h13.85c2.31,0,4.19,1.58,4.19,3.52v5a1.39,1.39,0,0,1,0,1.31C293.86,306,292.09,306.31,290.14,305.63Z" transform="translate(-254.48 -226.56)" fill="#be1622" stroke="#be1622" stroke-miterlimit="10" stroke-width="0.42" opacity="0.79"/><path id="CHID_DENT_fiiling_caries_class_IV_Mesial_I" d="M268.69,303.14l-4.48-1.51q-2.67-.06-5.52,0c-.9,0-1.78,0-2.65.08,0-.58,0-1.15-.05-1.72s0-1.36,0-2.26c.06-1.23.14-1.11.3-2.87s.09-2.14.53-2.87a4.36,4.36,0,0,1,.9-1.05,7.55,7.55,0,0,1,4.51-1.57h4.37a7.7,7.7,0,0,1,4.52,1.57,5.5,5.5,0,0,1,1.19,6.94l0,4.25c0,.51-.08,1.14-.15,1.87s-.08.91-.34,1-.53,0-1-.26A7.84,7.84,0,0,1,268.69,303.14Z" transform="translate(-254.48 -226.56)" fill="#be1622" stroke="#be1622" stroke-miterlimit="10" stroke-width="0.42" opacity="0.79"/><path id="CHID_DENT_filling_caries_Class_IV_Distal_I" d="M293.54,306c.11.13.55-.14,1.64-.25.42,0,.55,0,1.49-.09l.74-.06a13.43,13.43,0,0,0,2.91-.54,20.06,20.06,0,0,0,2.75-1.32l.44-.26a4.92,4.92,0,0,1,.81-.51,8.74,8.74,0,0,1,3.85-1.07c1.09,0,1.45.24,1.93,0s.64-.91.62-1.9a26.41,26.41,0,0,0-.52-4.43,21,21,0,0,0-.47-2.89c-.42-1.57-.64-2.36-1.3-2.83-.89-.63-2.08-.58-6.56-.26-6.38.44-6.67.52-7,.8-.92.7-.52,1.32-.31,7.51,0,.43.22,1.93.21,3.47a15.42,15.42,0,0,0-.06,1.76,4.71,4.71,0,0,1-.08,1.36C294.37,305.43,293.4,305.83,293.54,306Z" transform="translate(-254.48 -226.56)" fill="#be1622" stroke="#be1622" stroke-miterlimit="10" stroke-width="0.42" opacity="0.79"/><rect id="CHID_DENT_filling_caries_Class_V_I" x="23.05" y="57.28" width="11.48" height="2.7" rx="0.87" fill="#be1622" stroke="#be1622" stroke-miterlimit="10" stroke-width="0.42" opacity="0.79"/><path id="CHID_DENT_filling_caries_Class_III_Mesial_I" d="M309.89,292.53l-10.35.67a2.18,2.18,0,0,1-2.33-2V290.1a2.18,2.18,0,0,1,2.33-2l9,.58h0l1.35,3.81Z" transform="translate(-254.48 -226.56)" fill="#be1622" stroke="#be1622" stroke-miterlimit="10" stroke-width="0.42" opacity="0.79"/><path id="CHID_DENT_filling_caries_Class_III_Distal_I" d="M266.42,293.2l-10-.42h0c.32-1.34.65-2.67,1-4l.05,0h0l9-.58a2.17,2.17,0,0,1,2.33,2v1.14A2.17,2.17,0,0,1,266.42,293.2Z" transform="translate(-254.48 -226.56)" fill="#be1622" stroke="#be1622" stroke-miterlimit="10" stroke-width="0.42" opacity="0.79"/><g id="CHID_DENT_EndoI"><path id="CHID_DENT_Endo1_I" d="M272.4,237.42c-.78-.1-2.79,7.59-3.95,13.28-.44,2.14-.95,6.53-1.95,15.24-.62,5.37-1.31,11.71.69,12.24.74.2,1.41-.51,3.44-.48,1.85,0,2.36.64,3,.48,2.34-.54,1.58-9.34.71-16.45-1-8.55-1.57-9.14-1.79-14.2C272.31,241.2,272.94,237.48,272.4,237.42Z" transform="translate(-254.48 -226.56)" fill="#be1622" stroke="#e30613" stroke-miterlimit="10" stroke-width="0.42"/><path id="CHID_DENT_Endo2_I" d="M306,242.85c-1-.4-7.3,9.24-9.16,12.08A98.84,98.84,0,0,0,290,266.71c-.94,2-5.73,12-3.41,13.14.64.32,1.8,0,4.13-.76a16.17,16.17,0,0,1,3.77-1.06c1.48-.13,1.8.2,2.33,0,1.86-.68.28-5.43.36-10,.05-2.48.55-2.76,5.21-14.65C306.22,243.65,306.23,243,306,242.85Z" transform="translate(-254.48 -226.56)" fill="#be1622" stroke="#e30613" stroke-miterlimit="10" stroke-width="0.42"/><path id="CHID_DENT_Endo3_I" d="M290.74,236.72c-.88-.37-5.55,6.27-5.77,6.58a55.18,55.18,0,0,0-5.21,9.37c-1.66,3.81-1.68,5-1.59,5.88.16,1.45.63,1.79,2.39,5.54,2,4.22,2.28,5.71,3,5.69,0,0,.58,0,2.49-5.34h0s1.41-2.84,2-4.07a24.31,24.31,0,0,0,2.16-7.1c.46-4.23-1.43-4.56-1.26-8.91C289.11,239.79,291.33,237,290.74,236.72Z" transform="translate(-254.48 -226.56)" fill="#be1622" stroke="#e30613" stroke-miterlimit="10" stroke-width="0.42"/></g><g id="CHID_DENT_Post_I"><g id="CHID_DENT_Post_I_1"><path d="M263.88,279.62l11.59-.22a.72.72,0,0,1,.78.66v2.69a.74.74,0,0,1-.77.69l-11.59.22a.73.73,0,0,1-.78-.67v-2.68A.75.75,0,0,1,263.88,279.62Z" transform="translate(-254.48 -226.56)" fill="#e30613" stroke="#e30613" stroke-miterlimit="10" stroke-width="0.42"/><path d="M268.93,247.7l1.47,0a1.27,1.27,0,0,1,1.38,1.17l.07,30.08a1.31,1.31,0,0,1-1.37,1.22l-1.46,0a1.27,1.27,0,0,1-1.38-1.17l-.08-30.08A1.32,1.32,0,0,1,268.93,247.7Z" transform="translate(-254.48 -226.56)" fill="#e30613" stroke="#e30613" stroke-miterlimit="10" stroke-width="0.42"/><path d="M265.79,273.16l7.94-.15a.36.36,0,0,1,.38.33v.86a.36.36,0,0,1-.38.34l-7.93.15a.36.36,0,0,1-.39-.32v-.87A.37.37,0,0,1,265.79,273.16Z" transform="translate(-254.48 -226.56)" fill="#e30613" stroke="#e30613" stroke-miterlimit="10" stroke-width="0.42"/><path d="M265.66,268.58l8-.15a.33.33,0,0,1,.35.31v.9a.35.35,0,0,1-.36.32l-8,.15a.33.33,0,0,1-.36-.3v-.91A.35.35,0,0,1,265.66,268.58Z" transform="translate(-254.48 -226.56)" fill="#e30613" stroke="#e30613" stroke-miterlimit="10" stroke-width="0.42"/><path d="M265.78,264l7.91-.14a.35.35,0,0,1,.39.33V265a.38.38,0,0,1-.39.34l-7.92.15a.36.36,0,0,1-.39-.33v-.85A.38.38,0,0,1,265.78,264Z" transform="translate(-254.48 -226.56)" fill="#e30613" stroke="#e30613" stroke-miterlimit="10" stroke-width="0.42"/><path d="M265.63,259.41l8-.15a.33.33,0,0,1,.35.3v.92a.33.33,0,0,1-.35.31l-8,.15a.33.33,0,0,1-.35-.3v-.92A.35.35,0,0,1,265.63,259.41Z" transform="translate(-254.48 -226.56)" fill="#e30613" stroke="#e30613" stroke-miterlimit="10" stroke-width="0.42"/><path d="M265.6,254.83l8-.15a.31.31,0,0,1,.34.29v.93a.32.32,0,0,1-.34.3l-8,.15a.35.35,0,0,1-.39-.33v-.89A.33.33,0,0,1,265.6,254.83Z" transform="translate(-254.48 -226.56)" fill="#e30613" stroke="#e30613" stroke-miterlimit="10" stroke-width="0.42"/><path d="M265.74,250.24l7.92-.15a.36.36,0,0,1,.39.33v.86a.37.37,0,0,1-.38.34l-7.93.15a.36.36,0,0,1-.38-.33v-.86A.38.38,0,0,1,265.74,250.24Z" transform="translate(-254.48 -226.56)" fill="#e30613" stroke="#e30613" stroke-miterlimit="10" stroke-width="0.42"/><line x1="10.88" y1="28.36" x2="19.42" y2="23.6" fill="#e30613" stroke="#e30613" stroke-linecap="round" stroke-miterlimit="10" stroke-width="0.42"/><line x1="10.93" y1="29.72" x2="19.47" y2="24.95" fill="#e30613" stroke="#e30613" stroke-linecap="round" stroke-miterlimit="10" stroke-width="0.42"/><line x1="10.86" y1="32.99" x2="19.35" y2="28.18" fill="#e30613" stroke="#e30613" stroke-linecap="round" stroke-miterlimit="10" stroke-width="0.42"/><line x1="10.91" y1="34.27" x2="19.36" y2="29.56" fill="#e30613" stroke="#e30613" stroke-linecap="round" stroke-miterlimit="10" stroke-width="0.42"/><line x1="11.05" y1="37.52" x2="19.36" y2="32.77" fill="#e30613" stroke="#e30613" stroke-linecap="round" stroke-miterlimit="10" stroke-width="0.42"/><line x1="11.05" y1="38.88" x2="19.4" y2="34.13" fill="#e30613" stroke="#e30613" stroke-linecap="round" stroke-miterlimit="10" stroke-width="0.42"/><line x1="10.91" y1="42.13" x2="19.5" y2="37.39" fill="#e30613" stroke="#e30613" stroke-linecap="round" stroke-miterlimit="10" stroke-width="0.42"/><line x1="10.96" y1="43.48" x2="19.46" y2="38.73" fill="#e30613" stroke="#e30613" stroke-linecap="round" stroke-miterlimit="10" stroke-width="0.42"/><line x1="11.05" y1="46.7" x2="19.38" y2="41.94" fill="#e30613" stroke="#e30613" stroke-linecap="round" stroke-miterlimit="10" stroke-width="0.42"/><line x1="11.08" y1="48.06" x2="19.36" y2="43.34" fill="#e30613" stroke="#e30613" stroke-linecap="round" stroke-miterlimit="10" stroke-width="0.42"/><path d="M274.14,251.77" transform="translate(-254.48 -226.56)" fill="#e30613" stroke="#e30613" stroke-miterlimit="10" stroke-width="0.42"/><path d="M265.76,282.81l7.9-.15a1.4,1.4,0,0,1,1.53,1.3v3.25a1.46,1.46,0,0,1-1.52,1.35l-7.9.15a1.4,1.4,0,0,1-1.53-1.29v-3.26A1.46,1.46,0,0,1,265.76,282.81Z" transform="translate(-254.48 -226.56)" fill="#e30613" stroke="#e30613" stroke-miterlimit="10" stroke-width="0.42"/></g><g id="CHID_DENT_Post_I_2"><path d="M287,278.87l9,2.28a.6.6,0,0,1,.47.7l-.53,2.17a.59.59,0,0,1-.74.39l-9-2.27a.59.59,0,0,1-.47-.7l.53-2.17A.59.59,0,0,1,287,278.87Z" transform="translate(-254.48 -226.56)" fill="#e30613" stroke="#e30613" stroke-miterlimit="10" stroke-width="0.42"/><path d="M297.25,254.1l1.13.29a1.06,1.06,0,0,1,.83,1.24L293.26,280a1,1,0,0,1-1.3.7l-1.14-.28a1.07,1.07,0,0,1-.83-1.24l5.95-24.37A1,1,0,0,1,297.25,254.1Z" transform="translate(-254.48 -226.56)" fill="#e30613" stroke="#e30613" stroke-miterlimit="10" stroke-width="0.42"/><path d="M289.74,274.05l6.14,1.56a.29.29,0,0,1,.23.34l-.17.7a.29.29,0,0,1-.36.2l-6.14-1.56a.29.29,0,0,1-.23-.34l.17-.7A.29.29,0,0,1,289.74,274.05Z" transform="translate(-254.48 -226.56)" fill="#e30613" stroke="#e30613" stroke-miterlimit="10" stroke-width="0.42"/><path d="M290.55,270.31l6.18,1.57a.27.27,0,0,1,.21.32l-.18.73a.26.26,0,0,1-.33.19l-6.18-1.57a.28.28,0,0,1-.22-.32l.18-.73A.27.27,0,0,1,290.55,270.31Z" transform="translate(-254.48 -226.56)" fill="#e30613" stroke="#e30613" stroke-miterlimit="10" stroke-width="0.42"/><path d="M291.56,266.63l6.13,1.55a.29.29,0,0,1,.23.35l-.16.69a.3.3,0,0,1-.37.2l-6.13-1.56a.3.3,0,0,1-.24-.35l.17-.69A.29.29,0,0,1,291.56,266.63Z" transform="translate(-254.48 -226.56)" fill="#e30613" stroke="#e30613" stroke-miterlimit="10" stroke-width="0.42"/><path d="M292.36,262.88l6.19,1.57a.28.28,0,0,1,.21.32l-.18.74a.27.27,0,0,1-.34.18l-6.19-1.57a.27.27,0,0,1-.21-.31l.18-.75A.29.29,0,0,1,292.36,262.88Z" transform="translate(-254.48 -226.56)" fill="#e30613" stroke="#e30613" stroke-miterlimit="10" stroke-width="0.42"/><path d="M293.26,259.17l6.2,1.57a.27.27,0,0,1,.21.31l-.19.75a.25.25,0,0,1-.32.18L293,260.42a.31.31,0,0,1-.24-.36l.17-.72A.27.27,0,0,1,293.26,259.17Z" transform="translate(-254.48 -226.56)" fill="#e30613" stroke="#e30613" stroke-miterlimit="10" stroke-width="0.42"/><path d="M294.28,255.48l6.13,1.56a.29.29,0,0,1,.23.35l-.16.69a.3.3,0,0,1-.37.2L294,256.72a.31.31,0,0,1-.23-.35l.17-.69A.3.3,0,0,1,294.28,255.48Z" transform="translate(-254.48 -226.56)" fill="#e30613" stroke="#e30613" stroke-miterlimit="10" stroke-width="0.42"/><line x1="38.57" y1="32.63" x2="46.1" y2="30.59" fill="#e30613" stroke="#e30613" stroke-linecap="round" stroke-miterlimit="10" stroke-width="0.42"/><line x1="38.34" y1="33.75" x2="45.87" y2="31.68" fill="#e30613" stroke="#e30613" stroke-linecap="round" stroke-miterlimit="10" stroke-width="0.42"/><line x1="37.63" y1="36.38" x2="45.13" y2="34.28" fill="#e30613" stroke="#e30613" stroke-linecap="round" stroke-miterlimit="10" stroke-width="0.42"/><line x1="37.41" y1="37.43" x2="44.87" y2="35.4" fill="#e30613" stroke="#e30613" stroke-linecap="round" stroke-miterlimit="10" stroke-width="0.42"/><line x1="36.87" y1="40.08" x2="44.22" y2="37.99" fill="#e30613" stroke="#e30613" stroke-linecap="round" stroke-miterlimit="10" stroke-width="0.42"/><line x1="36.59" y1="41.19" x2="43.98" y2="39.1" fill="#e30613" stroke="#e30613" stroke-linecap="round" stroke-miterlimit="10" stroke-width="0.42"/><line x1="35.84" y1="43.79" x2="43.41" y2="41.77" fill="#e30613" stroke="#e30613" stroke-linecap="round" stroke-miterlimit="10" stroke-width="0.42"/><line x1="35.61" y1="44.89" x2="43.11" y2="42.84" fill="#e30613" stroke="#e30613" stroke-linecap="round" stroke-miterlimit="10" stroke-width="0.42"/><line x1="35.04" y1="47.52" x2="42.41" y2="45.42" fill="#e30613" stroke="#e30613" stroke-linecap="round" stroke-miterlimit="10" stroke-width="0.42"/><line x1="34.78" y1="48.62" x2="42.11" y2="46.55" fill="#e30613" stroke="#e30613" stroke-linecap="round" stroke-miterlimit="10" stroke-width="0.42"/><path d="M300.44,258.5" transform="translate(-254.48 -226.56)" fill="#e30613" stroke="#e30613" stroke-miterlimit="10" stroke-width="0.42"/><path d="M287.79,281.85l6.11,1.55a1.17,1.17,0,0,1,.92,1.37l-.64,2.64a1.15,1.15,0,0,1-1.44.77l-6.12-1.54a1.19,1.19,0,0,1-.92-1.38l.65-2.63A1.15,1.15,0,0,1,287.79,281.85Z" transform="translate(-254.48 -226.56)" fill="#e30613" stroke="#e30613" stroke-miterlimit="10" stroke-width="0.42"/></g><g id="CHID_DENT_Post_I_3"><path d="M277.14,280.32l8.17,1.31c.31.05.52.44.48.87l-.29,3.09c0,.43-.32.74-.62.69L276.7,285c-.3-.05-.51-.44-.47-.87l.28-3.09C276.55,280.58,276.83,280.27,277.14,280.32Z" transform="translate(-254.48 -226.56)" fill="#e30613" stroke="#e30613" stroke-miterlimit="10" stroke-width="0.42"/><path d="M284.19,244.23l1,.16a1.35,1.35,0,0,1,.84,1.54l-3.24,34.66c-.07.76-.56,1.31-1.1,1.23l-1-.17c-.54-.09-.91-.77-.84-1.54l3.24-34.66C283.16,244.69,283.65,244.14,284.19,244.23Z" transform="translate(-254.48 -226.56)" fill="#e30613" stroke="#e30613" stroke-miterlimit="10" stroke-width="0.42"/><path d="M279.19,273.14l5.6.9c.15,0,.25.21.23.43l-.09,1c0,.21-.16.36-.31.34l-5.6-.9c-.14,0-.25-.21-.23-.42l.09-1C278.9,273.27,279,273.12,279.19,273.14Z" transform="translate(-254.48 -226.56)" fill="#e30613" stroke="#e30613" stroke-miterlimit="10" stroke-width="0.42"/><path d="M279.59,267.84l5.63.91c.14,0,.24.2.22.4l-.09,1c0,.2-.15.34-.29.32l-5.63-.9a.36.36,0,0,1-.22-.4l.1-1C279.33,268,279.45,267.82,279.59,267.84Z" transform="translate(-254.48 -226.56)" fill="#e30613" stroke="#e30613" stroke-miterlimit="10" stroke-width="0.42"/><path d="M280.18,262.58l5.59.89a.39.39,0,0,1,.24.44l-.1,1c0,.21-.15.37-.31.34l-5.58-.89a.39.39,0,0,1-.24-.44l.09-1C279.89,262.71,280,262.55,280.18,262.58Z" transform="translate(-254.48 -226.56)" fill="#e30613" stroke="#e30613" stroke-miterlimit="10" stroke-width="0.42"/><path d="M280.58,257.28l5.64.9c.13,0,.23.2.21.39l-.1,1.06c0,.19-.14.33-.28.31l-5.64-.9c-.14,0-.23-.2-.21-.39l.09-1.06C280.31,257.39,280.44,257.25,280.58,257.28Z" transform="translate(-254.48 -226.56)" fill="#e30613" stroke="#e30613" stroke-miterlimit="10" stroke-width="0.42"/><path d="M281.06,252l5.66.91c.13,0,.22.19.21.38l-.11,1.08c0,.19-.14.32-.27.3l-5.61-.9a.38.38,0,0,1-.25-.44l.1-1C280.81,252.11,280.93,252,281.06,252Z" transform="translate(-254.48 -226.56)" fill="#e30613" stroke="#e30613" stroke-miterlimit="10" stroke-width="0.42"/><path d="M281.66,246.72l5.59.9a.38.38,0,0,1,.24.43l-.1,1c0,.21-.15.37-.3.34l-5.59-.89a.38.38,0,0,1-.24-.44l.09-1C281.37,246.85,281.51,246.7,281.66,246.72Z" transform="translate(-254.48 -226.56)" fill="#e30613" stroke="#e30613" stroke-miterlimit="10" stroke-width="0.42"/><line x1="26.4" y1="25.51" x2="32.93" y2="21.18" fill="#e30613" stroke="#e30613" stroke-linecap="round" stroke-miterlimit="10" stroke-width="0.42"/><line x1="26.29" y1="27.08" x2="32.82" y2="22.73" fill="#e30613" stroke="#e30613" stroke-linecap="round" stroke-miterlimit="10" stroke-width="0.42"/><line x1="25.88" y1="30.84" x2="32.38" y2="26.44" fill="#e30613" stroke="#e30613" stroke-linecap="round" stroke-miterlimit="10" stroke-width="0.42"/><line x1="25.78" y1="32.32" x2="32.24" y2="28.03" fill="#e30613" stroke="#e30613" stroke-linecap="round" stroke-miterlimit="10" stroke-width="0.42"/><line x1="25.52" y1="36.08" x2="31.88" y2="31.73" fill="#e30613" stroke="#e30613" stroke-linecap="round" stroke-miterlimit="10" stroke-width="0.42"/><line x1="25.37" y1="37.65" x2="31.76" y2="33.3" fill="#e30613" stroke="#e30613" stroke-linecap="round" stroke-miterlimit="10" stroke-width="0.42"/><line x1="24.91" y1="41.38" x2="31.48" y2="37.07" fill="#e30613" stroke="#e30613" stroke-linecap="round" stroke-miterlimit="10" stroke-width="0.42"/><line x1="24.8" y1="42.94" x2="31.3" y2="38.61" fill="#e30613" stroke="#e30613" stroke-linecap="round" stroke-miterlimit="10" stroke-width="0.42"/><line x1="24.51" y1="46.66" x2="30.9" y2="42.3" fill="#e30613" stroke="#e30613" stroke-linecap="round" stroke-miterlimit="10" stroke-width="0.42"/><line x1="24.38" y1="48.23" x2="30.73" y2="43.9" fill="#e30613" stroke="#e30613" stroke-linecap="round" stroke-miterlimit="10" stroke-width="0.42"/><path d="M287.4,249.62" transform="translate(-254.48 -226.56)" fill="#e30613" stroke="#e30613" stroke-miterlimit="10" stroke-width="0.42"/><path d="M278.11,284.25l5.58.89a1.49,1.49,0,0,1,.93,1.7l-.35,3.75c-.08.85-.63,1.45-1.22,1.36l-5.57-.9c-.6-.09-1-.85-.94-1.7l.35-3.75C277,284.76,277.52,284.15,278.11,284.25Z" transform="translate(-254.48 -226.56)" fill="#e30613" stroke="#e30613" stroke-miterlimit="10" stroke-width="0.42"/></g></g><g id="CHID_DENT_Periodental_I"><path id="CHID_DENT_Left_Periodental_I" d="M261.43,280.27c.13-.17-.55-.49-.87-1.3a3.13,3.13,0,0,1,.19-2.27c.44-1.28.92-2.68,1.16-3.74.4-1.7,0-1.55.39-4.15.27-1.76.54-2.35.1-2.68-.65-.49-2.34-.06-3.39.73s-1.21,1.92-1.64,4.88c-.78,5.39-1.14,6.12-.29,7.07C258.41,280.3,261.2,280.6,261.43,280.27Z" transform="translate(-254.48 -226.56)" fill="#e30613" stroke="#e30613" stroke-miterlimit="10" stroke-width="0.42"/><path id="CHID_DENT_Right_Periodental_I" d="M303,280.35c-.18-.15.22-.49.29-1.3a4.11,4.11,0,0,0-.48-1.95c-.51-1.24-.76-1.59-1.17-2.52a16.06,16.06,0,0,1-.87-2.44,31.06,31.06,0,0,1-.48-3.33c-.2-1.34-.27-1.67,0-1.87.54-.39,1.91,0,2.81.65,1.31.9,1.35,2,2,4.23,1.31,4.31,2.65,4.92,1.93,6.34C306.2,279.88,303.39,280.69,303,280.35Z" transform="translate(-254.48 -226.56)" fill="#e30613" stroke="#e30613" stroke-miterlimit="10" stroke-width="0.42"/></g><g id="CHID_DENT_Implant_I"><path d="M270.28,273.84l26.1,0c1,0,1.75.4,1.73.88l-.08,3.46c0,.48-.81.87-1.78.87l-26.1,0c-1,0-1.75-.39-1.73-.87l.08-3.47C268.52,274.23,269.31,273.84,270.28,273.84Z" transform="translate(-254.48 -226.56)" fill="#e30613" stroke="#e30613" stroke-miterlimit="10" stroke-width="0.42"/><path d="M282.89,232.78h3.3c1.71,0,3.08.7,3.06,1.55l-1,38.82c0,.86-1.42,1.55-3.14,1.54h-3.29c-1.72,0-3.09-.7-3.06-1.55l1-38.83C279.77,233.47,281.18,232.78,282.89,232.78Z" transform="translate(-254.48 -226.56)" fill="#e30613" stroke="#e30613" stroke-miterlimit="10" stroke-width="0.42"/><path d="M274.84,265.56l17.86,0c.48,0,.86.2.85.43l0,1.12c0,.23-.4.43-.88.42l-17.86,0c-.48,0-.86-.2-.85-.43l0-1.12C274,265.76,274.36,265.56,274.84,265.56Z" transform="translate(-254.48 -226.56)" fill="#e30613" stroke="#e30613" stroke-miterlimit="10" stroke-width="0.42"/><path d="M274.7,259.65l18,0c.44,0,.8.19.79.41l0,1.17c0,.22-.37.4-.81.4l-18,0c-.44,0-.8-.18-.79-.4l0-1.17C273.89,259.83,274.26,259.65,274.7,259.65Z" transform="translate(-254.48 -226.56)" fill="#e30613" stroke="#e30613" stroke-miterlimit="10" stroke-width="0.42"/><path d="M275.16,253.73l17.83,0c.48,0,.87.19.86.44l0,1.09c0,.25-.41.44-.89.44l-17.83,0c-.49,0-.88-.19-.87-.44l0-1.09C274.27,253.92,274.67,253.73,275.16,253.73Z" transform="translate(-254.48 -226.56)" fill="#e30613" stroke="#e30613" stroke-miterlimit="10" stroke-width="0.42"/><path d="M275,247.81l18,0c.44,0,.79.18.78.4l0,1.18c0,.22-.36.39-.8.39l-18,0c-.44,0-.79-.17-.78-.39l0-1.18C274.19,248,274.55,247.81,275,247.81Z" transform="translate(-254.48 -226.56)" fill="#e30613" stroke="#e30613" stroke-miterlimit="10" stroke-width="0.42"/><path d="M275.12,241.89l18,0c.43,0,.77.18.76.39l0,1.2c0,.21-.35.39-.78.39l-17.92,0c-.49,0-.89-.2-.88-.45l0-1.14C274.34,242.07,274.69,241.89,275.12,241.89Z" transform="translate(-254.48 -226.56)" fill="#e30613" stroke="#e30613" stroke-miterlimit="10" stroke-width="0.42"/><path d="M275.6,236l17.84,0c.48,0,.87.19.86.43l0,1.11c0,.23-.41.43-.89.43l-17.84,0c-.48,0-.87-.2-.86-.44l0-1.1C274.72,236.17,275.12,236,275.6,236Z" transform="translate(-254.48 -226.56)" fill="#e30613" stroke="#e30613" stroke-miterlimit="10" stroke-width="0.42"/><line x1="20.1" y1="15.45" x2="39.5" y2="9.54" fill="#e30613" stroke="#e30613" stroke-linecap="round" stroke-miterlimit="10" stroke-width="0.42"/><line x1="20.15" y1="17.21" x2="39.56" y2="11.28" fill="#e30613" stroke="#e30613" stroke-linecap="round" stroke-miterlimit="10" stroke-width="0.42"/><line x1="19.87" y1="21.42" x2="39.16" y2="15.45" fill="#e30613" stroke="#e30613" stroke-linecap="round" stroke-miterlimit="10" stroke-width="0.42"/><line x1="19.93" y1="23.08" x2="39.14" y2="17.23" fill="#e30613" stroke="#e30613" stroke-linecap="round" stroke-miterlimit="10" stroke-width="0.42"/><line x1="20.12" y1="27.27" x2="39.01" y2="21.37" fill="#e30613" stroke="#e30613" stroke-linecap="round" stroke-miterlimit="10" stroke-width="0.42"/><line x1="20.05" y1="29.03" x2="39.04" y2="23.12" fill="#e30613" stroke="#e30613" stroke-linecap="round" stroke-miterlimit="10" stroke-width="0.42"/><line x1="19.62" y1="33.22" x2="39.15" y2="27.34" fill="#e30613" stroke="#e30613" stroke-linecap="round" stroke-miterlimit="10" stroke-width="0.42"/><line x1="19.68" y1="34.97" x2="39" y2="29.07" fill="#e30613" stroke="#e30613" stroke-linecap="round" stroke-miterlimit="10" stroke-width="0.42"/><line x1="19.76" y1="39.12" x2="38.71" y2="33.21" fill="#e30613" stroke="#e30613" stroke-linecap="round" stroke-miterlimit="10" stroke-width="0.42"/><line x1="19.77" y1="40.88" x2="38.6" y2="35.01" fill="#e30613" stroke="#e30613" stroke-linecap="round" stroke-miterlimit="10" stroke-width="0.42"/><path d="M294.45,238.19" transform="translate(-254.48 -226.56)" fill="#e30613" stroke="#e30613" stroke-miterlimit="10" stroke-width="0.42"/><path d="M274.4,278l17.79,0c1.89,0,3.41.77,3.39,1.71l-.11,4.2c0,.95-1.58,1.71-3.47,1.71l-17.8,0c-1.89,0-3.41-.77-3.38-1.71l.1-4.2C271,278.77,272.5,278,274.4,278Z" transform="translate(-254.48 -226.56)" fill="#e30613" stroke="#e30613" stroke-miterlimit="10" stroke-width="0.42"/></g><g id="CHID_DENT_Periapical_I"><path id="CHID_DENT_Periapical_I_2" d="M266.9,243.18c.2,0,.52-.78,2.83-6.28a45.79,45.79,0,0,1,2.49-5c.69-1.15.61-.73,1.21-1.75.39-.66.59-1.1,1.15-1.3a1.43,1.43,0,0,1,1.07,0c.46.26.41.91.34,1.64-.16,1.7-.24,2.55-.34,3.06-.21,1.11,0,.54-.4,4.13-.09.82-.23,2-.34,3.68s-.05,1.81,0,1.81c.25,0,1-2.26,1.55-4.53.72-3.18.13-3,.81-5.55.52-1.9,1.09-2.85.61-4.3a2.76,2.76,0,0,0-1.55-1.87,3.76,3.76,0,0,0-2.7.28c-1.07.5-1.6,1.28-2.62,3.29-.9,1.77-1.33,2.83-2.36,5.21a21.37,21.37,0,0,0-1.55,4.08C266.76,241.29,266.6,243.13,266.9,243.18Z" transform="translate(-254.48 -226.56)" fill="#be1622" stroke="#be1622" stroke-miterlimit="10" stroke-width="0.42"/><path id="CHID_DENT_Periapical_I_3" d="M286.3,237.58c.3.12,1-1,3.37-3.46,3.5-3.73,3.35-2.84,4.24-3.9a3,3,0,0,1,1.21-.85,1.3,1.3,0,0,1,.95-.12c.39.17.45.67.47.85a2.49,2.49,0,0,1-.47,1.53c-.43.72.19-.15-1.28,2.89-.74,1.5-.79,1.52-1.08,2.21s-1,2.38-.74,2.49,2.21-2.46,3.43-4.47a17.06,17.06,0,0,0,1.75-3.91c.72-2.36.28-2.84.07-3-.62-.5-1.79-.26-2.49-.12a7.89,7.89,0,0,0-3.3,1.65c-1.54,1.18-1.2,1.43-3.24,3.39-1.27,1.24-1.94,1.66-2.49,2.78C286.29,236.38,286,237.46,286.3,237.58Z" transform="translate(-254.48 -226.56)" fill="#be1622" stroke="#be1622" stroke-miterlimit="10" stroke-width="0.42"/><path id="CHID_DENT_Periapical_I_1" d="M303.61,239.9a28.72,28.72,0,0,0,1-2.72,10.84,10.84,0,0,0,.47-3,4.33,4.33,0,0,1,.27-1.81c.16-.4.37-.9.88-1a1.48,1.48,0,0,1,1,.22,2,2,0,0,1,.74,1.53c.28,1.74.56,1.22.87,3.12.2,1.17,0,1.09.21,3.34s.29,2.3.27,3.51c0,1.77-.37,2.51-.21,2.55.35.09,2.38-3,2.65-6.67a13.25,13.25,0,0,0-.42-4.15,7.19,7.19,0,0,0-1.49-3.45,4.94,4.94,0,0,0-2.35-1.59c-.29-.08-2-.59-3,.12-.32.21-.51.49-.88,2-.44,1.84-.37,2.28-.74,3.91-.23,1-.35,1.24-.54,2.27a11.92,11.92,0,0,0-.23,2.13c0,.77.12,2.21.43,2.23S302.88,241.86,303.61,239.9Z" transform="translate(-254.48 -226.56)" fill="#be1622" stroke="#be1622" stroke-miterlimit="10" stroke-width="0.42"/></g><path id="CHID_DENT_Occlusal_Veneer_I" d="M301.48,304.33a19.23,19.23,0,0,1-7.87,1.35,14.65,14.65,0,0,1-4.86-.93,41.27,41.27,0,0,1-5.41-3.1,6.2,6.2,0,0,0-3.08-1.32,5.58,5.58,0,0,0-2.94.8c-4.11,2.07-4.48,3.86-6.15,3.82s-1.61-2-4.55-3.05a12.08,12.08,0,0,0-5.72-.51,8.6,8.6,0,0,1-3.54.14,7.57,7.57,0,0,1-1.26-.4,45.88,45.88,0,0,1,0-4.67,1.45,1.45,0,0,1,1.56-1.3h51.49a1.74,1.74,0,0,1,.85.21c.53.32.43.77.58,3.23a3.55,3.55,0,0,1-.51,2.53l0,.05c-.92,1.06-3.13.9-3.88.83A21.68,21.68,0,0,1,301.48,304.33Z" transform="translate(-254.48 -226.56)" fill="#e30613" stroke="#e30613" stroke-miterlimit="10" stroke-width="1.27"/><g id="CHID_DENT_Endo_Crown_I"><path id="CHID_DENT_Endo_Crown_1I" d="M288.65,289.19l-11.06.22L275.87,295a.22.22,0,0,0,.24.26h14.43a.22.22,0,0,0,.23-.27Z" transform="translate(-254.48 -226.56)" fill="#e30613" stroke="#e30613" stroke-miterlimit="10" stroke-width="1.27"/><path id="CHID_DENT_Endo_Crown_2I" d="M301.5,304.21a19.39,19.39,0,0,1-7.87,1.34,14.31,14.31,0,0,1-4.85-.93,41.84,41.84,0,0,1-5.42-3.1,6.2,6.2,0,0,0-3.08-1.32,5.61,5.61,0,0,0-2.94.8c-4.11,2.07-4.48,3.86-6.15,3.83s-1.6-2-4.55-3.05a12.05,12.05,0,0,0-5.72-.52,8.39,8.39,0,0,1-3.53.14,6.27,6.27,0,0,1-1.26-.4,42.62,42.62,0,0,1,0-4.66,1.44,1.44,0,0,1,1.55-1.31h51.49a1.69,1.69,0,0,1,.86.22c.52.31.42.76.57,3.22a3.44,3.44,0,0,1-.51,2.53l0,.05c-.92,1.06-3.13.91-3.87.83A22.56,22.56,0,0,1,301.5,304.21Z" transform="translate(-254.48 -226.56)" fill="#e30613" stroke="#e30613" stroke-miterlimit="10" stroke-width="1.27"/></g></g></svg>