<svg id="CHID_DENT_all" xmlns="http://www.w3.org/2000/svg" viewBox="0 0 57.54 113.6"><g id="CHID_DENT_K_all"><text transform="translate(16.46 22.37) scale(0.89 1)" font-size="30.54" fill="#1d1d1b" font-family="AdobeArabic-Regular, Adobe Arabic">K</text><g id="CHID_DENT_K"><path id="CHID_DENT_CROWN_K" d="M280.26,265.51c-1.5,0-1.6-.76-4.67-2.06a21.14,21.14,0,0,0-6.15-1.71,11.34,11.34,0,0,0-11.55,4.72,14.6,14.6,0,0,0-2.77,8.35,15.8,15.8,0,0,0,3,9.16c1,1.53,1.72,2.68,3.13,3.37,2,1,3.5.07,6.37-.27,3.69-.45,4.1.7,8.18.81,4.6.12,4.54-1.32,10.47-2,6.65-.79,8.78.78,11.19-1.49,1.85-1.74,2.37-4.36,2.76-6.33a15.27,15.27,0,0,0-.6-8.76,11.33,11.33,0,0,0-3.95-5.27,9.57,9.57,0,0,0-4.59-1.6,12,12,0,0,0-5.33.68C282.52,264.18,282.29,265.53,280.26,265.51Z" transform="translate(-254.48 -226.77)" fill="none" stroke="#1d1d1b" stroke-miterlimit="10" stroke-width="1.27"/><path id="CHID_DENT_ROOT_K" d="M260.89,288c-2,2.23.46,6.37,3.13,19.67,1.64,8.14,1.29,9.43,3,13.61a31.94,31.94,0,0,0,7.45,11c.32.3,6.71,6.24,8.55,4.58,1.29-1.16-.16-5.58-1.68-10.24-1.74-5.3-2.57-5.52-3.25-8.62-1.27-5.76-.16-12.95,2.16-13.61s5.27,4.65,7.1,7.81c3.27,5.63,2.58,7.49,5.66,11.72a27.62,27.62,0,0,0,6.85,6.47c2.37,1.72,7.6,5.53,9,4,.25-.26.84-1.17-2.7-10.27-2.05-5.26-3-6.84-4.84-11.44-2.58-6.38-3.88-9.57-4.13-12.24-.76-7.86,3-12.09,1-14.41-1-1.15-3.65-.74-8.9.13-5.65.94-6,1.62-9.51,1.89-2.76.21-3-.18-9.74-.54C264.46,287.3,261.65,287.17,260.89,288Z" transform="translate(-254.48 -226.77)" fill="none" stroke="#1d1d1b" stroke-miterlimit="10" stroke-width="1.27"/></g><path id="CHID_DENT_fiiling-caries_class_I_K" d="M289,275.1H270.61a2.73,2.73,0,0,1-2.56-2.87v-7.75a2.38,2.38,0,0,1,.51-1.81c.38-.34.88-.34,2.42,0a17.85,17.85,0,0,1,3.06.87c1,.39,1.09.54,3.79,1.87,1.42.7,1.84.88,2.48.86a5.2,5.2,0,0,0,2.29-.82c1.87-.94,1.85-1.08,2.85-1.55a10.68,10.68,0,0,1,4.65-.87,1.53,1.53,0,0,1,1.31.59,1.32,1.32,0,0,1,.11.85v7.75A2.73,2.73,0,0,1,289,275.1Z" transform="translate(-254.48 -226.77)" fill="#be1622" stroke="#be1622" stroke-miterlimit="10" stroke-width="0.42" opacity="0.79"/><path id="CHID_DENT_fiiling_caries_class_IV_Mesial_K" d="M268.66,262.31c-.08-.3-1.54-.08-1.76,0a16.32,16.32,0,0,0-4.28,1,12.77,12.77,0,0,0-7.05,11.91,16.81,16.81,0,0,0,1.47,5.57h0s2.87.2,5.1.18c3.54,0,5.31-.05,5.95-.87,1.31-1.68-.3-4.69-.37-9.76,0-1.09,0-1.78,0-3.56,0-.66,0-1.31,0-2a3.41,3.41,0,0,1,.2-1.55C268.25,262.62,268.7,262.48,268.66,262.31Z" transform="translate(-254.48 -226.77)" fill="#be1622" stroke="#be1622" stroke-miterlimit="10" stroke-width="0.42" opacity="0.79"/><path id="CHID_DENT_filling_caries_Class_IV_Distal_K" d="M298.41,279c-.69.38-1.15,0-2.64-.14-2.78-.34-3.56.57-4.22-.12s.34-2,.32-5.91c0-1.89-.27-3.64-.11-5.43.05-.55.06-1.1.11-1.65.1-1,.19-1.38,0-1.77a1.63,1.63,0,0,0-1-.78,9.14,9.14,0,0,1,6.3,3.14,11.72,11.72,0,0,1,2.22,4.37,10.39,10.39,0,0,1,.59,5.25C299.79,276.76,299.5,278.38,298.41,279Z" transform="translate(-254.48 -226.77)" fill="#be1622" stroke="#be1622" stroke-miterlimit="10" stroke-width="0.42" opacity="0.79"/><rect id="CHID_DENT_filling_caries_Class_V_K" x="19.78" y="53.07" width="9.93" height="3.11" rx="0.87" fill="#be1622" stroke="#be1622" stroke-miterlimit="10" stroke-width="0.42" opacity="0.79"/><path id="CHID_DENT_filling_caries_Class_III_Mesial_K" d="M299.85,275.35l-8.61,1.25a2.16,2.16,0,0,1-2-2.26V273a2.15,2.15,0,0,1,2-2.26l8.26.59h0Z" transform="translate(-254.48 -226.77)" fill="#be1622" stroke="#be1622" stroke-miterlimit="10" stroke-width="0.42" opacity="0.79"/><path id="CHID_DENT_filling_caries_Class_III_Distal_K" d="M264.42,276.6l-8.43-.76h0c.05-1.56.1-3.11.14-4.67h0l8.29-.4a2.15,2.15,0,0,1,2,2.26v1.31A2.15,2.15,0,0,1,264.42,276.6Z" transform="translate(-254.48 -226.77)" fill="#be1622" stroke="#be1622" stroke-miterlimit="10" stroke-width="0.42" opacity="0.79"/><g id="CHID_DENT_EndoK"><path id="CHID_DENT_Endo1_K" d="M263.45,288.71c.39-.37,1.68-.35,4.25-.29a19.07,19.07,0,0,1,3.45.2c1.25.5,2.81,2.2,3.85,10.22.93,7.18,0,7.72.73,14a62.11,62.11,0,0,0,2.72,12.21c1.71,4.89,3.47,7.55,2.73,8.34s-3.38-.69-5.27-2.44c-3.37-3.12-3.49-6.38-6.36-16.07-1.64-5.54-3-11.19-4.72-16.68C263.53,294.17,262.08,290,263.45,288.71Z" transform="translate(-254.48 -226.77)" fill="#be1622" stroke="#e30613" stroke-miterlimit="10" stroke-width="0.42"/><path id="CHID_DENT_Endo2_K" d="M282.59,288.83c.34-.48.6-.36,5.64-1.43,2.94-.62,3.93-.89,4.72-.2,1,.89.93,2.74.91,3.87,0,.42.6,4.28,1.81,12,.53,3.34,2.23,7.18,5.64,14.85,3.73,8.42,5.7,11.4,5.08,12-.83.8-5.75-3.25-9.63-8.34-4.67-6.14-3.57-8.2-9.62-20.34C283.88,294.71,281.27,290.72,282.59,288.83Z" transform="translate(-254.48 -226.77)" fill="#be1622" stroke="#e30613" stroke-miterlimit="10" stroke-width="0.42"/></g><g id="CHID_DENT_Post_K"><g id="CHID_DENT_Post_K_1"><path d="M291.05,283l-9.22,4.45a.66.66,0,0,1-.89-.48l-1.08-3.12a.87.87,0,0,1,.35-1.08l9.22-4.46a.68.68,0,0,1,.89.49l1.08,3.11A.9.9,0,0,1,291.05,283Z" transform="translate(-254.48 -226.77)" fill="#e30613" stroke="#e30613" stroke-miterlimit="10" stroke-width="0.42"/><path d="M299.75,321.93l-1.17.56a1.18,1.18,0,0,1-1.57-.86l-12.09-34.91a1.57,1.57,0,0,1,.62-1.92l1.16-.56a1.19,1.19,0,0,1,1.58.86L300.36,320A1.57,1.57,0,0,1,299.75,321.93Z" transform="translate(-254.48 -226.77)" fill="#e30613" stroke="#e30613" stroke-miterlimit="10" stroke-width="0.42"/><path d="M292.09,291.21l-6.31,3.05a.34.34,0,0,1-.44-.24l-.34-1a.43.43,0,0,1,.17-.54l6.31-3a.33.33,0,0,1,.44.24l.34,1A.42.42,0,0,1,292.09,291.21Z" transform="translate(-254.48 -226.77)" fill="#e30613" stroke="#e30613" stroke-miterlimit="10" stroke-width="0.42"/><path d="M294,296.48l-6.35,3.07a.31.31,0,0,1-.4-.23l-.37-1.05a.41.41,0,0,1,.16-.5l6.35-3.06a.3.3,0,0,1,.41.22l.36,1.05A.4.4,0,0,1,294,296.48Z" transform="translate(-254.48 -226.77)" fill="#e30613" stroke="#e30613" stroke-miterlimit="10" stroke-width="0.42"/><path d="M295.77,301.85l-6.3,3a.34.34,0,0,1-.45-.25l-.34-1a.45.45,0,0,1,.18-.54l6.3-3a.33.33,0,0,1,.44.24l.34,1A.43.43,0,0,1,295.77,301.85Z" transform="translate(-254.48 -226.77)" fill="#e30613" stroke="#e30613" stroke-miterlimit="10" stroke-width="0.42"/><path d="M297.72,307.12l-6.36,3.07c-.15.08-.33,0-.4-.22l-.37-1.06a.39.39,0,0,1,.16-.49l6.36-3.07c.15-.08.33,0,.4.22l.37,1.06A.39.39,0,0,1,297.72,307.12Z" transform="translate(-254.48 -226.77)" fill="#e30613" stroke="#e30613" stroke-miterlimit="10" stroke-width="0.42"/><path d="M299.57,312.44l-6.37,3.08a.3.3,0,0,1-.39-.22l-.38-1.08a.4.4,0,0,1,.15-.48l6.34-3.06a.34.34,0,0,1,.45.25l.36,1A.4.4,0,0,1,299.57,312.44Z" transform="translate(-254.48 -226.77)" fill="#e30613" stroke="#e30613" stroke-miterlimit="10" stroke-width="0.42"/><path d="M301.3,317.81,295,320.86a.34.34,0,0,1-.44-.24l-.34-1a.42.42,0,0,1,.17-.53l6.3-3a.35.35,0,0,1,.45.24l.34,1A.43.43,0,0,1,301.3,317.81Z" transform="translate(-254.48 -226.77)" fill="#e30613" stroke="#e30613" stroke-miterlimit="10" stroke-width="0.42"/><line x1="45.25" y1="85.47" x2="40.29" y2="94.09" fill="#e30613" stroke="#e30613" stroke-linecap="round" stroke-miterlimit="10" stroke-width="0.42"/><line x1="44.66" y1="83.91" x2="39.72" y2="92.55" fill="#e30613" stroke="#e30613" stroke-linecap="round" stroke-miterlimit="10" stroke-width="0.42"/><line x1="43.41" y1="80.09" x2="38.52" y2="88.75" fill="#e30613" stroke="#e30613" stroke-linecap="round" stroke-miterlimit="10" stroke-width="0.42"/><line x1="42.86" y1="78.61" x2="37.96" y2="87.15" fill="#e30613" stroke="#e30613" stroke-linecap="round" stroke-miterlimit="10" stroke-width="0.42"/><line x1="41.45" y1="74.9" x2="36.68" y2="83.42" fill="#e30613" stroke="#e30613" stroke-linecap="round" stroke-miterlimit="10" stroke-width="0.42"/><line x1="40.91" y1="73.31" x2="36.11" y2="81.86" fill="#e30613" stroke="#e30613" stroke-linecap="round" stroke-miterlimit="10" stroke-width="0.42"/><line x1="39.72" y1="69.49" x2="34.72" y2="78.1" fill="#e30613" stroke="#e30613" stroke-linecap="round" stroke-miterlimit="10" stroke-width="0.42"/><line x1="39.14" y1="67.93" x2="34.21" y2="76.53" fill="#e30613" stroke="#e30613" stroke-linecap="round" stroke-miterlimit="10" stroke-width="0.42"/><line x1="37.78" y1="64.23" x2="32.99" y2="72.78" fill="#e30613" stroke="#e30613" stroke-linecap="round" stroke-miterlimit="10" stroke-width="0.42"/><line x1="37.22" y1="62.66" x2="32.45" y2="71.15" fill="#e30613" stroke="#e30613" stroke-linecap="round" stroke-miterlimit="10" stroke-width="0.42"/><path d="M293.94,319.08" transform="translate(-254.48 -226.77)" fill="#e30613" stroke="#e30613" stroke-miterlimit="10" stroke-width="0.42"/><path d="M288.26,280,282,283a1.32,1.32,0,0,1-1.75-.95l-1.3-3.78a1.72,1.72,0,0,1,.68-2.12l6.28-3a1.31,1.31,0,0,1,1.74,1l1.31,3.77A1.74,1.74,0,0,1,288.26,280Z" transform="translate(-254.48 -226.77)" fill="#e30613" stroke="#e30613" stroke-miterlimit="10" stroke-width="0.42"/></g><g id="CHID_DENT_Post_K_2"><path d="M276.19,286.81l-10,1.15c-.37,0-.69-.3-.72-.77l-.19-3.33a.82.82,0,0,1,.62-.92l10-1.14a.72.72,0,0,1,.72.76l.19,3.34A.82.82,0,0,1,276.19,286.81Z" transform="translate(-254.48 -226.77)" fill="#e30613" stroke="#e30613" stroke-miterlimit="10" stroke-width="0.42"/><path d="M274,326.85l-1.26.14c-.66.08-1.23-.53-1.27-1.35l-2.16-37.36a1.46,1.46,0,0,1,1.11-1.62l1.26-.15c.65-.07,1.22.53,1.27,1.36l2.15,37.36A1.45,1.45,0,0,1,274,326.85Z" transform="translate(-254.48 -226.77)" fill="#e30613" stroke="#e30613" stroke-miterlimit="10" stroke-width="0.42"/><path d="M275,295l-6.84.78a.36.36,0,0,1-.35-.38l-.07-1.07a.41.41,0,0,1,.31-.45l6.84-.78a.35.35,0,0,1,.35.37l.06,1.08A.4.4,0,0,1,275,295Z" transform="translate(-254.48 -226.77)" fill="#e30613" stroke="#e30613" stroke-miterlimit="10" stroke-width="0.42"/><path d="M275.42,300.66l-6.88.79a.34.34,0,0,1-.33-.36l-.06-1.12a.38.38,0,0,1,.28-.42l6.88-.79a.33.33,0,0,1,.33.35l.07,1.13A.39.39,0,0,1,275.42,300.66Z" transform="translate(-254.48 -226.77)" fill="#e30613" stroke="#e30613" stroke-miterlimit="10" stroke-width="0.42"/><path d="M275.64,306.37l-6.83.78c-.19,0-.35-.15-.36-.39l-.06-1.05a.42.42,0,0,1,.31-.46l6.83-.78c.18,0,.34.15.36.38l.06,1.06A.42.42,0,0,1,275.64,306.37Z" transform="translate(-254.48 -226.77)" fill="#e30613" stroke="#e30613" stroke-miterlimit="10" stroke-width="0.42"/><path d="M276.08,312.05l-6.89.79a.34.34,0,0,1-.32-.35l-.07-1.14a.38.38,0,0,1,.28-.41l6.89-.79a.33.33,0,0,1,.33.35l.07,1.13A.39.39,0,0,1,276.08,312.05Z" transform="translate(-254.48 -226.77)" fill="#e30613" stroke="#e30613" stroke-miterlimit="10" stroke-width="0.42"/><path d="M276.42,317.74l-6.91.79c-.16,0-.3-.13-.31-.34l-.07-1.15a.37.37,0,0,1,.27-.41l6.87-.78a.37.37,0,0,1,.36.39l.06,1.1A.36.36,0,0,1,276.42,317.74Z" transform="translate(-254.48 -226.77)" fill="#e30613" stroke="#e30613" stroke-miterlimit="10" stroke-width="0.42"/><path d="M276.62,323.45l-6.83.78c-.18,0-.34-.15-.36-.38l-.06-1.06a.42.42,0,0,1,.31-.46l6.83-.78a.36.36,0,0,1,.36.38l.06,1.07A.4.4,0,0,1,276.62,323.45Z" transform="translate(-254.48 -226.77)" fill="#e30613" stroke="#e30613" stroke-miterlimit="10" stroke-width="0.42"/><line x1="22.14" y1="90.84" x2="15.1" y2="97.39" fill="#e30613" stroke="#e30613" stroke-linecap="round" stroke-miterlimit="10" stroke-width="0.42"/><line x1="22" y1="89.15" x2="14.96" y2="95.72" fill="#e30613" stroke="#e30613" stroke-linecap="round" stroke-miterlimit="10" stroke-width="0.42"/><line x1="21.84" y1="85.09" x2="14.84" y2="91.7" fill="#e30613" stroke="#e30613" stroke-linecap="round" stroke-miterlimit="10" stroke-width="0.42"/><line x1="21.71" y1="83.49" x2="14.73" y2="89.98" fill="#e30613" stroke="#e30613" stroke-linecap="round" stroke-miterlimit="10" stroke-width="0.42"/><line x1="21.36" y1="79.48" x2="14.52" y2="86" fill="#e30613" stroke="#e30613" stroke-linecap="round" stroke-miterlimit="10" stroke-width="0.42"/><line x1="21.27" y1="77.78" x2="14.39" y2="84.32" fill="#e30613" stroke="#e30613" stroke-linecap="round" stroke-miterlimit="10" stroke-width="0.42"/><line x1="21.16" y1="73.73" x2="14.07" y2="80.26" fill="#e30613" stroke="#e30613" stroke-linecap="round" stroke-miterlimit="10" stroke-width="0.42"/><line x1="21.03" y1="72.06" x2="14.02" y2="78.6" fill="#e30613" stroke="#e30613" stroke-linecap="round" stroke-miterlimit="10" stroke-width="0.42"/><line x1="20.72" y1="68.07" x2="13.86" y2="74.61" fill="#e30613" stroke="#e30613" stroke-linecap="round" stroke-miterlimit="10" stroke-width="0.42"/><line x1="20.61" y1="66.38" x2="13.78" y2="72.87" fill="#e30613" stroke="#e30613" stroke-linecap="round" stroke-miterlimit="10" stroke-width="0.42"/><path d="M269.27,322.18" transform="translate(-254.48 -226.77)" fill="#e30613" stroke="#e30613" stroke-miterlimit="10" stroke-width="0.42"/><path d="M274.34,283l-6.8.78a1.41,1.41,0,0,1-1.41-1.49l-.24-4a1.62,1.62,0,0,1,1.22-1.79l6.81-.78a1.42,1.42,0,0,1,1.41,1.5l.23,4A1.6,1.6,0,0,1,274.34,283Z" transform="translate(-254.48 -226.77)" fill="#e30613" stroke="#e30613" stroke-miterlimit="10" stroke-width="0.42"/></g></g><g id="CHID_DENT_Periodental_K"><path id="CHID_DENT_Left_Periodental_K" d="M260.3,287.64c.16.27-.45.69-.74,1.78s0,1.95.37,3.55c.65,2.7.32,2.17.86,4.24,1,3.82,1.94,5,1.46,5.61s-2.1.15-3.17-.82c-.79-.71-1.18-1.61-2.08-7.39-.6-3.86-.62-4.67-.12-5.47C257.84,287.6,260,287.18,260.3,287.64Z" transform="translate(-254.48 -226.77)" fill="#e30613" stroke="#e30613" stroke-miterlimit="10" stroke-width="0.42"/><path id="CHID_DENT_Right_Periodental_K" d="M297.9,285c0,.15.87.17,1.34,1,.29.47.3,1,.13,2.46-.2,1.68-.45,2.94-.49,3.15-.48,2.37-.57,2.38-.73,3.55s0,.75-.25,3c-.19,2.07-.3,2.55,0,2.87.45.47,1.51.29,2.2-.27s.85-1.38,1.34-4.93c.52-3.75.58-4.49.61-5,.17-2.77.24-4.16-.36-4.93A3.47,3.47,0,0,0,297.9,285Z" transform="translate(-254.48 -226.77)" fill="#e30613" stroke="#e30613" stroke-miterlimit="10" stroke-width="0.42"/></g><g id="CHID_DENT_Implant_K"><path d="M291.22,292.78l-23.19,0c-.86,0-1.55-.44-1.54-1l.05-4c0-.56.71-1,1.57-1l23.18-.05c.86,0,1.55.45,1.55,1l-.06,4C292.78,292.32,292.08,292.78,291.22,292.78Z" transform="translate(-254.48 -226.77)" fill="#e30613" stroke="#e30613" stroke-miterlimit="10" stroke-width="0.42"/><path d="M280.33,340.15H277.4c-1.52,0-2.74-.79-2.73-1.78l.58-44.76c0-1,1.25-1.78,2.77-1.78H281c1.52,0,2.75.79,2.73,1.78l-.57,44.75C283.09,339.35,281.85,340.15,280.33,340.15Z" transform="translate(-254.48 -226.77)" fill="#e30613" stroke="#e30613" stroke-miterlimit="10" stroke-width="0.42"/><path d="M287.23,302.34l-15.87,0c-.42,0-.76-.22-.76-.5l0-1.28c0-.27.35-.5.77-.5l15.87,0c.42,0,.76.22.76.49l0,1.29C288,302.11,287.65,302.33,287.23,302.34Z" transform="translate(-254.48 -226.77)" fill="#e30613" stroke="#e30613" stroke-miterlimit="10" stroke-width="0.42"/><path d="M287.39,309.16l-16,0c-.4,0-.71-.21-.71-.46l0-1.35c0-.26.32-.46.72-.47l16,0c.4,0,.72.21.71.46v1.35C288.11,309,287.79,309.16,287.39,309.16Z" transform="translate(-254.48 -226.77)" fill="#e30613" stroke="#e30613" stroke-miterlimit="10" stroke-width="0.42"/><path d="M287,316l-15.84,0c-.43,0-.78-.22-.77-.5v-1.27c0-.28.36-.5.79-.5l15.84,0c.43,0,.77.23.77.51l0,1.26C287.82,315.75,287.47,316,287,316Z" transform="translate(-254.48 -226.77)" fill="#e30613" stroke="#e30613" stroke-miterlimit="10" stroke-width="0.42"/><path d="M287.23,322.8l-16,0c-.39,0-.7-.2-.7-.45l0-1.37c0-.25.32-.45.71-.45l16,0c.39,0,.7.2.7.45l0,1.36C287.94,322.59,287.62,322.8,287.23,322.8Z" transform="translate(-254.48 -226.77)" fill="#e30613" stroke="#e30613" stroke-miterlimit="10" stroke-width="0.42"/><path d="M287.16,329.62l-16,0c-.38,0-.68-.19-.68-.44l0-1.39c0-.24.31-.44.69-.44l15.93,0c.43,0,.78.22.78.51l0,1.32C287.85,329.42,287.54,329.62,287.16,329.62Z" transform="translate(-254.48 -226.77)" fill="#e30613" stroke="#e30613" stroke-miterlimit="10" stroke-width="0.42"/><path d="M286.78,336.44l-15.85,0c-.43,0-.77-.23-.77-.5l0-1.28c0-.27.35-.5.78-.5l15.85,0c.43,0,.77.22.77.5l0,1.27C287.56,336.22,287.21,336.44,286.78,336.44Z" transform="translate(-254.48 -226.77)" fill="#e30613" stroke="#e30613" stroke-miterlimit="10" stroke-width="0.42"/><line x1="33.16" y1="102.72" x2="15.97" y2="109.59" fill="#e30613" stroke="#e30613" stroke-linecap="round" stroke-miterlimit="10" stroke-width="0.42"/><line x1="33.1" y1="100.69" x2="15.91" y2="107.59" fill="#e30613" stroke="#e30613" stroke-linecap="round" stroke-miterlimit="10" stroke-width="0.42"/><line x1="33.32" y1="95.83" x2="16.23" y2="102.78" fill="#e30613" stroke="#e30613" stroke-linecap="round" stroke-miterlimit="10" stroke-width="0.42"/><line x1="33.25" y1="93.92" x2="16.23" y2="100.73" fill="#e30613" stroke="#e30613" stroke-linecap="round" stroke-miterlimit="10" stroke-width="0.42"/><line x1="33.05" y1="89.09" x2="16.32" y2="95.96" fill="#e30613" stroke="#e30613" stroke-linecap="round" stroke-miterlimit="10" stroke-width="0.42"/><line x1="33.09" y1="87.06" x2="16.27" y2="93.94" fill="#e30613" stroke="#e30613" stroke-linecap="round" stroke-miterlimit="10" stroke-width="0.42"/><line x1="33.45" y1="82.23" x2="16.15" y2="89.07" fill="#e30613" stroke="#e30613" stroke-linecap="round" stroke-miterlimit="10" stroke-width="0.42"/><line x1="33.38" y1="80.22" x2="16.26" y2="87.08" fill="#e30613" stroke="#e30613" stroke-linecap="round" stroke-miterlimit="10" stroke-width="0.42"/><line x1="33.28" y1="75.43" x2="16.49" y2="82.31" fill="#e30613" stroke="#e30613" stroke-linecap="round" stroke-miterlimit="10" stroke-width="0.42"/><line x1="33.26" y1="73.4" x2="16.57" y2="80.23" fill="#e30613" stroke="#e30613" stroke-linecap="round" stroke-miterlimit="10" stroke-width="0.42"/><path d="M270,334" transform="translate(-254.48 -226.77)" fill="#e30613" stroke="#e30613" stroke-miterlimit="10" stroke-width="0.42"/><path d="M287.53,288l-15.81,0c-1.68,0-3-.88-3-2l.06-4.84c0-1.09,1.39-2,3.08-2l15.8,0c1.68,0,3,.88,3,2L290.6,286C290.58,287.1,289.21,288,287.53,288Z" transform="translate(-254.48 -226.77)" fill="#e30613" stroke="#e30613" stroke-miterlimit="10" stroke-width="0.42"/></g><g id="CHID_DENT_Periapical_K"><path id="CHID_DENT_Periapical_K_1" d="M296.89,329c.09-.1.59.4,1.69,1.24.75.57.72.5,2.33,1.63,1.79,1.26,1.69,1.26,2.74,2a14.21,14.21,0,0,0,2.8,1.5,2.69,2.69,0,0,0,1.81.26,2,2,0,0,0,1.28-1,3,3,0,0,0,.17-1.77,9.91,9.91,0,0,0-.64-2.61L307.5,326c-.7-1.91-.6-1.82-1-2.74-.66-1.58-1.15-2.34-1-2.49s1.09.58,1.8,1.38c1.07,1.18,1.58,2.38,2.69,5.55,1.54,4.43,1.64,5.3,1.69,5.81.15,1.71.32,3.72-.7,4.63s-3.11.14-5.08-.72a16.81,16.81,0,0,1-4-2.54c-.45-.38-1-.95-2.21-2.09a15.42,15.42,0,0,1-1.75-1.9C297.46,330.19,296.76,329.13,296.89,329Z" transform="translate(-254.48 -226.77)" fill="#be1622" stroke="#be1622" stroke-miterlimit="10" stroke-width="0.42"/><path id="CHID_DENT_Periapical_K_2" d="M281.61,325.53c-.22.27.31.94,1,2.74.3.8.59,2,1.16,4.25a9,9,0,0,1,.35,3.2,2.5,2.5,0,0,1-.41,1.3,2.19,2.19,0,0,1-1.4.85,3.38,3.38,0,0,1-2.21-.46,14.32,14.32,0,0,1-3.62-2.48c-1.32-1.22-1.85-2-2-1.89s.23,1.58.94,2.74a8.32,8.32,0,0,0,4,3.26,5.44,5.44,0,0,0,3.79.72A4.31,4.31,0,0,0,286,337.5c.5-1.11.33-2.17.07-3.87-.18-1.09-.28-1-1-3.59-.61-2.26-.65-2.8-1.22-3.46C283.06,325.68,281.89,325.2,281.61,325.53Z" transform="translate(-254.48 -226.77)" fill="#be1622" stroke="#be1622" stroke-miterlimit="10" stroke-width="0.42"/></g><path id="CHID_DENT_Occlusal_Veneer_K" d="M292.36,263.51a10,10,0,0,0-6.51.52c-2.37,1.1-3.33,2.84-5.49,2.82-1.57,0-2.58-1-3.61-1.67-1.94-1.36-5.11-2.74-10.35-2.46a9.9,9.9,0,0,0-4.87,1.49,11.1,11.1,0,0,0-2,1.57c-.7,1.24-1.4,2.49-2.11,3.73h0l1,.45h39.23a2,2,0,0,0,.51-1.09,2.18,2.18,0,0,0-.26-1.34l-.91-1.38a16.37,16.37,0,0,0-1.74-1.24A14.82,14.82,0,0,0,292.36,263.51Z" transform="translate(-254.48 -226.77)" fill="#e30613" stroke="#e30613" stroke-miterlimit="10" stroke-width="1.27"/><g id="CHID_DENT_Endo_Crown_K"><path id="CHID_DENT_Endo_Crown_1K" d="M273.21,277.65l9.57-.24,1.49-6.38a.23.23,0,0,0-.2-.3l-12.49,0a.24.24,0,0,0-.2.32Z" transform="translate(-254.48 -226.77)" fill="#e30613" stroke="#e30613" stroke-miterlimit="10" stroke-width="1.27"/><path id="CHID_DENT_Endo_Crown_2K" d="M292.38,263.36a10,10,0,0,0-6.51.53c-2.37,1.09-3.33,2.83-5.49,2.81-1.57,0-2.58-1-3.61-1.67-1.94-1.36-5.11-2.73-10.35-2.46a10,10,0,0,0-4.87,1.49,11.1,11.1,0,0,0-2,1.57l-2.11,3.74h0l1,.45h39.23a2.16,2.16,0,0,0,.51-1.1,2.2,2.2,0,0,0-.26-1.34L297,266a16.37,16.37,0,0,0-1.74-1.25A15.42,15.42,0,0,0,292.38,263.36Z" transform="translate(-254.48 -226.77)" fill="#e30613" stroke="#e30613" stroke-miterlimit="10" stroke-width="1.27"/></g></g></svg>