<svg id="CHID_DENT_all" xmlns="http://www.w3.org/2000/svg" viewBox="0 0 57.52 113.59"><g id="CHID_DENT_L_all"><text transform="translate(21.88 21.89) scale(0.89 1)" font-size="29.89" fill="#1d1d1b" font-family="AdobeArabic-Regular, Adobe Arabic">L</text><g id="CHID_DENT_L"><path id="CHID_DENT_ROOT_L" d="M262.69,288.25c-.59,1.28-.3,2.12.83,8.57,1.34,7.66-.42-1.26,2.12,12.92,1.28,7.13,1.92,10.71,2.24,11.61.86,2.44,2.82,7.8,7.55,11.73s10.7,5.25,11.34,4c.4-.8-1.63-2.15-3.68-6a28,28,0,0,1-2.95-9.23c-1-6.57,0-15.68,2.83-16.36,1.58-.38,3.75,2.91,8,9.5,4.41,6.81,5.14,9.11,8.61,13.58,2,2.64,6.91,8.92,8.84,7.78,2.24-1.32-.51-12-.71-12.79-1.25-4.79-2.21-5.1-3.18-9.89a52.14,52.14,0,0,1-.95-9.76c0-1.86.06-4.31.24-9.21.21-5.85.33-7.21-.59-8.06-1.21-1.13-2.82-.08-6.37.26-1.5.14-2.43.07-8.37-.79-12.35-1.8-11.87-2-13.91-2C270.91,284.22,264.51,284.32,262.69,288.25Z" transform="translate(-254.49 -226.77)" fill="none" stroke="#1d1d1b" stroke-miterlimit="10" stroke-width="1.25"/><g id="CHID_DENT_CROWN_L"><path id="CHID_DENT_CROWN_L1" d="M273,263.19c-1.9-.58-1.88-2.11-4.24-2.9-1.72-.57-2,.13-5.55,0-3.22-.12-3.66-.74-4.71-.13-1.52.87-2,3-2.6,5.93a19.89,19.89,0,0,0-.47,8.31c.26,1.38,1.31,3.47,3.42,7.65,2,4,2.59,4.71,3.42,4.88,1.52.31,2.12-1.49,4.72-2.77,2.1-1,4-.91,7.9-.66,2.71.18,3.43.51,7.78,1.19,3.31.51,5.8.77,7.31.92,10.39,1.07,12.38,0,13.44-.66a11.59,11.59,0,0,0,3.77-4.35c.51-1,1-2.35,1.42-7.25.49-6,.72-9-.48-10.42a6.31,6.31,0,0,0-5.77-1.72c-1.31.26-1.27.75-2.83,1.06-.51.1-1.82.31-5.07-.4A35.39,35.39,0,0,1,291,261a20.22,20.22,0,0,0-11-.26C276.09,261.85,275.28,263.9,273,263.19Z" transform="translate(-254.49 -226.77)" fill="none" stroke="#1d1d1b" stroke-miterlimit="10" stroke-width="1.25"/><path id="CHID_DENT_CROWN_L2" d="M270.12,259.89c.21-.85,2.84-.71,3.89-.65s3.64.19,3.77,1.05-1.94,2.38-4,2.24S269.92,260.69,270.12,259.89Z" transform="translate(-254.49 -226.77)" fill="none" stroke="#1d1d1b" stroke-miterlimit="10" stroke-width="1.25"/><path id="CHID_DENT_CROWN_L3" d="M291.93,260.29c-.05-.75,2.27-1.76,4.36-1.85,2.47-.09,5,1.08,5,1.85s-3.41,1.17-3.66,1.19C295.11,261.68,292,261.15,291.93,260.29Z" transform="translate(-254.49 -226.77)" fill="none" stroke="#1d1d1b" stroke-miterlimit="10" stroke-width="1.25"/></g></g><path id="CHID_DENT_fiiling-caries_class_I_L" d="M292.57,274.82H274.35a4.4,4.4,0,0,1-4.13-4.62v-5.07c.06-1.12.23-2.43.69-2.53s.66.61,1.07,1c.76.69,2.43.74,6.38-1.82a19.38,19.38,0,0,1,3.72-.92,21.6,21.6,0,0,1,6.23.09c1.12.15,2,.34,2.25.4,2.38.52,2.28.85,3.91,1.09.9.13,1.32.09,1.71.5a2.93,2.93,0,0,1,.52,2.21v5.07A4.4,4.4,0,0,1,292.57,274.82Z" transform="translate(-254.49 -226.77)" fill="#be1622" stroke="#be1622" stroke-miterlimit="10" stroke-width="0.42" opacity="0.79"/><path id="CHID_DENT_fiiling_caries_class_IV_Mesial_L" d="M257.45,277.69h10.94a2.73,2.73,0,0,0,1.09-.92,3.17,3.17,0,0,0,.54-1.83V264.21c.21-.35.86-1.52.47-2.18-.14-.24-.36-.31-1.17-.61l-1.62-.59a16.48,16.48,0,0,1-4,.42,15.62,15.62,0,0,1-3.75-.53,1.85,1.85,0,0,0-1.32,0,2.46,2.46,0,0,0-1.33,2.19,22.35,22.35,0,0,0-1.56,7.23,22.9,22.9,0,0,0,.16,3.84,11,11,0,0,0,.7,2.18A10.51,10.51,0,0,0,257.45,277.69Z" transform="translate(-254.49 -226.77)" fill="#be1622" stroke="#be1622" stroke-miterlimit="10" stroke-width="0.42" opacity="0.79"/><path id="CHID_DENT_filling_caries_Class_IV_Distal_L" d="M296.18,262.92c-.23.37.06.94.29,1.56.56,1.5.5,3.58.39,7.75-.09,3.43-.35,3.85.11,4.4.75.9,1.8.15,5.68,0,3-.12,4.69.22,5.17-.81.15-.34.05-.52,0-1.51a27.55,27.55,0,0,1,.31-3.93c.14-1.84,0-1,.1-4.39a4.29,4.29,0,0,0-.2-2.08,3.43,3.43,0,0,0-1.76-1.62,5.43,5.43,0,0,0-3.1-.46c-1.7.22-1.68.91-3.21,1.16C297.93,263.31,296.58,262.28,296.18,262.92Z" transform="translate(-254.49 -226.77)" fill="#be1622" stroke="#be1622" stroke-miterlimit="10" stroke-width="0.42" opacity="0.79"/><rect id="CHID_DENT_filling_caries_Class_V_L" x="22.48" y="52.19" width="9.74" height="3.04" rx="0.87" fill="#be1622" stroke="#be1622" stroke-miterlimit="10" stroke-width="0.42" opacity="0.79"/><path id="CHID_DENT_filling_caries_Class_III_Mesial_L" d="M307.81,275.06l-8.1.63a2.11,2.11,0,0,1-2-2.21V272.2a2.11,2.11,0,0,1,2-2.21l8.35.7h0C308,272.15,307.89,273.6,307.81,275.06Z" transform="translate(-254.49 -226.77)" fill="#be1622" stroke="#be1622" stroke-miterlimit="10" stroke-width="0.42" opacity="0.79"/><path id="CHID_DENT_filling_caries_Class_III_Distal_L" d="M263.89,275.16l-7.63-.65h0l-.08-.12L255.8,270h0l8.09-.57a2.1,2.1,0,0,1,2,2.21v1.28A2.1,2.1,0,0,1,263.89,275.16Z" transform="translate(-254.49 -226.77)" fill="#be1622" stroke="#be1622" stroke-miterlimit="10" stroke-width="0.42" opacity="0.79"/><g id="CHID_DENT_EndoL"><path id="CHID_DENT_Endo1_L" d="M277.73,285.43c-.8-.67-2.31-.6-5.33-.48s-4.67.2-5.54,1.08c-1.33,1.33-1,3.58,0,10.73,1.61,12,1.44,11.95,2.13,14.9a50.86,50.86,0,0,0,3.3,10.73c3.5,7.57,9,12.81,9.81,12.16.56-.46-1.79-3.53-3.2-10-.7-3.26-.8-5.92-1-11.09-.11-3.84-.25-8.32.11-14.43C278.56,290.4,279.57,287,277.73,285.43Z" transform="translate(-254.49 -226.77)" fill="#be1622" stroke="#e30613" stroke-miterlimit="10" stroke-width="0.42"/><path id="CHID_DENT_Endo2_L" d="M286.26,286.38c.19-.13,2.26.19,6.39.84a18.52,18.52,0,0,0,3.31.36c2.87,0,3.64-1,4.48-.6,2.12.92-.24,8.14.53,16.57.71,7.78,3.46,9.84,6.5,25.4.64,3.28.82,4.72.32,5-1.59.92-8.72-10.61-13.54-20.27C287.87,300.88,283.94,288.09,286.26,286.38Z" transform="translate(-254.49 -226.77)" fill="#be1622" stroke="#e30613" stroke-miterlimit="10" stroke-width="0.42"/></g><g id="CHID_DENT_Post_L"><g id="CHID_DENT_Post_L_1"><path d="M297.84,283.58l-9.48,3c-.36.11-.72-.16-.81-.62l-.68-3.26a.87.87,0,0,1,.47-1l9.49-3c.35-.11.71.17.8.62l.68,3.26A.88.88,0,0,1,297.84,283.58Z" transform="translate(-254.49 -226.77)" fill="#e30613" stroke="#e30613" stroke-miterlimit="10" stroke-width="0.42"/><path d="M301.64,323.59l-1.2.38c-.62.2-1.26-.29-1.42-1.1l-7.57-36.55a1.53,1.53,0,0,1,.83-1.81l1.19-.39c.63-.19,1.27.3,1.43,1.1l7.57,36.56A1.55,1.55,0,0,1,301.64,323.59Z" transform="translate(-254.49 -226.77)" fill="#e30613" stroke="#e30613" stroke-miterlimit="10" stroke-width="0.42"/><path d="M297.88,291.88l-6.5,2.06c-.17.06-.35-.08-.39-.3l-.22-1.05a.42.42,0,0,1,.23-.5l6.49-2.07c.17,0,.35.09.4.31l.21,1.05A.42.42,0,0,1,297.88,291.88Z" transform="translate(-254.49 -226.77)" fill="#e30613" stroke="#e30613" stroke-miterlimit="10" stroke-width="0.42"/><path d="M299.13,297.42l-6.53,2.07c-.16.06-.33-.07-.37-.28l-.23-1.1a.39.39,0,0,1,.22-.47l6.53-2.08c.16-.05.33.08.37.29l.23,1.1A.41.41,0,0,1,299.13,297.42Z" transform="translate(-254.49 -226.77)" fill="#e30613" stroke="#e30613" stroke-miterlimit="10" stroke-width="0.42"/><path d="M300.18,303l-6.48,2.05c-.18.06-.36-.08-.41-.31l-.21-1a.43.43,0,0,1,.23-.51l6.48-2.06c.18-.06.36.08.41.31l.21,1A.45.45,0,0,1,300.18,303Z" transform="translate(-254.49 -226.77)" fill="#e30613" stroke="#e30613" stroke-miterlimit="10" stroke-width="0.42"/><path d="M301.44,308.56l-6.54,2.08c-.16.05-.32-.08-.36-.28l-.23-1.11a.39.39,0,0,1,.21-.47l6.54-2.08c.16-.05.32.08.36.28l.23,1.12A.38.38,0,0,1,301.44,308.56Z" transform="translate(-254.49 -226.77)" fill="#e30613" stroke="#e30613" stroke-miterlimit="10" stroke-width="0.42"/><path d="M302.6,314.13l-6.55,2.08a.3.3,0,0,1-.36-.27l-.23-1.13a.39.39,0,0,1,.2-.45l6.52-2.07c.18-.06.36.08.41.31l.22,1.08A.38.38,0,0,1,302.6,314.13Z" transform="translate(-254.49 -226.77)" fill="#e30613" stroke="#e30613" stroke-miterlimit="10" stroke-width="0.42"/><path d="M303.64,319.74l-6.49,2.06c-.17.06-.35-.08-.4-.31l-.21-1a.43.43,0,0,1,.23-.51l6.48-2.06a.34.34,0,0,1,.4.31l.22,1A.43.43,0,0,1,303.64,319.74Z" transform="translate(-254.49 -226.77)" fill="#e30613" stroke="#e30613" stroke-miterlimit="10" stroke-width="0.42"/><line x1="48.28" y1="87.19" x2="42.44" y2="95" fill="#e30613" stroke="#e30613" stroke-linecap="round" stroke-miterlimit="10" stroke-width="0.42"/><line x1="47.91" y1="85.55" x2="42.07" y2="93.38" fill="#e30613" stroke="#e30613" stroke-linecap="round" stroke-miterlimit="10" stroke-width="0.42"/><line x1="47.15" y1="81.56" x2="41.36" y2="89.41" fill="#e30613" stroke="#e30613" stroke-linecap="round" stroke-miterlimit="10" stroke-width="0.42"/><line x1="46.79" y1="80.01" x2="41" y2="87.74" fill="#e30613" stroke="#e30613" stroke-linecap="round" stroke-miterlimit="10" stroke-width="0.42"/><line x1="45.86" y1="76.1" x2="40.21" y2="83.84" fill="#e30613" stroke="#e30613" stroke-linecap="round" stroke-miterlimit="10" stroke-width="0.42"/><line x1="45.53" y1="74.43" x2="39.84" y2="82.2" fill="#e30613" stroke="#e30613" stroke-linecap="round" stroke-miterlimit="10" stroke-width="0.42"/><line x1="44.83" y1="70.45" x2="38.94" y2="78.25" fill="#e30613" stroke="#e30613" stroke-linecap="round" stroke-miterlimit="10" stroke-width="0.42"/><line x1="44.45" y1="68.82" x2="38.64" y2="76.61" fill="#e30613" stroke="#e30613" stroke-linecap="round" stroke-miterlimit="10" stroke-width="0.42"/><line x1="43.57" y1="64.93" x2="37.9" y2="72.69" fill="#e30613" stroke="#e30613" stroke-linecap="round" stroke-miterlimit="10" stroke-width="0.42"/><line x1="43.21" y1="63.28" x2="37.57" y2="70.99" fill="#e30613" stroke="#e30613" stroke-linecap="round" stroke-miterlimit="10" stroke-width="0.42"/><path d="M296.34,319.87" transform="translate(-254.49 -226.77)" fill="#e30613" stroke="#e30613" stroke-miterlimit="10" stroke-width="0.42"/><path d="M295.5,280.15,289,282.2c-.69.22-1.39-.32-1.58-1.21l-.82-4a1.71,1.71,0,0,1,.92-2l6.46-2c.69-.22,1.4.33,1.58,1.22l.82,3.95A1.72,1.72,0,0,1,295.5,280.15Z" transform="translate(-254.49 -226.77)" fill="#e30613" stroke="#e30613" stroke-miterlimit="10" stroke-width="0.42"/></g><g id="CHID_DENT_Post_L_2"><path d="M279.81,283.09,270,283c-.36,0-.64-.42-.62-.93l.14-3.66c0-.51.33-.91.7-.91l9.84.14c.36,0,.64.42.62.93l-.14,3.66C280.48,282.69,280.17,283.09,279.81,283.09Z" transform="translate(-254.49 -226.77)" fill="#e30613" stroke="#e30613" stroke-miterlimit="10" stroke-width="0.42"/><path d="M273.76,326.38l-1.24,0c-.65,0-1.14-.75-1.11-1.65l1.59-41c0-.9.59-1.62,1.24-1.61h1.24c.64,0,1.14.75,1.1,1.65l-1.59,41C275,325.67,274.41,326.39,273.76,326.38Z" transform="translate(-254.49 -226.77)" fill="#e30613" stroke="#e30613" stroke-miterlimit="10" stroke-width="0.42"/><path d="M277.83,291.81l-6.74-.1c-.18,0-.32-.2-.31-.45l.05-1.18c0-.25.16-.45.34-.45l6.74.1c.18,0,.31.2.3.45l0,1.18C278.16,291.61,278,291.81,277.83,291.81Z" transform="translate(-254.49 -226.77)" fill="#e30613" stroke="#e30613" stroke-miterlimit="10" stroke-width="0.42"/><path d="M277.69,298.06l-6.78-.1c-.16,0-.29-.19-.28-.43l.05-1.23a.38.38,0,0,1,.32-.42l6.77.09a.38.38,0,0,1,.29.43l-.05,1.24C278,297.87,277.86,298.06,277.69,298.06Z" transform="translate(-254.49 -226.77)" fill="#e30613" stroke="#e30613" stroke-miterlimit="10" stroke-width="0.42"/><path d="M277.34,304.3l-6.73-.1c-.18,0-.32-.21-.31-.46l0-1.16c0-.26.17-.46.35-.46l6.73.1c.18,0,.32.21.31.46l-.05,1.16C277.67,304.1,277.52,304.3,277.34,304.3Z" transform="translate(-254.49 -226.77)" fill="#e30613" stroke="#e30613" stroke-miterlimit="10" stroke-width="0.42"/><path d="M277.21,310.55l-6.79-.1c-.16,0-.29-.19-.28-.42l.05-1.25c0-.23.15-.41.32-.41l6.78.09c.17,0,.29.2.29.43l-.05,1.24C277.52,310.36,277.38,310.55,277.21,310.55Z" transform="translate(-254.49 -226.77)" fill="#e30613" stroke="#e30613" stroke-miterlimit="10" stroke-width="0.42"/><path d="M277,316.79l-6.81-.1c-.16,0-.28-.18-.27-.4L270,315c0-.22.14-.4.31-.4l6.75.1c.19,0,.33.21.32.47l-.05,1.21C277.28,316.61,277.14,316.79,277,316.79Z" transform="translate(-254.49 -226.77)" fill="#e30613" stroke="#e30613" stroke-miterlimit="10" stroke-width="0.42"/><path d="M276.61,323l-6.73-.09c-.18,0-.32-.21-.31-.46l.05-1.17c0-.25.16-.46.34-.45l6.73.09c.18,0,.32.21.31.47l0,1.16C277,322.83,276.79,323,276.61,323Z" transform="translate(-254.49 -226.77)" fill="#e30613" stroke="#e30613" stroke-miterlimit="10" stroke-width="0.42"/><line x1="22.69" y1="89.9" x2="15.19" y2="96.06" fill="#e30613" stroke="#e30613" stroke-linecap="round" stroke-miterlimit="10" stroke-width="0.42"/><line x1="22.73" y1="88.05" x2="15.22" y2="94.23" fill="#e30613" stroke="#e30613" stroke-linecap="round" stroke-miterlimit="10" stroke-width="0.42"/><line x1="22.96" y1="83.6" x2="15.5" y2="89.83" fill="#e30613" stroke="#e30613" stroke-linecap="round" stroke-miterlimit="10" stroke-width="0.42"/><line x1="22.99" y1="81.85" x2="15.57" y2="87.95" fill="#e30613" stroke="#e30613" stroke-linecap="round" stroke-miterlimit="10" stroke-width="0.42"/><line x1="23.05" y1="77.43" x2="15.75" y2="83.58" fill="#e30613" stroke="#e30613" stroke-linecap="round" stroke-miterlimit="10" stroke-width="0.42"/><line x1="23.13" y1="75.56" x2="15.79" y2="81.73" fill="#e30613" stroke="#e30613" stroke-linecap="round" stroke-miterlimit="10" stroke-width="0.42"/><line x1="23.43" y1="71.14" x2="15.88" y2="77.28" fill="#e30613" stroke="#e30613" stroke-linecap="round" stroke-miterlimit="10" stroke-width="0.42"/><line x1="23.46" y1="69.3" x2="15.99" y2="75.45" fill="#e30613" stroke="#e30613" stroke-linecap="round" stroke-miterlimit="10" stroke-width="0.42"/><line x1="23.56" y1="64.92" x2="16.23" y2="71.09" fill="#e30613" stroke="#e30613" stroke-linecap="round" stroke-miterlimit="10" stroke-width="0.42"/><line x1="23.61" y1="63.06" x2="16.33" y2="69.18" fill="#e30613" stroke="#e30613" stroke-linecap="round" stroke-miterlimit="10" stroke-width="0.42"/><path d="M269.57,320.63" transform="translate(-254.49 -226.77)" fill="#e30613" stroke="#e30613" stroke-miterlimit="10" stroke-width="0.42"/><path d="M278.38,278.67l-6.7-.09c-.72,0-1.27-.83-1.23-1.82l.18-4.44c0-1,.64-1.79,1.36-1.78l6.71.09c.71,0,1.26.83,1.22,1.82l-.17,4.44C279.71,277.88,279.1,278.68,278.38,278.67Z" transform="translate(-254.49 -226.77)" fill="#e30613" stroke="#e30613" stroke-miterlimit="10" stroke-width="0.42"/></g></g><g id="CHID_DENT_Periodental_L"><path id="CHID_DENT_Left_Periodental_L" d="M262.51,287c.16.28-.41.69-.71,1.74s-.14,1.64.24,3.48c.57,2.78.73,3.32,1,4.55.3,1.66.19,1.73.47,3.75.6,4.17,1.32,5.51,1,5.75-.57.39-3.44-2.34-4.55-6.15-.52-1.8,0-1.64-.59-6.3-.42-3.3-.8-4.39-.12-5.48C260.08,286.83,262.24,286.49,262.51,287Z" transform="translate(-254.49 -226.77)" fill="#e30613" stroke="#e30613" stroke-miterlimit="10" stroke-width="0.42"/><path id="CHID_DENT_Right_Periodental_L" d="M303.44,285.76c-.08.18.57.44,1,1.33a4.45,4.45,0,0,1,.12,2.55,35.15,35.15,0,0,0,0,5.62c0,3.39-.06,5.1-.12,5.48-.18,1-.39,1.65-.12,1.88.44.37,2-.57,2.87-2,1-1.76.2-2.93.48-7,.25-3.69,1.07-4.54.36-5.89C306.87,285.64,303.59,285.37,303.44,285.76Z" transform="translate(-254.49 -226.77)" fill="#e30613" stroke="#e30613" stroke-miterlimit="10" stroke-width="0.42"/></g><g id="CHID_DENT_Implant_L"><path d="M297,289.81l-27.87,0c-1,0-1.86-.44-1.85-1l.06-3.91c0-.54.85-1,1.88-1l27.87,0c1,0,1.86.43,1.85,1l-.06,3.91C298.84,289.36,298,289.8,297,289.81Z" transform="translate(-254.49 -226.77)" fill="#e30613" stroke="#e30613" stroke-miterlimit="10" stroke-width="0.42"/><path d="M283.88,336.18h-3.52c-1.82,0-3.29-.77-3.28-1.74l.7-43.81c0-1,1.51-1.74,3.33-1.74h3.52c1.83,0,3.3.77,3.28,1.74l-.69,43.81C287.2,335.39,285.71,336.17,283.88,336.18Z" transform="translate(-254.49 -226.77)" fill="#e30613" stroke="#e30613" stroke-miterlimit="10" stroke-width="0.42"/><path d="M292.17,299.16l-19.06,0c-.51,0-.92-.21-.92-.48l0-1.26c0-.27.42-.48.93-.48l19.07,0c.51,0,.91.21.91.48l0,1.26C293.1,298.94,292.68,299.16,292.17,299.16Z" transform="translate(-254.49 -226.77)" fill="#e30613" stroke="#e30613" stroke-miterlimit="10" stroke-width="0.42"/><path d="M292.37,305.84l-19.18,0c-.48,0-.86-.2-.86-.45l0-1.32c0-.25.39-.46.86-.46l19.19,0c.47,0,.85.2.85.45l0,1.32C293.24,305.63,292.85,305.84,292.37,305.84Z" transform="translate(-254.49 -226.77)" fill="#e30613" stroke="#e30613" stroke-miterlimit="10" stroke-width="0.42"/><path d="M292,312.52l-19,0c-.52,0-.93-.22-.93-.49l0-1.24c0-.28.43-.5.95-.5l19,0c.52,0,.93.22.93.49l0,1.24C292.88,312.29,292.46,312.51,292,312.52Z" transform="translate(-254.49 -226.77)" fill="#e30613" stroke="#e30613" stroke-miterlimit="10" stroke-width="0.42"/><path d="M292.18,319.19l-19.22,0c-.47,0-.84-.19-.84-.44l0-1.34c0-.24.39-.44.86-.44l19.21,0c.47,0,.84.19.84.44l0,1.34C293,319,292.64,319.19,292.18,319.19Z" transform="translate(-254.49 -226.77)" fill="#e30613" stroke="#e30613" stroke-miterlimit="10" stroke-width="0.42"/><path d="M292.09,325.87l-19.26,0c-.45,0-.82-.19-.81-.43l0-1.36c0-.24.37-.43.83-.43l19.13,0c.53,0,.95.23.94.5l0,1.29C292.92,325.67,292.55,325.87,292.09,325.87Z" transform="translate(-254.49 -226.77)" fill="#e30613" stroke="#e30613" stroke-miterlimit="10" stroke-width="0.42"/><path d="M291.63,332.55l-19,0c-.52,0-.93-.22-.92-.49l0-1.25c0-.27.42-.49.93-.49l19.05,0c.51,0,.93.22.92.49l0,1.25C292.57,332.33,292.15,332.55,291.63,332.55Z" transform="translate(-254.49 -226.77)" fill="#e30613" stroke="#e30613" stroke-miterlimit="10" stroke-width="0.42"/><line x1="38.18" y1="98.97" x2="17.51" y2="105.7" fill="#e30613" stroke="#e30613" stroke-linecap="round" stroke-miterlimit="10" stroke-width="0.42"/><line x1="38.1" y1="96.99" x2="17.44" y2="103.74" fill="#e30613" stroke="#e30613" stroke-linecap="round" stroke-miterlimit="10" stroke-width="0.42"/><line x1="38.36" y1="92.23" x2="17.83" y2="99.03" fill="#e30613" stroke="#e30613" stroke-linecap="round" stroke-miterlimit="10" stroke-width="0.42"/><line x1="38.28" y1="90.36" x2="17.83" y2="97.02" fill="#e30613" stroke="#e30613" stroke-linecap="round" stroke-miterlimit="10" stroke-width="0.42"/><line x1="38.04" y1="85.63" x2="17.93" y2="92.35" fill="#e30613" stroke="#e30613" stroke-linecap="round" stroke-miterlimit="10" stroke-width="0.42"/><line x1="38.1" y1="83.64" x2="17.89" y2="90.37" fill="#e30613" stroke="#e30613" stroke-linecap="round" stroke-miterlimit="10" stroke-width="0.42"/><line x1="38.52" y1="78.91" x2="17.73" y2="85.61" fill="#e30613" stroke="#e30613" stroke-linecap="round" stroke-miterlimit="10" stroke-width="0.42"/><line x1="38.44" y1="76.94" x2="17.87" y2="83.66" fill="#e30613" stroke="#e30613" stroke-linecap="round" stroke-miterlimit="10" stroke-width="0.42"/><line x1="38.31" y1="72.25" x2="18.15" y2="78.99" fill="#e30613" stroke="#e30613" stroke-linecap="round" stroke-miterlimit="10" stroke-width="0.42"/><line x1="38.29" y1="70.27" x2="18.24" y2="76.96" fill="#e30613" stroke="#e30613" stroke-linecap="round" stroke-miterlimit="10" stroke-width="0.42"/><path d="M271.5,330.12" transform="translate(-254.49 -226.77)" fill="#e30613" stroke="#e30613" stroke-miterlimit="10" stroke-width="0.42"/><path d="M292.53,285.12l-19,0c-2,0-3.65-.86-3.63-1.93l.08-4.74c0-1.06,1.67-1.93,3.69-1.93l19,0c2,0,3.65.85,3.63,1.92l-.08,4.74C296.21,284.25,294.55,285.11,292.53,285.12Z" transform="translate(-254.49 -226.77)" fill="#e30613" stroke="#e30613" stroke-miterlimit="10" stroke-width="0.42"/></g><g id="CHID_DENT_Periapical_L"><path id="CHID_DENT_Periapical_L_1" d="M297.85,327.31c.21-.1.58.89,1.94,2.69.5.65.46.53,2.35,2.74,1.16,1.37,1.32,1.59,1.88,2.18a8.05,8.05,0,0,0,2.46,2,2.35,2.35,0,0,0,1.71.32,2.79,2.79,0,0,0,1.49-1.6c.43-1,.23-1.57-.12-5.11a23.83,23.83,0,0,0-.57-4.6c-.27-1-.59-1.7-.45-1.79s1,.92,1.6,2a13,13,0,0,1,1.25,4.79c.43,3.26.65,4.89.06,6.14a4.64,4.64,0,0,1-2.63,2.42c-1.68.48-3.17-.58-4.23-1.34-.75-.54-.72-.69-3.37-3.7-1.71-2-2-2.23-2.45-3.07C297.82,329.5,297.57,327.45,297.85,327.31Z" transform="translate(-254.49 -226.77)" fill="#be1622" stroke="#be1622" stroke-miterlimit="10" stroke-width="0.42"/><path id="CHID_DENT_Periapical_L_2" d="M281.74,326c-.19.21.17,1,.91,2.62a22.49,22.49,0,0,0,1.78,3.39,23,23,0,0,0,2.28,3.2,1.92,1.92,0,0,1,.69,1.15,1.59,1.59,0,0,1-1.32,1.72,4.64,4.64,0,0,1-2.57-.19c-1.68-.51-2.93-1-3.2-1.15a16.17,16.17,0,0,1-3.2-1.6c-1-.7-1.65-1.28-1.65-1.28-.77-.66-1.06-1-1.15-.95s.42,1.61,1.32,2.81a9.3,9.3,0,0,0,3.65,2.75,11.29,11.29,0,0,0,5.43,1.66,4.9,4.9,0,0,0,3.89-1.34,3.12,3.12,0,0,0,.85-1.92c0-.87-.45-1.2-1.43-2.88-.55-.94-.27-.62-1.65-3.26a24.11,24.11,0,0,0-1.43-2.55C283.78,326.71,282.08,325.67,281.74,326Z" transform="translate(-254.49 -226.77)" fill="#be1622" stroke="#be1622" stroke-miterlimit="10" stroke-width="0.42"/></g><path id="CHID_DENT_Occlusal_Veneer_L" d="M305.55,262.35c-1.78-.85-3,.29-5.84.69a19.19,19.19,0,0,1-6.92-.6c-2.08-.42-2.45-.72-4.61-1a19.29,19.29,0,0,0-4.46-.26,17.37,17.37,0,0,0-5.07,1.12c-3.23,1.22-2.95,2.19-4.54,2.32-2.92.23-3.47-3.07-7.23-3.27-1.11-.06-1.64.2-3.84.09a26.47,26.47,0,0,1-3.08-.35,1.77,1.77,0,0,0-1.3.17,2.25,2.25,0,0,0-1,1.47c-.44,1.86-.87,3.72-1.31,5.59a1.43,1.43,0,0,0,1.34,1.5h49.14a1.39,1.39,0,0,0,.95-.44c.54-.63.35-1.8,0-3.73-.11-.64-.23-1.16-.32-1.52h0A4.84,4.84,0,0,0,305.55,262.35Z" transform="translate(-254.49 -226.77)" fill="#e30613" stroke="#e30613" stroke-miterlimit="10" stroke-width="1.25"/><g id="CHID_DENT_Endo_Crown_L"><path id="CHID_DENT_Endo_Crown_1L" d="M277.71,276.74l9.38-.23,1.47-6.24a.24.24,0,0,0-.21-.3l-12.23,0a.23.23,0,0,0-.2.31Z" transform="translate(-254.49 -226.77)" fill="#e30613" stroke="#e30613" stroke-miterlimit="10" stroke-width="1.25"/><path id="CHID_DENT_Endo_Crown_2L" d="M305.57,262.21c-1.78-.85-3,.29-5.84.69a19.43,19.43,0,0,1-6.92-.61c-2.08-.42-2.45-.72-4.61-1a19.86,19.86,0,0,0-4.46-.26,18.05,18.05,0,0,0-5.07,1.12c-3.23,1.23-2.95,2.2-4.54,2.32-2.92.23-3.47-3.06-7.23-3.26-1.11-.06-1.64.19-3.84.08a24.78,24.78,0,0,1-3.08-.34,1.77,1.77,0,0,0-1.3.17,2.24,2.24,0,0,0-1,1.46c-.44,1.87-.87,3.73-1.31,5.59a1.44,1.44,0,0,0,1.34,1.51h49.14a1.39,1.39,0,0,0,.95-.44c.54-.64.35-1.8,0-3.73-.11-.65-.23-1.17-.32-1.52h0A4.84,4.84,0,0,0,305.57,262.21Z" transform="translate(-254.49 -226.77)" fill="#e30613" stroke="#e30613" stroke-miterlimit="10" stroke-width="1.25"/></g></g></svg>