<svg id="CHID_DENT_all" xmlns="http://www.w3.org/2000/svg" viewBox="0 0 57.88 113.68"><g id="CHID_DENT_P_all"><text transform="translate(15.99 18.49) scale(2.54 1)" font-size="25.24" fill="#1d1d1b" font-family="AdobeArabic-Regular, Adobe Arabic">P</text><g id="CHID_DENT_P"><path id="CHID_DENT_CROWN_P" d="M261.73,255.86c-3.17.91-4.94,2.82-.57,14.7,3.61,9.79,5.8,11.2,9.35,12.14,6.65,1.75,16.72,1.53,23.24-.23,4.37-1.17,6.37-3.43,10.19-7.9,3.47-4.05,4.56-6.72,6.52-11.7,2.06-5.23,1.6-6.34-.28-7-2.41-.88-5-.28-16.43-.34-8.33,0-8.83-.37-16.72-.33C268.25,255.22,263.86,255.24,261.73,255.86Z" transform="translate(-254.82 -226.77)" fill="none" stroke="#1d1d1b" stroke-miterlimit="10" stroke-width="1.78"/><path id="CHID_DENT_ROOT_P" d="M270.51,283.48c-2.78.79,1,3.83,3.15,8.47.83,1.79,1,4.37,1.39,9.46a134.65,134.65,0,0,1,.28,13.7c-.74,16.79-3.87,22.42-.9,22.71,3.65.36,12.58-7.67,17.05-14.14a36.64,36.64,0,0,0,5.38-12.47,48.79,48.79,0,0,0,1.42-9.58,89.93,89.93,0,0,0,0-10.58c-.25-5.93-.7-8-3.38-8.39s-4.46,1.44-10.5,1.82C277.19,284.93,273,282.76,270.51,283.48Z" transform="translate(-254.82 -226.77)" fill="none" stroke="#1d1d1b" stroke-miterlimit="10" stroke-width="1.78"/></g><path id="CHID_DENT_fiiling_caries_class_IV_Mesial_P" d="M302.65,274h-3.84c-4.32,0-7.82-1.38-7.82-3.08V258.71c0-.07-.33-1.37,2.29-2.17a15,15,0,0,1,5.05-.43l5.4-.07a10.92,10.92,0,0,1,5.79.5c1.64.78.82,1.78.77,1.84q-1.79,4.64-3.59,9.27A19,19,0,0,1,305,271,24.76,24.76,0,0,1,302.65,274Z" transform="translate(-254.82 -226.77)" fill="#be1622" stroke="#be1622" stroke-miterlimit="10" stroke-width="0.59" opacity="0.79"/><path id="CHID_DENT_filling_caries_Class_IV_Distal_P" d="M275.18,255.79c-1.29-.28-3.51-.19-7.95,0-3.77.16-4.71.41-5.21.59a2.6,2.6,0,0,0-2,2.34,11.46,11.46,0,0,0,.05,4.59c.58,2.91.88,4.37,1.51,5.3.88,1.3,1.65,1.8,1.86,3.06s-.43,1.76.55,2.18c2.21.94,8.57-.13,8.94-.19a22.17,22.17,0,0,0,4.47-1.17c3.8-1.67.38-4-.49-8.6S278.71,256.57,275.18,255.79Z" transform="translate(-254.82 -226.77)" fill="#be1622" stroke="#be1622" stroke-miterlimit="10" stroke-width="0.59" opacity="0.79"/><rect id="CHID_DENT_filling_caries_Class_V_P" x="17.46" y="50.37" width="23.39" height="2.57" rx="0.87" fill="#be1622" stroke="#be1622" stroke-miterlimit="10" stroke-width="0.59" opacity="0.79"/><path id="CHID_DENT_filling_caries_Class_III_Mesial_P" d="M271.8,271.42h-4.48l-3.82-.76-1-.2-.69-3,5.51-.82h4.48c2.62,0,4.75.84,4.75,1.87v1.08C276.55,270.58,274.42,271.42,271.8,271.42Z" transform="translate(-254.82 -226.77)" fill="#be1622" stroke="#be1622" stroke-miterlimit="10" stroke-width="0.59" opacity="0.79"/><path id="CHID_DENT_filling_caries_Class_III_Distal_P" d="M301.22,271.42h-5.88c-2,0-3.67-.85-3.67-1.89v-1c0-1,1.65-1.89,3.67-1.89h5.88l5.8,1-1.14,2.91Z" transform="translate(-254.82 -226.77)" fill="#be1622" stroke="#be1622" stroke-miterlimit="10" stroke-width="0.59" opacity="0.79"/><path id="CHID_DENT_EndoP" d="M275.8,284.47c1.14-.14,2.27.73,5.89.8a30.9,30.9,0,0,0,6.41-.6c2.12-.43,2.26-.74,2.81-.71,3,.15,3.55,9,1.37,20.25a60.5,60.5,0,0,1-2.9,10.87c-3.17,8.39-8.72,17.42-10.51,17.32-1-.07-.13-3.11.52-10.48.82-9.38,1.24-14.07.25-19C277.85,293.9,272.27,284.89,275.8,284.47Z" transform="translate(-254.82 -226.77)" fill="#be1622" stroke="#e30613" stroke-miterlimit="10" stroke-width="0.59"/><g id="CHID_DENT_Post_P"><path d="M289.61,282.9l-15.14.46a1,1,0,0,1-1.11-.82l-.35-3.36a.86.86,0,0,1,.92-.88l15.15-.47a1,1,0,0,1,1.1.82l.36,3.37A.87.87,0,0,1,289.61,282.9Z" transform="translate(-254.82 -226.77)" fill="#e30613" stroke="#e30613" stroke-miterlimit="10" stroke-width="0.59"/><path d="M287.13,323.05l-1.91.06a1.83,1.83,0,0,1-2-1.45l-4-37.75a1.54,1.54,0,0,1,1.64-1.56l1.92-.06a1.83,1.83,0,0,1,1.95,1.45l4,37.75A1.53,1.53,0,0,1,287.13,323.05Z" transform="translate(-254.82 -226.77)" fill="#e30613" stroke="#e30613" stroke-miterlimit="10" stroke-width="0.59"/><path d="M287.94,291l-10.36.32a.5.5,0,0,1-.54-.4l-.12-1.09a.43.43,0,0,1,.46-.43l10.36-.32a.52.52,0,0,1,.54.41l.12,1.08A.43.43,0,0,1,287.94,291Z" transform="translate(-254.82 -226.77)" fill="#e30613" stroke="#e30613" stroke-miterlimit="10" stroke-width="0.59"/><path d="M288.72,296.78l-10.43.32a.47.47,0,0,1-.51-.37l-.12-1.14a.4.4,0,0,1,.43-.41l10.42-.32a.48.48,0,0,1,.51.38l.12,1.14A.4.4,0,0,1,288.72,296.78Z" transform="translate(-254.82 -226.77)" fill="#e30613" stroke="#e30613" stroke-miterlimit="10" stroke-width="0.59"/><path d="M289.15,302.54l-10.34.32a.53.53,0,0,1-.56-.41l-.11-1.07a.44.44,0,0,1,.46-.44l10.35-.32a.52.52,0,0,1,.55.41l.11,1.07C289.64,302.34,289.43,302.53,289.15,302.54Z" transform="translate(-254.82 -226.77)" fill="#e30613" stroke="#e30613" stroke-miterlimit="10" stroke-width="0.59"/><path d="M289.94,308.29l-10.44.32a.47.47,0,0,1-.5-.37l-.12-1.15a.39.39,0,0,1,.42-.4l10.44-.32a.48.48,0,0,1,.5.37l.12,1.15A.39.39,0,0,1,289.94,308.29Z" transform="translate(-254.82 -226.77)" fill="#e30613" stroke="#e30613" stroke-miterlimit="10" stroke-width="0.59"/><path d="M290.56,314.05l-10.46.32a.47.47,0,0,1-.49-.36l-.12-1.17a.38.38,0,0,1,.4-.39l10.4-.32a.52.52,0,0,1,.56.41l.12,1.12A.39.39,0,0,1,290.56,314.05Z" transform="translate(-254.82 -226.77)" fill="#e30613" stroke="#e30613" stroke-miterlimit="10" stroke-width="0.59"/><path d="M291,319.81l-10.35.31a.51.51,0,0,1-.55-.4l-.11-1.08a.42.42,0,0,1,.46-.43l10.35-.32a.51.51,0,0,1,.55.4l.11,1.08A.43.43,0,0,1,291,319.81Z" transform="translate(-254.82 -226.77)" fill="#e30613" stroke="#e30613" stroke-miterlimit="10" stroke-width="0.59"/><line x1="36.04" y1="87.16" x2="25.48" y2="93.27" fill="#e30613" stroke="#e30613" stroke-linecap="round" stroke-miterlimit="10" stroke-width="0.59"/><line x1="35.8" y1="85.45" x2="25.25" y2="91.58" fill="#e30613" stroke="#e30613" stroke-linecap="round" stroke-miterlimit="10" stroke-width="0.59"/><line x1="35.47" y1="81.34" x2="24.99" y2="87.52" fill="#e30613" stroke="#e30613" stroke-linecap="round" stroke-miterlimit="10" stroke-width="0.59"/><line x1="35.24" y1="79.73" x2="24.79" y2="85.79" fill="#e30613" stroke="#e30613" stroke-linecap="round" stroke-miterlimit="10" stroke-width="0.59"/><line x1="34.64" y1="75.67" x2="24.38" y2="81.76" fill="#e30613" stroke="#e30613" stroke-linecap="round" stroke-miterlimit="10" stroke-width="0.59"/><line x1="34.47" y1="73.95" x2="24.16" y2="80.06" fill="#e30613" stroke="#e30613" stroke-linecap="round" stroke-miterlimit="10" stroke-width="0.59"/><line x1="34.23" y1="69.87" x2="23.6" y2="75.96" fill="#e30613" stroke="#e30613" stroke-linecap="round" stroke-miterlimit="10" stroke-width="0.59"/><line x1="33.99" y1="68.17" x2="23.48" y2="74.27" fill="#e30613" stroke="#e30613" stroke-linecap="round" stroke-miterlimit="10" stroke-width="0.59"/><line x1="33.45" y1="64.13" x2="23.16" y2="70.25" fill="#e30613" stroke="#e30613" stroke-linecap="round" stroke-miterlimit="10" stroke-width="0.59"/><line x1="33.24" y1="62.43" x2="23.01" y2="68.49" fill="#e30613" stroke="#e30613" stroke-linecap="round" stroke-miterlimit="10" stroke-width="0.59"/><path d="M279.79,318" transform="translate(-254.82 -226.77)" fill="#e30613" stroke="#e30613" stroke-miterlimit="10" stroke-width="0.59"/><path d="M286.73,278.93l-10.32.31a2,2,0,0,1-2.16-1.6l-.43-4.09a1.69,1.69,0,0,1,1.81-1.72l10.32-.32a2,2,0,0,1,2.17,1.61l.43,4.08A1.71,1.71,0,0,1,286.73,278.93Z" transform="translate(-254.82 -226.77)" fill="#e30613" stroke="#e30613" stroke-miterlimit="10" stroke-width="0.59"/></g><g id="CHID_DENT_Periodental_P"><path id="CHID_DENT_Right_Periodental_P" d="M302.88,277.67c-1.27.15-.41,1.26-2.67,2.58-1.59.93-3.23,1.07-3.4,1.81-.13.57.74.94,1.46,1.43,1.43,1,1.41,1.85,1.46,3.72.14,6.45.52,5.27.24,7.25-.81,5.71-2.88,8-.49,8.49,1.68.35,4.71-.37,6.55-1.15,5.91-2.5-.7-5.56.73-12.21,1-4.6,5-7,1-10C306.48,278.65,304.24,277.51,302.88,277.67Z" transform="translate(-254.82 -226.77)" fill="#e30613" stroke="#e30613" stroke-miterlimit="10" stroke-width="0.59"/><path id="CHID_DENT_Left_Periodental_P" d="M262.85,277.58c1.5.28-.3,1.64,1.94,3.14,1.78,1.19,4.64,1.49,4.37,2.29-.16.45-1.11.56-1.46,1.24a1.14,1.14,0,0,0,.24,1.24,23.44,23.44,0,0,0,2.43,3.06c.65.65,1,1.67,1.7,3.72,1.14,3.32.47,3.41,1.45,7.05.64,2.35,1.12,3.07.25,3.25-1.65.33-6.56-1.55-9.47-3.63-4.18-3-1.4-4.34-3.39-9.06-2.43-5.74-8.28-7.82-4.61-10.4C258,278.26,261.4,277.31,262.85,277.58Z" transform="translate(-254.82 -226.77)" fill="#e30613" stroke="#e30613" stroke-miterlimit="10" stroke-width="0.59"/></g><g id="CHID_DENT_Implant_P"><path d="M299.83,286.43l-38.26,0c-1.41,0-2.55-.37-2.54-.83l.08-3.3c0-.46,1.17-.83,2.59-.83l38.26,0c1.42,0,2.56.37,2.55.83l-.09,3.3C302.41,286.06,301.25,286.43,299.83,286.43Z" transform="translate(-254.82 -226.77)" fill="#e30613" stroke="#e30613" stroke-miterlimit="10" stroke-width="0.59"/><path d="M281.87,325.6H277c-2.51,0-4.53-.65-4.51-1.46l1-37c0-.82,2.07-1.48,4.58-1.48h4.83c2.51,0,4.52.66,4.5,1.47l-.95,37C286.43,324.93,284.38,325.6,281.87,325.6Z" transform="translate(-254.82 -226.77)" fill="#e30613" stroke="#e30613" stroke-miterlimit="10" stroke-width="0.59"/><path d="M293.26,294.34l-26.19,0c-.7,0-1.26-.18-1.25-.4l0-1.07c0-.22.57-.41,1.27-.41l26.18,0c.7,0,1.26.18,1.25.4l0,1.07C294.52,294.15,294,294.34,293.26,294.34Z" transform="translate(-254.82 -226.77)" fill="#e30613" stroke="#e30613" stroke-miterlimit="10" stroke-width="0.59"/><path d="M293.53,300l-26.35,0c-.65,0-1.17-.17-1.17-.38l0-1.11c0-.22.54-.39,1.19-.39l26.35,0c.65,0,1.17.17,1.17.38l0,1.11C294.71,299.8,294.18,300,293.53,300Z" transform="translate(-254.82 -226.77)" fill="#e30613" stroke="#e30613" stroke-miterlimit="10" stroke-width="0.59"/><path d="M292.94,305.62l-26.14,0c-.71,0-1.28-.18-1.27-.41l0-1.05c0-.23.58-.42,1.29-.42l26.14,0c.71,0,1.28.18,1.27.41l0,1.05C294.23,305.43,293.65,305.61,292.94,305.62Z" transform="translate(-254.82 -226.77)" fill="#e30613" stroke="#e30613" stroke-miterlimit="10" stroke-width="0.59"/><path d="M293.26,311.25l-26.39,0c-.64,0-1.15-.17-1.15-.37l0-1.13c0-.21.53-.38,1.17-.38l26.39,0c.64,0,1.15.17,1.15.38l0,1.13C294.42,311.08,293.9,311.25,293.26,311.25Z" transform="translate(-254.82 -226.77)" fill="#e30613" stroke="#e30613" stroke-miterlimit="10" stroke-width="0.59"/><path d="M293.14,316.89l-26.44,0c-.63,0-1.13-.16-1.12-.36l0-1.15c0-.2.51-.37,1.13-.37L293,315c.72,0,1.3.19,1.29.42l0,1.1C294.28,316.73,293.77,316.89,293.14,316.89Z" transform="translate(-254.82 -226.77)" fill="#e30613" stroke="#e30613" stroke-miterlimit="10" stroke-width="0.59"/><path d="M292.51,322.53l-26.15,0c-.71,0-1.27-.18-1.27-.41l0-1.06c0-.22.58-.41,1.29-.41l26.15,0c.71,0,1.27.19,1.27.42l0,1.05C293.79,322.35,293.22,322.53,292.51,322.53Z" transform="translate(-254.82 -226.77)" fill="#e30613" stroke="#e30613" stroke-miterlimit="10" stroke-width="0.59"/><line x1="39.12" y1="90.01" x2="10.74" y2="95.7" fill="#e30613" stroke="#e30613" stroke-linecap="round" stroke-miterlimit="10" stroke-width="0.59"/><line x1="39.01" y1="88.34" x2="10.64" y2="94.04" fill="#e30613" stroke="#e30613" stroke-linecap="round" stroke-miterlimit="10" stroke-width="0.59"/><line x1="39.37" y1="84.32" x2="11.17" y2="90.07" fill="#e30613" stroke="#e30613" stroke-linecap="round" stroke-miterlimit="10" stroke-width="0.59"/><line x1="39.26" y1="82.74" x2="11.18" y2="88.37" fill="#e30613" stroke="#e30613" stroke-linecap="round" stroke-miterlimit="10" stroke-width="0.59"/><line x1="38.93" y1="78.75" x2="11.32" y2="84.42" fill="#e30613" stroke="#e30613" stroke-linecap="round" stroke-miterlimit="10" stroke-width="0.59"/><line x1="39.01" y1="77.07" x2="11.25" y2="82.75" fill="#e30613" stroke="#e30613" stroke-linecap="round" stroke-miterlimit="10" stroke-width="0.59"/><line x1="39.59" y1="73.07" x2="11.04" y2="78.73" fill="#e30613" stroke="#e30613" stroke-linecap="round" stroke-miterlimit="10" stroke-width="0.59"/><line x1="39.48" y1="71.41" x2="11.24" y2="77.08" fill="#e30613" stroke="#e30613" stroke-linecap="round" stroke-miterlimit="10" stroke-width="0.59"/><line x1="39.31" y1="67.45" x2="11.62" y2="73.14" fill="#e30613" stroke="#e30613" stroke-linecap="round" stroke-miterlimit="10" stroke-width="0.59"/><line x1="39.27" y1="65.78" x2="11.74" y2="71.42" fill="#e30613" stroke="#e30613" stroke-linecap="round" stroke-miterlimit="10" stroke-width="0.59"/><path d="M264.86,320.48" transform="translate(-254.82 -226.77)" fill="#e30613" stroke="#e30613" stroke-miterlimit="10" stroke-width="0.59"/><path d="M293.75,282.47l-26.08,0c-2.78,0-5-.72-5-1.62l.11-4c0-.9,2.29-1.63,5.07-1.63l26.07,0c2.78,0,5,.73,5,1.63l-.1,4C298.79,281.74,296.52,282.47,293.75,282.47Z" transform="translate(-254.82 -226.77)" fill="#e30613" stroke="#e30613" stroke-miterlimit="10" stroke-width="0.59"/></g><path id="CHID_DENT_Periapical_P" d="M273.41,320c.59.05.08,1.42-.55,5.62-1,6.53-.14,5.69-.82,7.23-.56,1.26.06,2.56-.27,3.83-.07.24-.24.84.68,1.29a5.91,5.91,0,0,0,2.47.49,7.07,7.07,0,0,0,3.85-1.3,36.9,36.9,0,0,0,5.21-3.77c2.69-2.49,4-3.73,4.54-4.27a39.58,39.58,0,0,0,3.29-4c1.63-2.32,2-3.53,2.47-3.51s.62,1.7.28,3.29c-.29,1.31-.94,2.73-3.57,5.94-2.47,3-3.7,4.5-5.49,5.61-1.51.93-6.67,4.12-11.26,3.72a7.24,7.24,0,0,1-5.63-3.45c-1.18-1.67-.5-2.4,0-6.1.52-3.91,0-4.49,1.1-6.58S272.68,319.93,273.41,320Z" transform="translate(-254.82 -226.77)" fill="#be1622" stroke="#be1622" stroke-miterlimit="10" stroke-width="0.59"/><g id="CHID_DENT_Occlusal_Veneer_P"><path id="CHID_DENT_Occlusal_Veneer_P_2" d="M273.11,255.86h-6.35a11.44,11.44,0,0,0-4.66.77c-1.25.64-1.05,1.36-1,1.51-.33,1.22-.66,2.44-1,3.66,0,.72,1.49,1.3,3.32,1.3h9.69c1.83,0,3.31-.58,3.31-1.3v-4.64C276.42,256.44,274.94,255.86,273.11,255.86Z" transform="translate(-254.82 -226.77)" fill="#e30613" stroke="#e30613" stroke-miterlimit="10" stroke-width="1.78"/><rect id="CHID_DENT_Occlusal_Veneer_P_1" x="41.25" y="29.6" width="13.49" height="6.73" rx="0.84" fill="#e30613" stroke="#e30613" stroke-miterlimit="10" stroke-width="1.78"/></g><g id="CHID_DENT_Endo_Crown_P"><path id="CHID_DENT_Endo_Crown_P_2" d="M273.15,255.74h-6.34a11.42,11.42,0,0,0-4.66.77c-1.25.64-1,1.36-1,1.51-.33,1.22-.67,2.44-1,3.66,0,.71,1.48,1.3,3.31,1.3h9.69c1.83,0,3.32-.59,3.32-1.3V257C276.47,256.32,275,255.74,273.15,255.74Z" transform="translate(-254.82 -226.77)" fill="#e30613" stroke="#e30613" stroke-miterlimit="10" stroke-width="1.78"/><rect id="CHID_DENT_Endo_Crown_P_1" x="41.29" y="29.48" width="13.49" height="6.73" rx="0.84" fill="#e30613" stroke="#e30613" stroke-miterlimit="10" stroke-width="1.78"/></g></g></svg>