<svg id="CHID_DENT_all" xmlns="http://www.w3.org/2000/svg" viewBox="0 0 57.55 113.6"><g id="CHID_DENT_T_all"><text transform="translate(26.85 22.51) scale(0.89 1)" font-size="30.74" fill="#1d1d1b" font-family="AdobeArabic-Regular, Adobe Arabic">T</text><g id="CHID_DENT_T"><path id="CHID_DENT_CROWN_T" d="M286.64,266.64c-2.06-.15-1.95-1.67-5.2-3a14,14,0,0,0-6.73-.8c-2.32.21-3.65.32-5,1.37-2.38,1.85-2.91,5.14-3.26,7.41s-.16,3.91.2,7.41c.46,4.45.72,6.69,2,7.53,1.12.71,2.11,0,4.28-.57,3.12-.76,4.25,0,12.13,1,2.06.26,4,.44,7.85.8,11,1,12.26.57,13.35-.12,4.48-2.83,5.32-9.32,5.4-10a16.68,16.68,0,0,0-1.63-9.13,12.1,12.1,0,0,0-3.57-4.79,10.82,10.82,0,0,0-7.64-1.82,16.4,16.4,0,0,0-5.41,1.37C289.27,265.05,288.85,266.8,286.64,266.64Z" transform="translate(-254.9 -226.77)" fill="none" stroke="#1d1d1b" stroke-miterlimit="10" stroke-width="1.28"/><path id="CHID_DENT_ROOT_T" d="M269,288c-1.33,2.13,1.05,4.59,1,10.38,0,3.35-.82,5.69-2.14,9.46-2,5.83-3.31,5.93-6.72,14.14a65.64,65.64,0,0,0-2.65,9c-.72,3-.68,3.54-.41,3.88,1.38,1.72,9.16-.91,13.86-7.07s3-11.28,9.17-19.16c3.07-3.9,4.48-3.89,5.1-3.76,2.73.58,4.89,6.95,4,12.31-.82,4.82-3.57,5.51-5.5,12.21-.66,2.29-2,6.95-.61,8.09,2,1.61,9.29-3.87,13.66-11.29,1-1.76,1.74-3.36,5.3-17.9,3.25-13.32,4-17.58,2.24-19-1-.79-1.79-.05-6,0a56,56,0,0,1-7.64-.68c-8.07-1-8.63-1.4-12.84-1.71C273,286.4,270.09,286.23,269,288Z" transform="translate(-254.9 -226.77)" fill="none" stroke="#1d1d1b" stroke-miterlimit="10" stroke-width="1.28"/></g><path id="CHID_DENT_fiiling-caries_class_I_T" d="M294.64,274.54H280.18a1.83,1.83,0,0,1-1.86-1.78v-6.94c0-.15.06-.35.1-.59.23-1.32.31-1.43.39-1.49s.23-.05,1.24.25l1,.29a9.44,9.44,0,0,1,1.33.6,11.59,11.59,0,0,1,1.57.93c.56.41.53.48,1.08.84a3.36,3.36,0,0,0,1.29.64,2.89,2.89,0,0,0,1.11,0,4.35,4.35,0,0,0,1.11-.34,8.57,8.57,0,0,0,1.7-1.05c1.72-1.24,1.79-1.29,2-1.4a13.53,13.53,0,0,1,1.81-.79c1.25-.49,1.49-.48,1.68-.35a1.85,1.85,0,0,1,.42,1.45s-.11-.21-.1-.22a2.1,2.1,0,0,1,.37.72,2,2,0,0,1,.08.53v6.94A1.82,1.82,0,0,1,294.64,274.54Z" transform="translate(-254.9 -226.77)" fill="#be1622" stroke="#be1622" stroke-miterlimit="10" stroke-width="0.43" opacity="0.79"/><path id="CHID_DENT_fiiling_caries_class_IV_Mesial_T" d="M308.64,277.61H300a3.74,3.74,0,0,1-3.51-3.93v-7.35a3.77,3.77,0,0,0,0-2c-.18-.6-.48-.91-.35-1.21s.66-.34,1.32-.39a22.61,22.61,0,0,0,2.54-.32l3.3.5a7.52,7.52,0,0,1,2.09.87,9,9,0,0,1,3.05,3.14l1.59,2.91c.34,1.41.62,2.65.85,3.7.41,1.84.5,2.4.23,2.93C310.59,277.52,309.08,277.6,308.64,277.61Z" transform="translate(-254.9 -226.77)" fill="#be1622" stroke="#be1622" stroke-miterlimit="10" stroke-width="0.43" opacity="0.79"/><path id="CHID_DENT_filling_caries_Class_IV_Distal_T" d="M278.4,263.69c.5.55.08,1.06-.09,4.84-.18,4.17-.17,5.43-.17,5.43,0,1.47.06,1.74-.18,2.1-.67,1.06-2.17.45-5.77.4-3,0-4.91.35-5.28-.59-.07-.18,0-.2,0-1.42s0-1.42,0-2.25a15.23,15.23,0,0,1,.44-2.69,13.46,13.46,0,0,1,.66-2,7.61,7.61,0,0,1,1-1.95,4.82,4.82,0,0,1,2.1-1.57,5.83,5.83,0,0,1,2.36-.32C277.32,263.65,277.86,263.09,278.4,263.69Z" transform="translate(-254.9 -226.77)" fill="#be1622" stroke="#be1622" stroke-miterlimit="10" stroke-width="0.43" opacity="0.79"/><rect id="CHID_DENT_filling_caries_Class_V_T" x="26.93" y="53.82" width="10.01" height="3.13" rx="0.87" fill="#be1622" stroke="#be1622" stroke-miterlimit="10" stroke-width="0.43" opacity="0.79"/><path id="CHID_DENT_filling_caries_Class_III_Mesial_T" d="M275.42,277l-8.24-.56h0l-.08-4.65h0l8.32-.66a2.17,2.17,0,0,1,2,2.28v1.31A2.17,2.17,0,0,1,275.42,277Z" transform="translate(-254.9 -226.77)" fill="#be1622" stroke="#be1622" stroke-miterlimit="10" stroke-width="0.43" opacity="0.79"/><path id="CHID_DENT_filling_caries_Class_III_Distal_T" d="M311,276.32l-8.64.66a2.17,2.17,0,0,1-2-2.28v-1.31a2.17,2.17,0,0,1,2-2.28l8.31.66.13,1.62h0C310.88,274.36,311,275.34,311,276.32Z" transform="translate(-254.9 -226.77)" fill="#be1622" stroke="#be1622" stroke-miterlimit="10" stroke-width="0.43" opacity="0.79"/><g id="CHID_DENT_EndoT"><path id="CHID_DENT_Endo2_T" d="M291.26,289.18c.34-.19.37,0,3.51.37a32.14,32.14,0,0,0,4.93.37c2.5-.08,2.66-.57,3.18-.25,1.79,1.11.35,7.27-2.52,20.48-2.11,9.67-2.35,11-3.62,13.48-3.62,7.07-9.49,11.34-10.3,10.55s4.44-5.61,5.7-14.59c.34-2.43-.13-7-1.1-16.06C290.18,295.38,289.43,290.21,291.26,289.18Z" transform="translate(-254.9 -226.77)" fill="#be1622" stroke="#e30613" stroke-miterlimit="10" stroke-width="0.43"/><path id="CHID_DENT_Endo1_T" d="M273.29,287.22a12.43,12.43,0,0,1,3,0c.48,0,1.6.08,3.07.24.48.06,1.69.2,3.29.49a8.18,8.18,0,0,1,2.08.5c1.73,1.41-1.14,9-1.64,10.29-3.15,8.16-5.7,14.61-12.39,24-2.57,3.62-7.79,11-9.2,10.05-1.13-.73.59-6.44,1.53-9.07,2.15-6,3.92-6.29,6-11.65a45.18,45.18,0,0,0,2.74-13.37C272.13,293,271.42,288.11,273.29,287.22Z" transform="translate(-254.9 -226.77)" fill="#be1622" stroke="#e30613" stroke-miterlimit="10" stroke-width="0.43"/></g><g id="CHID_DENT_Post_T"><g id="CHID_DENT_Post_T_1"><path d="M301.65,288.6l-8.73-1.32a.79.79,0,0,1-.5-.92l.32-3.32c.05-.46.35-.8.67-.75l8.73,1.32a.79.79,0,0,1,.5.92l-.32,3.32C302.27,288.31,302,288.65,301.65,288.6Z" transform="translate(-254.9 -226.77)" fill="#e30613" stroke="#e30613" stroke-miterlimit="10" stroke-width="0.43"/><path d="M293.93,327.37l-1.11-.17c-.57-.08-1-.81-.89-1.63l3.65-37.2c.08-.82.61-1.41,1.18-1.32l1.1.16c.57.09,1,.82.89,1.64l-3.64,37.2C295,326.86,294.5,327.46,293.93,327.37Z" transform="translate(-254.9 -226.77)" fill="#e30613" stroke="#e30613" stroke-miterlimit="10" stroke-width="0.43"/><path d="M299.42,296.32l-6-.9a.4.4,0,0,1-.25-.46l.1-1.07c0-.22.17-.39.33-.36l6,.9c.16,0,.27.23.25.45l-.11,1.07C299.72,296.18,299.58,296.34,299.42,296.32Z" transform="translate(-254.9 -226.77)" fill="#e30613" stroke="#e30613" stroke-miterlimit="10" stroke-width="0.43"/><path d="M299,302l-6-.91c-.15,0-.25-.21-.23-.42l.11-1.12c0-.21.16-.37.3-.35l6,.91c.15,0,.25.21.23.43l-.11,1.12C299.24,301.87,299.11,302,299,302Z" transform="translate(-254.9 -226.77)" fill="#e30613" stroke="#e30613" stroke-miterlimit="10" stroke-width="0.43"/><path d="M298.3,307.66l-6-.9c-.16,0-.27-.24-.25-.47l.1-1.05c0-.23.17-.4.34-.37l6,.9c.16,0,.27.23.25.46l-.11,1C298.61,307.51,298.46,307.68,298.3,307.66Z" transform="translate(-254.9 -226.77)" fill="#e30613" stroke="#e30613" stroke-miterlimit="10" stroke-width="0.43"/><path d="M297.85,313.34l-6-.91c-.14,0-.24-.21-.22-.42l.11-1.13c0-.21.15-.36.3-.34l6,.91c.14,0,.24.21.22.42l-.11,1.13C298.13,313.21,298,313.36,297.85,313.34Z" transform="translate(-254.9 -226.77)" fill="#e30613" stroke="#e30613" stroke-miterlimit="10" stroke-width="0.43"/><path d="M297.3,319l-6-.91c-.14,0-.24-.2-.22-.41l.11-1.15c0-.2.15-.35.3-.33l6,.91c.16,0,.28.23.25.47l-.1,1.09C297.58,318.89,297.44,319,297.3,319Z" transform="translate(-254.9 -226.77)" fill="#e30613" stroke="#e30613" stroke-miterlimit="10" stroke-width="0.43"/><path d="M296.64,324.66l-6-.9c-.16,0-.27-.23-.25-.46l.1-1.05c0-.23.18-.4.34-.38l6,.9a.4.4,0,0,1,.25.46l-.1,1.06C297,324.52,296.8,324.69,296.64,324.66Z" transform="translate(-254.9 -226.77)" fill="#e30613" stroke="#e30613" stroke-miterlimit="10" stroke-width="0.43"/><line x1="42.59" y1="92.16" x2="35.59" y2="96.87" fill="#e30613" stroke="#e30613" stroke-linecap="round" stroke-miterlimit="10" stroke-width="0.43"/><line x1="42.72" y1="90.47" x2="35.73" y2="95.2" fill="#e30613" stroke="#e30613" stroke-linecap="round" stroke-miterlimit="10" stroke-width="0.43"/><line x1="43.17" y1="86.44" x2="36.21" y2="91.22" fill="#e30613" stroke="#e30613" stroke-linecap="round" stroke-miterlimit="10" stroke-width="0.43"/><line x1="43.3" y1="84.85" x2="36.37" y2="89.51" fill="#e30613" stroke="#e30613" stroke-linecap="round" stroke-miterlimit="10" stroke-width="0.43"/><line x1="43.59" y1="80.82" x2="36.77" y2="85.55" fill="#e30613" stroke="#e30613" stroke-linecap="round" stroke-miterlimit="10" stroke-width="0.43"/><line x1="43.76" y1="79.13" x2="36.91" y2="83.87" fill="#e30613" stroke="#e30613" stroke-linecap="round" stroke-miterlimit="10" stroke-width="0.43"/><line x1="44.27" y1="75.13" x2="37.23" y2="79.81" fill="#e30613" stroke="#e30613" stroke-linecap="round" stroke-miterlimit="10" stroke-width="0.43"/><line x1="44.4" y1="73.45" x2="37.43" y2="78.16" fill="#e30613" stroke="#e30613" stroke-linecap="round" stroke-miterlimit="10" stroke-width="0.43"/><line x1="44.72" y1="69.46" x2="37.88" y2="74.21" fill="#e30613" stroke="#e30613" stroke-linecap="round" stroke-miterlimit="10" stroke-width="0.43"/><line x1="44.87" y1="67.78" x2="38.07" y2="72.48" fill="#e30613" stroke="#e30613" stroke-linecap="round" stroke-miterlimit="10" stroke-width="0.43"/><path d="M290.52,321.62" transform="translate(-254.9 -226.77)" fill="#e30613" stroke="#e30613" stroke-miterlimit="10" stroke-width="0.43"/><path d="M300.63,284.4l-5.95-.9c-.63-.09-1.07-.91-1-1.81l.4-4c.09-.91.67-1.57,1.31-1.47l5.94.9c.64.09,1.08.9,1,1.81l-.4,4C301.85,283.84,301.26,284.5,300.63,284.4Z" transform="translate(-254.9 -226.77)" fill="#e30613" stroke="#e30613" stroke-miterlimit="10" stroke-width="0.43"/></g><g id="CHID_DENT_Post_T_2"><path d="M286,288.39l-9.59-3.6a.79.79,0,0,1-.38-1l1.06-3.15a.75.75,0,0,1,.91-.55l9.59,3.6a.79.79,0,0,1,.38,1l-1.06,3.15A.75.75,0,0,1,286,288.39Z" transform="translate(-254.9 -226.77)" fill="#e30613" stroke="#e30613" stroke-miterlimit="10" stroke-width="0.43"/><path d="M269.17,324.11l-1.21-.45a1.43,1.43,0,0,1-.67-1.83l11.87-35.27a1.31,1.31,0,0,1,1.61-1L282,286a1.44,1.44,0,0,1,.66,1.83l-11.87,35.28A1.31,1.31,0,0,1,269.17,324.11Z" transform="translate(-254.9 -226.77)" fill="#e30613" stroke="#e30613" stroke-miterlimit="10" stroke-width="0.43"/><path d="M281.85,295.32l-6.57-2.46a.4.4,0,0,1-.18-.51l.34-1a.37.37,0,0,1,.45-.28l6.56,2.46a.4.4,0,0,1,.19.51l-.34,1A.38.38,0,0,1,281.85,295.32Z" transform="translate(-254.9 -226.77)" fill="#e30613" stroke="#e30613" stroke-miterlimit="10" stroke-width="0.43"/><path d="M280.14,300.73l-6.6-2.47a.38.38,0,0,1-.18-.48l.36-1.06a.35.35,0,0,1,.42-.26l6.61,2.48a.36.36,0,0,1,.17.47l-.36,1.07A.34.34,0,0,1,280.14,300.73Z" transform="translate(-254.9 -226.77)" fill="#e30613" stroke="#e30613" stroke-miterlimit="10" stroke-width="0.43"/><path d="M278.22,306.06l-6.55-2.45a.41.41,0,0,1-.19-.52l.34-1a.36.36,0,0,1,.45-.27l6.56,2.45a.41.41,0,0,1,.19.52l-.34,1A.37.37,0,0,1,278.22,306.06Z" transform="translate(-254.9 -226.77)" fill="#e30613" stroke="#e30613" stroke-miterlimit="10" stroke-width="0.43"/><path d="M276.53,311.48,269.91,309a.37.37,0,0,1-.17-.47l.37-1.08a.34.34,0,0,1,.41-.25l6.61,2.48a.36.36,0,0,1,.17.47l-.36,1.07A.33.33,0,0,1,276.53,311.48Z" transform="translate(-254.9 -226.77)" fill="#e30613" stroke="#e30613" stroke-miterlimit="10" stroke-width="0.43"/><path d="M274.73,316.86l-6.63-2.48a.36.36,0,0,1-.17-.46l.37-1.09a.32.32,0,0,1,.4-.24l6.59,2.46a.42.42,0,0,1,.19.53l-.35,1A.33.33,0,0,1,274.73,316.86Z" transform="translate(-254.9 -226.77)" fill="#e30613" stroke="#e30613" stroke-miterlimit="10" stroke-width="0.43"/><path d="M272.8,322.19l-6.56-2.45a.41.41,0,0,1-.19-.52l.34-1a.37.37,0,0,1,.45-.28l6.56,2.46a.4.4,0,0,1,.19.51l-.34,1A.36.36,0,0,1,272.8,322.19Z" transform="translate(-254.9 -226.77)" fill="#e30613" stroke="#e30613" stroke-miterlimit="10" stroke-width="0.43"/><line x1="20.06" y1="90.06" x2="11.16" y2="92.8" fill="#e30613" stroke="#e30613" stroke-linecap="round" stroke-miterlimit="10" stroke-width="0.43"/><line x1="20.56" y1="88.45" x2="11.66" y2="91.21" fill="#e30613" stroke="#e30613" stroke-linecap="round" stroke-miterlimit="10" stroke-width="0.43"/><line x1="21.91" y1="84.65" x2="13.04" y2="87.46" fill="#e30613" stroke="#e30613" stroke-linecap="round" stroke-miterlimit="10" stroke-width="0.43"/><line x1="22.38" y1="83.13" x2="13.58" y2="85.84" fill="#e30613" stroke="#e30613" stroke-linecap="round" stroke-miterlimit="10" stroke-width="0.43"/><line x1="23.55" y1="79.28" x2="14.85" y2="82.08" fill="#e30613" stroke="#e30613" stroke-linecap="round" stroke-miterlimit="10" stroke-width="0.43"/><line x1="24.1" y1="77.68" x2="15.36" y2="80.48" fill="#e30613" stroke="#e30613" stroke-linecap="round" stroke-miterlimit="10" stroke-width="0.43"/><line x1="25.5" y1="73.92" x2="16.57" y2="76.62" fill="#e30613" stroke="#e30613" stroke-linecap="round" stroke-miterlimit="10" stroke-width="0.43"/><line x1="26" y1="72.32" x2="17.14" y2="75.06" fill="#e30613" stroke="#e30613" stroke-linecap="round" stroke-miterlimit="10" stroke-width="0.43"/><line x1="27.2" y1="68.52" x2="18.47" y2="71.33" fill="#e30613" stroke="#e30613" stroke-linecap="round" stroke-miterlimit="10" stroke-width="0.43"/><line x1="27.72" y1="66.92" x2="19.05" y2="69.7" fill="#e30613" stroke="#e30613" stroke-linecap="round" stroke-miterlimit="10" stroke-width="0.43"/><path d="M266.52,317.61" transform="translate(-254.9 -226.77)" fill="#e30613" stroke="#e30613" stroke-miterlimit="10" stroke-width="0.43"/><path d="M285.7,284l-6.54-2.45a1.6,1.6,0,0,1-.74-2l1.29-3.81a1.46,1.46,0,0,1,1.78-1.09L288,277.1a1.58,1.58,0,0,1,.74,2l-1.28,3.81A1.46,1.46,0,0,1,285.7,284Z" transform="translate(-254.9 -226.77)" fill="#e30613" stroke="#e30613" stroke-miterlimit="10" stroke-width="0.43"/></g></g><g id="CHID_DENT_Periodental_T"><path id="CHID_DENT_Left_Periodental_T" d="M268.56,287.21c.1.15-.39.52-.62,1.39a4.5,4.5,0,0,0,.1,2.32c.42,1.86.75,2.52,1,3.6a15.61,15.61,0,0,1,.41,4.19c0,2.41,0,4.15-.72,4.53s-2.22-.71-2.91-2.1c-.87-1.74,0-2.76-.1-6.38-.13-3.27-.94-4.16-.21-5.58C266.39,287.56,268.38,286.94,268.56,287.21Z" transform="translate(-254.9 -226.77)" fill="#e30613" stroke="#e30613" stroke-miterlimit="10" stroke-width="0.43"/><path id="CHID_DENT_Right_Periodental_T" d="M305.92,288.72c-.12.19.47.62.83,1.74a6.48,6.48,0,0,1,.11,3.14,52.87,52.87,0,0,1-1,6c-.93,3.47-1.61,4.31-1.14,5,.61.89,2.66.79,3.73-.35s.47-2.37.94-5.81c.57-4.17,1.75-4.89,1.14-6.62C309.6,289.33,306.19,288.3,305.92,288.72Z" transform="translate(-254.9 -226.77)" fill="#e30613" stroke="#e30613" stroke-miterlimit="10" stroke-width="0.43"/></g><g id="CHID_DENT_Implant_T"><path d="M301.62,290.11l-27.43.05c-1,0-1.84-.45-1.83-1l.06-4c0-.56.84-1,1.86-1l27.44,0c1,0,1.83.45,1.82,1l-.06,4C303.47,289.66,302.64,290.11,301.62,290.11Z" transform="translate(-254.9 -226.77)" fill="#e30613" stroke="#e30613" stroke-miterlimit="10" stroke-width="0.43"/><path d="M288.74,337.8h-3.46c-1.8,0-3.25-.8-3.23-1.79l.68-45c0-1,1.49-1.8,3.29-1.8h3.46c1.8,0,3.25.8,3.23,1.79L292,336C292,337,290.54,337.8,288.74,337.8Z" transform="translate(-254.9 -226.77)" fill="#e30613" stroke="#e30613" stroke-miterlimit="10" stroke-width="0.43"/><path d="M296.91,299.73l-18.78,0c-.5,0-.9-.22-.9-.5l0-1.29c0-.28.42-.5.92-.5l18.77,0c.5,0,.9.22.9.49l0,1.3C297.81,299.51,297.41,299.73,296.91,299.73Z" transform="translate(-254.9 -226.77)" fill="#e30613" stroke="#e30613" stroke-miterlimit="10" stroke-width="0.43"/><path d="M297.1,306.6l-18.89,0c-.47,0-.84-.2-.84-.46l0-1.36c0-.26.39-.47.86-.47l18.89,0c.46,0,.84.21.84.47l0,1.35C298,306.39,297.57,306.6,297.1,306.6Z" transform="translate(-254.9 -226.77)" fill="#e30613" stroke="#e30613" stroke-miterlimit="10" stroke-width="0.43"/><path d="M296.68,313.47l-18.74,0c-.51,0-.92-.23-.91-.51l0-1.27c0-.28.42-.51.92-.51l18.75,0c.5,0,.91.22.91.5l0,1.28C297.61,313.24,297.19,313.47,296.68,313.47Z" transform="translate(-254.9 -226.77)" fill="#e30613" stroke="#e30613" stroke-miterlimit="10" stroke-width="0.43"/><path d="M296.91,320.33l-18.92,0c-.46,0-.83-.21-.83-.46l0-1.37c0-.26.38-.46.84-.46l18.92,0c.46,0,.83.2.83.45l0,1.37C297.74,320.13,297.37,320.33,296.91,320.33Z" transform="translate(-254.9 -226.77)" fill="#e30613" stroke="#e30613" stroke-miterlimit="10" stroke-width="0.43"/><path d="M296.83,327.2l-19,0c-.45,0-.8-.19-.8-.44l0-1.4c0-.24.37-.44.82-.45l18.84,0c.51,0,.93.23.92.51l0,1.33C297.64,327,297.27,327.2,296.83,327.2Z" transform="translate(-254.9 -226.77)" fill="#e30613" stroke="#e30613" stroke-miterlimit="10" stroke-width="0.43"/><path d="M296.37,334.07l-18.75,0c-.5,0-.91-.22-.91-.5l0-1.28c0-.28.42-.51.93-.51l18.75,0c.5,0,.91.22.91.5l0,1.28C297.29,333.84,296.88,334.07,296.37,334.07Z" transform="translate(-254.9 -226.77)" fill="#e30613" stroke="#e30613" stroke-miterlimit="10" stroke-width="0.43"/><line x1="42.49" y1="100.3" x2="22.15" y2="107.22" fill="#e30613" stroke="#e30613" stroke-linecap="round" stroke-miterlimit="10" stroke-width="0.43"/><line x1="42.42" y1="98.26" x2="22.08" y2="105.2" fill="#e30613" stroke="#e30613" stroke-linecap="round" stroke-miterlimit="10" stroke-width="0.43"/><line x1="42.68" y1="93.37" x2="22.45" y2="100.36" fill="#e30613" stroke="#e30613" stroke-linecap="round" stroke-miterlimit="10" stroke-width="0.43"/><line x1="42.6" y1="91.44" x2="22.46" y2="98.29" fill="#e30613" stroke="#e30613" stroke-linecap="round" stroke-miterlimit="10" stroke-width="0.43"/><line x1="42.35" y1="86.58" x2="22.56" y2="93.49" fill="#e30613" stroke="#e30613" stroke-linecap="round" stroke-miterlimit="10" stroke-width="0.43"/><line x1="42.41" y1="84.53" x2="22.51" y2="91.46" fill="#e30613" stroke="#e30613" stroke-linecap="round" stroke-miterlimit="10" stroke-width="0.43"/><line x1="42.83" y1="79.67" x2="22.36" y2="86.56" fill="#e30613" stroke="#e30613" stroke-linecap="round" stroke-miterlimit="10" stroke-width="0.43"/><line x1="42.75" y1="77.65" x2="22.5" y2="84.55" fill="#e30613" stroke="#e30613" stroke-linecap="round" stroke-miterlimit="10" stroke-width="0.43"/><line x1="42.63" y1="72.82" x2="22.77" y2="79.75" fill="#e30613" stroke="#e30613" stroke-linecap="round" stroke-miterlimit="10" stroke-width="0.43"/><line x1="42.61" y1="70.79" x2="22.86" y2="77.66" fill="#e30613" stroke="#e30613" stroke-linecap="round" stroke-miterlimit="10" stroke-width="0.43"/><path d="M276.55,331.57" transform="translate(-254.9 -226.77)" fill="#e30613" stroke="#e30613" stroke-miterlimit="10" stroke-width="0.43"/><path d="M297.26,285.29l-18.7,0c-2,0-3.59-.88-3.57-2l.07-4.87c0-1.1,1.64-2,3.63-2l18.7,0c2,0,3.59.88,3.58,2l-.08,4.88C300.88,284.4,299.25,285.29,297.26,285.29Z" transform="translate(-254.9 -226.77)" fill="#e30613" stroke="#e30613" stroke-miterlimit="10" stroke-width="0.43"/></g><g id="CHID_DENT_Periapical_T"><path id="CHID_DENT_Periapical_T_1" d="M286.59,323.25c.18.18-1,1.52-2,4.21-.2.54-.54,2-1.23,4.8a9.41,9.41,0,0,0-.41,3.94,2.92,2.92,0,0,0,.7,1.78c.8.73,2,.36,2.82.13a9.56,9.56,0,0,0,3-1.71,24,24,0,0,0,4-3.49c1.54-1.7,2.09-2.88,2.29-2.76s-.33,2.48-1.64,4.47a12.11,12.11,0,0,1-4,3.68c-1.88,1.21-3.05,2-4.7,1.84-.36,0-2.9-.26-3.87-2.23-.39-.78-.29-1.33.82-6.64.58-2.81.89-4.23,1.59-5.39C285,324.2,286.41,323.08,286.59,323.25Z" transform="translate(-254.9 -226.77)" fill="#be1622" stroke="#be1622" stroke-miterlimit="10" stroke-width="0.43"/><path id="CHID_DENT_Periapical_T_2" d="M272.55,328c-.25-.17-.94,1.16-2.76,2.89a20.72,20.72,0,0,1-3.35,2.56,19.43,19.43,0,0,1-3.87,2,5.74,5.74,0,0,1-3.64.46,2.17,2.17,0,0,1-1.53-1,3.06,3.06,0,0,1,.18-2.3c.76-2.23-.17-.54,1.35-5.85a37.11,37.11,0,0,1,1.82-5.52,18.25,18.25,0,0,0,1.17-2.5c-.17-.15-1.92,1.66-3.29,4-1.09,1.87-1.58,3.72-2.57,7.41-1.19,4.48-1.09,5.56-.6,6.39a3.83,3.83,0,0,0,2.12,1.58c1.31.48,2.71.38,5.63-.79,4.09-1.64,6.55-2.63,8.17-5.39C272.4,330.18,272.84,328.17,272.55,328Z" transform="translate(-254.9 -226.77)" fill="#be1622" stroke="#be1622" stroke-miterlimit="10" stroke-width="0.43"/></g><path id="CHID_DENT_Occlusal_Veneer_T" d="M303.05,263.21a16,16,0,0,0-5.66.19,24.29,24.29,0,0,0-6.35,2.5c-1.92,1.15-2.67,2-4.13,1.89a7.34,7.34,0,0,1-2.91-1.14,20.55,20.55,0,0,1-2.24-1.62,8.69,8.69,0,0,0-5.18-1.28,13.25,13.25,0,0,0-6,1.34l-2.49,2.65a1.67,1.67,0,0,0-.26,2,1.2,1.2,0,0,0,1,.45h39.4a.82.82,0,0,0,1-.45,1.05,1.05,0,0,0-.11-1.09l-1.39-3A5.49,5.49,0,0,0,306,264,4.78,4.78,0,0,0,303.05,263.21Z" transform="translate(-254.9 -226.77)" fill="#e30613" stroke="#e30613" stroke-miterlimit="10" stroke-width="1.28"/><g id="CHID_DENT_Endo_Crown_T"><path id="CHID_DENT_Endo_Crown_1T" d="M282.23,277.22l9.65-.24,1.5-6.43a.24.24,0,0,0-.21-.3l-12.58,0a.24.24,0,0,0-.2.32Z" transform="translate(-254.9 -226.77)" fill="#e30613" stroke="#e30613" stroke-miterlimit="10" stroke-width="1.28"/><path id="CHID_DENT_Endo_Crown_2T" d="M303.07,263.07a15.54,15.54,0,0,0-5.66.19,24.07,24.07,0,0,0-6.35,2.49c-1.92,1.15-2.67,2-4.13,1.89A7.19,7.19,0,0,1,284,266.5a20.55,20.55,0,0,1-2.24-1.62,8.77,8.77,0,0,0-5.18-1.28,13.25,13.25,0,0,0-6,1.34l-2.49,2.65a1.68,1.68,0,0,0-.26,2,1.15,1.15,0,0,0,1,.44h39.4a.82.82,0,0,0,1-.44,1,1,0,0,0-.11-1.09l-1.39-3a5.48,5.48,0,0,0-1.62-1.68A4.72,4.72,0,0,0,303.07,263.07Z" transform="translate(-254.9 -226.77)" fill="#e30613" stroke="#e30613" stroke-miterlimit="10" stroke-width="1.28"/></g></g></svg>